<svg xmlns="http://www.w3.org/2000/svg" width="400" height="437.367" fill-rule="evenodd" xmlns:v="https://vecta.io/nano"><path d="M192.6 12.8c.151.244-.463.4-1.576.4-1.003 0-1.824.18-1.824.4s-.433.4-.962.4-1.654.343-2.5.763l-3.038 1.418c-.825.361-1.5.828-1.5 1.038s-.36.381-.8.381-.8.18-.8.4-.294.4-.653.4-.976.372-1.37.826-.865.816-1.047.802c-.649-.048-4.417 1.984-5.12 2.761-.394.436-.874.695-1.066.576s-.458.066-.59.41-.47.625-.751.625c-.797 0-2.621 1.048-2.33 1.339.143.144-.13.261-.606.261s-.867.18-.867.4-.36.4-.8.4-.8.18-.8.4-.371.4-.824.4-.712.18-.576.4-.036.4-.382.4c-.671 0-2.061.703-2.894 1.463-.278.254-1.05.703-1.715.997s-1.209.671-1.209.838-.36.302-.8.302-.8.18-.8.4-.27.4-.6.4-.601.135-.603.3c-.004.337-1.922 1.3-2.588 1.3-.238 0-.692.36-1.009.8s-.852.813-1.188.829-1.152.378-1.812.805-1.513.884-1.896 1.016-.596.4-.476.595-.061.355-.404.355-.624.18-.624.4-.36.4-.8.4-.8.18-.8.4-.36.4-.8.4-.8.18-.8.4-.326.4-.725.4-1.073.315-1.5.701-1.651 1.144-2.721 1.686-2.034 1.217-2.143 1.499-.537.514-.954.514-.757.18-.757.4-.36.4-.8.4-.8.137-.8.304-1.215.933-2.7 1.7-2.76 1.531-2.833 1.696-.312.3-.529.3-.646.225-.953.5c-1.423 1.277-1.806 1.5-2.568 1.5-.449 0-.817.18-.817.4s-.371.4-.824.4-.712.18-.576.4-.033.4-.376.4-.624.18-.624.4-.36.4-.8.4-.8.18-.8.4-.36.4-.8.4-.8.146-.8.325-.623.57-1.383.868-1.476.783-1.588 1.075-.48.532-.816.532-.613.18-.613.4-.36.4-.8.4-.8.146-.8.325-.63.573-1.4.875-1.4.696-1.4.875-.345.325-.767.325-.826.166-.9.37-.396.428-.717.5-.772.276-1 .454c-.692.539-3.2 2.037-3.445 2.057-.125.01-.545.336-.932.723s-.836.621-.998.521-.548.168-.856.596-.882.779-1.273.779-.712.18-.712.4-.253.4-.562.4c-.757 0-3.838 1.665-3.838 2.074 0 .179-.36.326-.8.326s-.8.152-.8.337-.63.676-1.4 1.091-1.4.893-1.4 1.063-.36.309-.8.309-.8.18-.8.4-.371.4-.824.4-.712.18-.576.4-.087.4-.496.4-.918.174-1.131.387-1.195.809-2.18 1.324c-2.939 1.535-4.793 2.745-4.793 3.129 0 .198-.45.36-1 .36s-1 .18-1 .4-.236.4-.525.4-.911.36-1.383.8-1.136.8-1.475.8-.617.18-.617.4-.278.4-.617.4-1.003.36-1.475.8-1.108.8-1.412.8-.804.225-1.111.5c-1.387 1.244-1.791 1.5-2.368 1.5-.339 0-.617.147-.617.326 0 .409-3.081 2.074-3.838 2.074-.309 0-.562.18-.562.4s-.236.4-.525.4-.911.36-1.383.8-1.052.8-1.289.8c-.396 0-2.336 1.101-2.803 1.591-.11.116-.695.465-1.3.777s-1.1.717-1.1.9-.36.332-.8.332-.8.18-.8.4-.234.4-.52.4c-.736 0-2.673.941-2.677 1.3-.002.165-.273.3-.603.3s-.602.135-.605.3-.722.644-1.6 1.064-1.595.916-1.595 1.1-.27.336-.6.336-.6.18-.6.4-.36.4-.8.4-.8.15-.8.332-.495.587-1.1.898-1.391.881-1.747 1.267-.759.703-.897.703c-.57 0-4.656 3.862-4.656 4.401 0 .217-.81 1.216-1.8 2.22s-1.8 2.085-1.8 2.403-.18.576-.4.576-.4.36-.4.8-.18.8-.4.8-.4.36-.4.8-.18.8-.4.8-.4.36-.4.8-.18.8-.4.8-.4.439-.4.976-.18 1.088-.4 1.224-.4.687-.4 1.224-.18.976-.4.976-.4.636-.4 1.414-.267 1.822-.594 2.321c-.728 1.111-.734 181.499-.006 181.72.348.105 5.329-6.824 5.76-8.014.088-.242.275-.531.416-.641.446-.349 7.224-10.811 7.224-11.151 0-.179.36-.651.8-1.049s.8-.889.8-1.092 1.17-2.057 2.6-4.123 2.6-3.867 2.6-4.004 1.17-1.961 2.6-4.056 2.6-3.87 2.6-3.946.45-.623 1-1.217 1-1.245 1-1.448.553-1.212 1.228-2.242c.928-1.413.985-1.586.232-.706-.547.642-1.235 1.632-1.528 2.2-.578 1.123-1.341 2.034-1.703 2.034-.569 0-.23-135.768.344-137.659 1.07-3.526 3.716-6.923 6.521-8.37.608-.314 2.366-1.304 3.906-2.2l5-2.847c1.21-.671 3.37-1.934 4.8-2.809a166.19 166.19 0 0 1 4.4-2.596c2.748-1.535 4.204-2.378 9.2-5.319l6.4-3.709 4.4-2.501 4.1-2.345 2.8-1.6 6.7-3.845 12.4-7.2 9.179-5.314 3.8-2.199 5.921-3.429 4.433-2.6c1.723-1.022 3.211-1.858 3.307-1.858s1.476-.783 3.067-1.74l8.293-4.864 9.6-5.608 6.1-3.537c4.056-2.244 5.837-3.267 9.609-5.518 2.151-1.283 3.997-2.333 4.103-2.333s2.405-1.325 5.109-2.945c13.538-8.11 15.836-8.442 23.351-3.381.92.619 1.781 1.126 1.913 1.126s1.991 1.055 4.128 2.345 6.497 3.834 9.687 5.653l7.1 4.055 6.1 3.466a222.89 222.89 0 0 1 4.6 2.687l4.6 2.688 10.9 6.26 14.3 8.132a287.92 287.92 0 0 1 5 2.92c4.657 2.779 10.906 6.374 15.4 8.859l3.6 2.027 4 2.308 3.9 2.249 5.6 3.187a95.02 95.02 0 0 1 3.3 1.96c.99.618 4.41 2.606 7.6 4.417l10.318 5.931c1.164.691 2.184 1.256 2.267 1.256s1.559.836 3.282 1.858l4.333 2.546c14.096 8.086 14.507 8.388 16.291 11.97L358.6 131l-.025 87.4-.024 87.4-1.12 2.2c-1.34 2.633-2.419 3.875-4.031 4.638-.66.312-1.92 1.004-2.8 1.538l-3 1.808-2.8 1.68c-.77.463-2.317 1.341-3.438 1.951-1.875 1.019-4.273 2.406-8.077 4.669-.817.486-2.115 1.225-2.885 1.643l-2.6 1.414c-.66.36-1.425.655-1.7.657s-.5.253-.5.559c0 .492-1.914 1.71-8.4 5.342-.99.554-1.98 1.141-2.2 1.304s-2.425 1.322-4.9 2.576-4.5 2.42-4.5 2.59-.675.605-1.5.965-2.383 1.209-3.462 1.886-3.059 1.845-4.4 2.597l-6.838 3.97a39.47 39.47 0 0 1-2.9 1.565c-.715.334-1.3.768-1.3.964s-.699.567-1.553.823-1.775.734-2.049 1.063-.72.598-.993.598-.926.336-1.451.746-2.028 1.318-3.34 2.016-2.483 1.398-2.6 1.554-.844.603-1.614.992a57.19 57.19 0 0 0-3 1.673c-.88.53-2.14 1.248-2.8 1.594a71.87 71.87 0 0 0-2.8 1.59c-2.928 1.756-3.894 2.224-4.203 2.033-.168-.104-.391.134-.494.529-.152.581-4.102 3.146-9.703 6.299l-2.8 1.568-5.312 3.062c-1.822 1.069-3.41 1.944-3.528 1.944s-1.001.54-1.96 1.2-1.823 1.2-1.92 1.2-2.225 1.194-4.728 2.654l-5.752 3.339-5.2 3.002-5.4 3.119-3.4 1.963c-6.883 3.996-9.169 3.591-21.8-3.869l-8.5-4.95-4.433-2.6c-1.723-1.022-3.221-1.858-3.328-1.858s-.98-.54-1.939-1.2-1.841-1.2-1.96-1.2-1.706-.875-3.528-1.944L158 376.313l-3.4-1.913-3.379-1.914-3.8-2.199a169.49 169.49 0 0 0-3.821-2.193c-3.863-2.134-9.213-5.391-9.43-5.742-.234-.38.65-2.07 4.215-8.052.492-.825.793-1.5.67-1.5-.292 0-3.89 6.074-6.16 10.4-2.009 3.828-3.748 6.901-4.076 7.2-.12.11-.475.65-.788 1.2-2.174 3.822-5.851 9.985-6.506 10.905-1.276 1.793-.701 3.26 1.702 4.346 1.085.49 1.973 1.04 1.973 1.22s.36.329.8.329.8.18.8.4.27.4.6.4.6.18.6.4.36.4.8.4.8.18.8.4.371.4.824.4.712.18.576.4.123.4.576.4.824.18.824.4.276.4.613.4.716.27.842.6.571.6.988.6.757.18.757.4.261.4.58.4 1.38.54 2.358 1.2 2.067 1.2 2.42 1.2.642.18.642.4.294.4.653.4.989.388 1.4.861.747.712.747.53.405.035.9.482 1.485 1.063 2.2 1.368 1.3.69 1.3.857.27.302.6.302.6.18.6.4.36.4.8.4.8.18.8.4.36.4.8.4.8.18.8.4.36.4.8.4.8.18.8.4.27.4.6.4.6.18.6.4.248.4.551.4.77.264 1.038.587.609.548.757.5.705.318 1.237.813 1.294.9 1.692.9.725.18.725.4.36.4.8.4.8.18.8.4.36.4.8.4.8.18.8.4.281.4.624.4.512.18.376.4.123.4.576.4.824.18.824.4.45.4 1 .4 1 .186 1 .413.315.532.7.679 1.049.592 1.475.988 1.012.72 1.3.72.525.18.525.4.315.404.7.409 1.15.361 1.7.791 1.225.786 1.5.791.5.189.5.409.349.4.776.4.888.18 1.024.4.597.4 1.024.4.731.221.676.491.305.552.8.627.9.305.9.51.27.372.6.372.6.18.6.4.45.4 1 .4 1 .18 1 .4.45.4 1 .4 1 .18 1 .4.72.4 1.6.4 1.6.18 1.6.4.99.4 2.2.4 2.2.18 2.2.4c0 .537 10.668.537 11 0 .136-.22 1.036-.4 2-.4s1.864-.18 2-.4.856-.4 1.6-.4 1.464-.18 1.6-.4.582-.4.99-.4.803-.135.877-.3 1.009-.744 2.079-1.286 2.034-1.218 2.143-1.5.537-.514.954-.514.757-.18.757-.4.27-.4.6-.4.601-.135.603-.3c.004-.359 1.941-1.3 2.677-1.3.286 0 .52-.18.52-.4s.36-.4.8-.4.8-.18.8-.4.225-.4.5-.4 1.023-.451 1.662-1 1.404-1 1.7-1 .538-.18.538-.4.32-.4.712-.4.971-.36 1.288-.8.897-.8 1.288-.8.712-.18.712-.4.36-.4.8-.4.8-.18.8-.4.36-.4.8-.4.8-.15.8-.332.495-.588 1.1-.9 2.41-1.333 4.012-2.268 3.086-1.7 3.3-1.7.388-.18.388-.4.32-.4.712-.4.971-.36 1.288-.8.772-.8 1.01-.8 1.323-.467 2.411-1.037c3.733-1.956 3.883-2.06 3.315-2.286-.298-.119-.137-.228.364-.245.495-.018.9-.212.9-.432s.45-.4 1-.4 1-.18 1-.4.36-.4.8-.4.8-.168.8-.373.359-.487.798-.626 1.023-.474 1.3-.744 1.364-.892 2.418-1.383 2.018-1.159 2.143-1.484.567-.59.984-.59.757-.18.757-.4.36-.4.8-.4.8-.18.8-.4.36-.4.8-.4.8-.18.8-.4.27-.4.6-.4.6-.18.6-.4.294-.4.653-.4.944-.33 1.3-.733 1.412-1.068 2.347-1.477 1.7-.889 1.7-1.067.36-.323.8-.323.8-.18.8-.4.371-.4.824-.4.731-.15.618-.332.416-.577 1.176-.875 1.382-.689 1.382-.868.36-.325.8-.325.8-.144.8-.32.63-.547 1.4-.826 1.4-.674 1.4-.88.276-.374.613-.374.716-.27.842-.6.571-.6.988-.6.757-.18.757-.4.27-.4.6-.4.6-.18.6-.4.36-.4.8-.4.8-.18.8-.4.32-.4.712-.4.971-.36 1.288-.8.81-.8 1.096-.8 1.233-.45 2.104-1 1.768-1 1.992-1 .408-.18.408-.4.36-.4.8-.4.8-.18.8-.4.281-.4.624-.4.512-.18.376-.4c-.14-.227.196-.4.776-.4.563 0 1.024-.18 1.024-.4s.27-.4.6-.4.6-.18.6-.4.27-.4.6-.4.6-.18.6-.4.36-.4.8-.4.8-.138.8-.306.675-.601 1.5-.964 1.897-1.034 2.383-1.494 1.161-.836 1.5-.836.617-.18.617-.4.36-.4.8-.4.8-.18.8-.4.326-.4.725-.4 1.111-.36 1.583-.8 1.136-.8 1.475-.8.617-.158.617-.351.54-.576 1.2-.849 1.2-.74 1.2-1.036.247-.444.548-.328.829-.07 1.172-.413.906-.623 1.251-.623.629-.18.629-.4.39-.4.867-.4.749-.117.606-.261.996-.886 2.533-1.651 2.794-1.547 2.794-1.739.283-.349.629-.349.879-.225 1.186-.5c1.392-1.249 1.793-1.5 2.392-1.5.352 0 .529-.18.393-.4s.123-.4.576-.4.824-.18.824-.4.36-.4.8-.4.8-.18.8-.4.36-.4.8-.4.8-.18.8-.4.36-.4.8-.4.8-.18.8-.4.184-.4.409-.4c.485 0 3.733-2.069 3.924-2.5.074-.165.439-.3.812-.3s.938-.36 1.255-.8.987-.8 1.488-.8.912-.18.912-.4.36-.4.8-.4.8-.18.8-.4.236-.4.525-.4.911-.36 1.383-.8 1.136-.8 1.475-.8.617-.18.617-.4.227-.4.504-.4.989-.45 1.583-1 1.356-1 1.696-1 .617-.18.617-.4.36-.4.8-.4.8-.18.8-.4.283-.4.629-.4c.657 0 6.971-6.09 6.971-6.724 0-.2.45-.702 1-1.115s1-1.068 1-1.456.18-.705.4-.705.4-.255.4-.567.135-.626.3-.7c.463-.205 2.1-3.366 2.1-4.054 0-.337.174-.672.387-.746s.431-.706.483-1.405.279-1.24.503-1.2.473-.378.551-.928.308-1.171.51-1.38.366-1.154.366-2.1.178-1.72.397-1.72c.552 0 .558-180.657.005-180.999-.221-.136-.402-.947-.402-1.801s-.18-1.664-.4-1.8-.4-.777-.4-1.424-.191-1.176-.424-1.176-.312-.18-.176-.4.057-.4-.176-.4-.424-.349-.424-.776-.18-.888-.4-1.024-.4-.597-.4-1.024-.18-.776-.4-.776-.4-.36-.4-.8-.18-.8-.4-.8-.4-.36-.4-.8-.18-.8-.4-.8-.4-.281-.4-.624-.18-.512-.4-.376-.4-.078-.4-.476c-.001-.837-1.676-2.924-2.347-2.924-.249 0-.453-.25-.453-.555 0-.739-3.862-4.717-5.5-5.665-.715-.414-1.3-.894-1.3-1.066s-.36-.314-.8-.314-.8-.168-.8-.373-.359-.487-.798-.626-1.023-.469-1.3-.732c-.803-.766-2.635-1.869-3.105-1.869-.237 0-.817-.36-1.289-.8s-1.095-.8-1.383-.8-.525-.18-.525-.4-.36-.4-.8-.4-.8-.18-.8-.4-.45-.4-1-.4-1-.18-1-.4-.281-.4-.624-.4-.512-.18-.376-.4-.046-.4-.405-.4-.924-.272-1.256-.604-.769-.501-.971-.376-.368.045-.368-.178-.63-.703-1.4-1.069-1.4-.834-1.4-1.042-.165-.276-.368-.151-.639-.044-.971-.376-.887-.604-1.232-.604-.629-.147-.629-.326c0-.396-3.07-2.074-3.795-2.074-.286 0-.623-.27-.75-.6s-.506-.6-.842-.6-.613-.18-.613-.4-.27-.4-.6-.4-.6-.18-.6-.4-.36-.4-.8-.4-.801-.135-.803-.3c-.004-.359-1.941-1.3-2.677-1.3-.286 0-.52-.158-.52-.351s-.54-.576-1.2-.849-1.2-.655-1.2-.849-.278-.351-.617-.351a2 2 0 0 1-1.1-.406c-.958-.804-3.327-2.258-4.592-2.818-.71-.314-1.291-.707-1.291-.874s-.249-.302-.554-.302c-.83 0-2.673-1.04-2.373-1.339.143-.144-.13-.261-.606-.261s-.867-.18-.867-.4-.345-.4-.767-.4-.826-.166-.9-.37-.382-.428-.687-.5-1.006-.535-1.558-1.03-1.249-.9-1.546-.9-.542-.18-.542-.4-.36-.4-.8-.4-.8-.147-.8-.326c0-.409-3.081-2.074-3.838-2.074-.309 0-.562-.18-.562-.4s-.294-.4-.653-.4-.944-.32-1.3-.71c-.908-.997-2.703-2.09-3.433-2.09-.338 0-.614-.158-.614-.351s-.54-.576-1.2-.849-1.2-.655-1.2-.849-.36-.351-.8-.351-.8-.18-.8-.4-.36-.4-.8-.4-.8-.18-.8-.4-.272-.4-.605-.4c-.747 0-1.989-.713-3.31-1.9-.551-.495-1.246-.9-1.543-.9s-.542-.18-.542-.4-.315-.406-.7-.413-1.042-.271-1.459-.587-.94-.462-1.162-.325c-.228.141-.279.049-.117-.213.169-.274.031-.462-.338-.462-.343 0-.624-.18-.624-.4s-.36-.4-.8-.4-.8-.18-.8-.4-.36-.4-.8-.4-.8-.152-.8-.337-.63-.676-1.4-1.091-1.4-.893-1.4-1.063-.36-.309-.8-.309-.8-.18-.8-.4-.278-.4-.617-.4-1.003-.36-1.475-.8-1.185-.8-1.583-.8-.725-.18-.725-.4-.36-.4-.8-.4-.8-.152-.8-.337-.813-.755-1.806-1.266-2.005-1.169-2.249-1.463-.698-.534-1.011-.534-.954-.36-1.426-.8-1.095-.8-1.383-.8-.525-.18-.525-.4-.36-.4-.8-.4-.8-.18-.8-.4-.371-.4-.824-.4-.712-.18-.576-.4-.123-.4-.576-.4-.824-.18-.824-.4-.36-.4-.8-.4-.8-.153-.8-.339-.72-.664-1.6-1.061-1.6-.841-1.6-.986-.63-.512-1.4-.814-1.4-.696-1.4-.875-.272-.325-.605-.325c-.709 0-2.025-.711-3.15-1.7-.438-.385-1.122-.7-1.52-.7s-.725-.18-.725-.4-.36-.4-.8-.4-.8-.267-.8-.6c0-.537-.253-.673-1.055-.566-.141.019-.366-.14-.5-.353-.287-.454-3.53-2.413-4.545-2.745-.385-.126-.7-.388-.7-.583s-.36-.353-.8-.353-.8-.18-.8-.4-.345-.4-.767-.4-.826-.167-.9-.37-.393-.429-.712-.5-.968-.535-1.445-1.03-1.162-.9-1.522-.9-.654-.18-.654-.4-.225-.404-.5-.409-.95-.361-1.5-.791-1.315-.786-1.7-.791-.7-.189-.7-.409-.36-.4-.8-.4-.8-.18-.8-.4-.36-.4-.8-.4-.8-.18-.8-.4-.251-.4-.558-.4-.982-.447-1.5-.993-1.347-.996-1.842-1-.9-.187-.9-.407-.45-.4-1-.4-1-.18-1-.4-.529-.4-1.176-.4-1.288-.18-1.424-.4-.946-.4-1.8-.4-1.664-.18-1.8-.4c-.151-.245-3.279-.4-8.047-.4-5.098 0-7.715.139-7.553.4m-33.945 119.947c-.629.139 5.761.254 14.2.254s13.455-.112 11.145-.251c-5.456-.327-23.864-.33-25.345-.003m-7.055.883c-.77.18-2.48.542-3.8.803s-3.12.728-4 1.036c-1.67.585-.775.476 2.4-.292 2.359-.57 6.074-1.23 8.8-1.562l2.4-.293-2.2-.01c-1.21-.006-2.83.137-3.6.318m37.852-.144c1.175.148 1.219 2.099.048 2.111-.165.002-.3.192-.3.422s-1.35 2.489-3 5.02-3 4.692-3 4.803-.736 1.286-1.636 2.611-1.561 2.483-1.471 2.574c.204.203 3.507-4.932 3.507-5.452 0-.206.18-.375.4-.375s.4-.172.4-.382 1.171-2.186 2.602-4.391c2.603-4.011 4.198-6.686 4.198-7.039 0-.103-.675-.159-1.5-.124-1.407.06-1.422.074-.248.222m17.084 3.214l-3.966 6.3c-1.402 2.525-2.343 4.114-2.96 5-.936 1.344-1.81 3.099-1.295 2.6.649-.628 4.885-7.729 4.885-8.188 0-.227.151-.412.336-.412s.536-.44.781-.979 1.378-2.428 2.518-4.2l2.071-3.221h29.547l29.538.3c-.005.165-.361.75-.791 1.3s-.786 1.152-.791 1.338-.389.872-.853 1.523-.756 1.272-.649 1.379c.194.194 1.885-2.44 1.902-2.963.005-.152.361-.727.791-1.277 1.636-2.091 2.957-2-29.009-2h-29.809l-2.246 3.5m-65.936-.3c-.771.331-.769.345.076.372.482.015.988-.152 1.124-.372.292-.473-.099-.473-1.2 0m-4.7 1.829c-.605.328-1.1.677-1.1.775 0 .224 2.066-.641 2.58-1.08.627-.534-.276-.348-1.48.305m-4.221 2.225c-1.167.68-2.049 1.309-1.96 1.398s1.213-.471 2.498-1.245 2.167-1.403 1.959-1.398-1.331.565-2.497 1.245m132.312.046c-.005.275-.361.95-.791 1.5-.761.973-1.164 2.172-.464 1.38.886-1.003 2.08-3.38 1.697-3.38-.238 0-.437.225-.442.5m-136.881 3.015c-.819.597-1.494 1.251-1.5 1.455s.395.006.89-.438a20.68 20.68 0 0 1 1.889-1.47c.544-.364.814-.655.6-.647s-1.059.503-1.879 1.1m-4.31 3.885c-1.195 1.21-1.999 2.181-1.786 2.157.38-.043 4.472-4.357 4.133-4.357-.096 0-1.152.99-2.347 2.2m136.875.614c-1.844 3.079-2.248 4.214-.675 1.9.55-.809 1-1.588 1-1.731s.38-.793.844-1.444.767-1.261.675-1.354-.922 1.091-1.844 2.629M119.684 151.1c-1.386 1.979-1.936 3.2-1.149 2.551.366-.302.665-.724.665-.938s.372-.912.827-1.551.737-1.162.627-1.162-.546.495-.97 1.1m59.209 1.6c-1.036 1.496-1.372 2.1-1.17 2.1.094 0 .647-.72 1.23-1.6 1.183-1.788 1.131-2.221-.06-.5m16.754 1.747c-.703 1.131-1.209 2.124-1.125 2.209s.728-.773 1.431-1.903 1.209-2.124 1.125-2.209-.728.773-1.431 1.903m60.661-.747c-.321.495-.801 1.35-1.068 1.9-.68 1.403.554-.094 1.401-1.7.698-1.326.482-1.456-.333-.2m-80.636 4.173c-.951 1.432-1.657 2.675-1.571 2.761s.917-1.033 1.844-2.489c2.193-3.439 1.973-3.658-.273-.272m78.337-.155c-3.085 4.852-4.989 8.499-2.609 4.996.55-.809 1-1.584 1-1.721s.557-1.059 1.239-2.049 1.169-1.869 1.084-1.954-.406.243-.714.728m-61.52 1.982c-2.804 4.369-4.914 8.008-4.742 8.181.092.091.758-.879 1.479-2.157s1.788-3.044 2.37-3.924c1.698-2.567 2.884-4.6 2.684-4.6-.102 0-.908 1.125-1.791 2.5m-79.27 1.272c-.67.975-1.219 1.887-1.219 2.028s-.566 1.098-1.257 2.128-.975 1.602-.631 1.272c.673-.646 4.759-7.2 4.489-7.2-.089 0-.711.797-1.382 1.772m58.027 4.052c-1.345 2.102-2.446 3.946-2.446 4.095 0 .281 2.752-3.774 4.356-6.419 1.88-3.101.439-1.348-1.91 2.324m78.354-.24c0 .212-.99 2.035-2.2 4.052s-2.2 3.775-2.2 3.908c0 .304 1.688-2.169 2.716-3.98l1.669-2.864c.492-.825.696-1.5.455-1.5s-.44.173-.44.384M103.969 175.47l-5.528 8.698c-.088.238-.686 1.242-1.329 2.232-.993 1.529-1.017 1.623-.163.622.553-.648 1.404-1.953 1.891-2.9s1.037-1.722 1.223-1.722.337-.175.337-.389 2.078-3.565 4.619-7.448 4.551-7.127 4.468-7.209-2.566 3.57-5.518 8.116m81.72-4.57c-2.696 4.199-6.039 9.895-5.562 9.475.373-.327 3.473-5.163 3.473-5.416 0-.118.507-.967 1.127-1.887 1.671-2.478 2.963-4.672 2.753-4.672-.102 0-.908 1.125-1.791 2.5m-21.5 5.4l-5.444 8.628c-1.51 2.381-2.745 4.496-2.745 4.7s-.135.373-.3.375-.497.407-.738.9c-.478.981-4.409 7.303-7.234 11.635-.982 1.506-1.716 2.808-1.631 2.893s1.149-1.418 2.365-3.339l8.325-13.302c.739-1.294 4.176-6.766 7.269-11.573 2.469-3.836 3.263-5.217 3.001-5.217-.093 0-1.384 1.935-2.868 4.3m80.202-2.6c-.005.275-.361.95-.791 1.5-.761.973-1.164 2.172-.464 1.38.886-1.003 2.08-3.38 1.697-3.38-.238 0-.437.225-.442.5m-4.414 7.6c-2.962 4.911-5.035 8.652-4.488 8.1.294-.296 5.369-8.699 7.188-11.9.094-.165.081-.3-.028-.3s-1.312 1.845-2.672 4.1m-60.869.4c-.875 1.349-1.66 2.956-1.221 2.5.561-.583 2.211-3.4 1.992-3.4-.103 0-.45.405-.771.9m-2.228 3.58c-.264.264-.48.637-.48.828s-.54 1.133-1.2 2.092-1.2 1.859-1.2 2-.513 1.008-1.141 1.928c-1.304 1.911-2.166 3.472-1.918 3.472.2 0 3.459-5.146 3.459-5.461 0-.119.339-.693.753-1.277.865-1.22 2.489-4.062 2.32-4.062-.062 0-.329.216-.593.48m55.935 8.132c-1.108 1.877-2.015 3.51-2.015 3.628s-.557 1.026-1.239 2.016-1.153 1.885-1.049 1.989c.175.175.848-.843 2.742-4.145l1.492-2.6 1.639-2.8c.492-.825.793-1.5.67-1.5s-1.131 1.536-2.24 3.412m-140.717.26c-1.344 1.969-2.207 3.528-1.954 3.528.095 0 .77-.945 1.501-2.1s1.509-2.225 1.73-2.378.289-.391.152-.528-.781.527-1.429 1.478m75.997 6.151c-.492.751-.895 1.5-.895 1.664s.466-.387 1.036-1.225.972-1.587.895-1.664-.543.474-1.036 1.225m-82.817 4.608c-2.019 3.087-3.51 5.512-3.311 5.389.502-.31 7.31-10.677 7.13-10.856-.08-.081-1.799 2.38-3.819 5.467m141.482-.531a70.99 70.99 0 0 1-2.429 3.972c-.622.92-1.131 1.817-1.131 1.995s.597-.575 1.328-1.672c1.716-2.579 3.988-6.595 3.731-6.595-.11 0-.785 1.035-1.499 2.3m-61.453.6c-2.111 3.374-2.182 3.5-1.965 3.5.104 0 .771-.945 1.481-2.1l1.88-3c.324-.495.494-.9.379-.9s-.914 1.125-1.775 2.5m-2.827 4.38c-.264.264-.48.637-.48.828s-.54 1.133-1.2 2.092-1.2 1.855-1.2 1.991-.595 1.184-1.323 2.328c-1.672 2.631-2.122 3.505-1.275 2.481.928-1.124 6.331-10.2 6.071-10.2-.062 0-.329.216-.593.48m-20.808 3.393c-.951 1.432-1.657 2.675-1.571 2.761s.917-1.033 1.844-2.489c2.193-3.439 1.973-3.658-.273-.272m-61.027-.885c-.365.556-.523 1.012-.35 1.012.389 0 1.424-1.614 1.187-1.851-.096-.096-.472.282-.837.839m141.014.923c-1.051 2.11-.663 1.885.71-.411.493-.825.747-1.495.564-1.489s-.756.861-1.274 1.9M75.19 219.883l-4.749 7.477c-.088.242-.686 1.25-1.329 2.24-.973 1.499-1.002 1.605-.172.634.547-.642 1.235-1.632 1.528-2.2s.67-1.214.839-1.434c.986-1.287 8.708-13.519 8.601-13.625-.071-.071-2.194 3.038-4.718 6.908m143.008-1.6l-3.186 5.317c-1.225 1.941-1.875 3.2-1.651 3.2.17 0 3.902-6.045 5.927-9.6.438-.77.984-1.629 1.212-1.91s.321-.603.206-.717-1.243 1.555-2.508 3.71m-81.753 2.34c-.905 1.443-1.644 2.748-1.643 2.9.002.333 2.196-2.873 3.028-4.423 1.081-2.014.281-1.135-1.385 1.523m16.949 3.477c-3.28 5.451-3.084 5.1-2.844 5.1.109 0 1.403-2.025 2.877-4.5 3.298-5.539 3.054-5.1 2.847-5.1-.095 0-1.391 2.025-2.88 4.5m-19.394.283c0 .211-1.35 2.463-3 5.004s-3 4.721-3 4.845-.513.976-1.141 1.896c-1.304 1.911-2.166 3.472-1.918 3.472.177 0 3.459-5.128 3.459-5.403 0-.086 1.319-2.191 2.931-4.677 3.701-5.708 3.595-5.52 3.093-5.52-.233 0-.424.172-.424.383m78.05 4.223c-.468.792-.85 1.532-.85 1.645s-.54.99-1.2 1.949-1.2 1.864-1.2 2.01-.328.744-.73 1.328c-1.224 1.781-2.625 4.287-2.16 3.862s5.69-8.937 5.69-9.275c0-.111.38-.735.844-1.386s.756-1.272.649-1.379-.576.454-1.043 1.246m-63.951 4.222c-.714 1.079-1.299 2.097-1.299 2.262s.645-.658 1.433-1.829 1.373-2.188 1.299-2.262-.719.749-1.433 1.829m-82.052 1.103c-2.16 3.18-3.471 5.553-2.729 4.937.328-.272.817-1.029 1.087-1.681s.65-1.187.844-1.187.351-.193.351-.428.549-1.225 1.219-2.2 1.127-1.772 1.015-1.772-.917 1.049-1.787 2.331m79.875 2.569c-.314.495-.975 1.62-1.469 2.5-1.058 1.882.097.417 1.47-1.866.974-1.62.973-2.172-.001-.634m58.925 4.373c-.287.46-.838 1.397-1.223 2.082s-2.079 3.557-3.762 6.383-3.062 5.224-3.062 5.328-.557 1-1.239 1.99-1.159 1.879-1.062 1.976c.168.168 2.701-3.665 2.701-4.087 0-.11.54-.986 1.2-1.945s1.2-1.851 1.2-1.981.423-.907.941-1.728c2.095-3.32 5.096-8.587 4.967-8.717-.076-.075-.373.239-.661.699m-148.888 8.784l-5.89 9.3c-.14.472 10.813-16.016 11.533-17.361 1.278-2.387-.498.149-5.643 8.061m85.303-5.635c-1.717 2.764-1.599 3.068.171.439.788-1.17 1.357-2.205 1.263-2.299s-.739.743-1.434 1.86m-20.79 2.226c-1.38 2.117-2.436 3.921-2.348 4.009s1.15-1.418 2.359-3.348c2.581-4.12 2.808-4.509 2.631-4.509-.074 0-1.263 1.732-2.642 3.848m18.245 2.052c-1.232 1.869-2 3.3-1.771 3.3.096 0 .529-.601.962-1.335a73.16 73.16 0 0 1 1.486-2.4c.384-.586.611-1.065.505-1.065s-.638.675-1.182 1.5m-3.76 6.19c-.856 1.369-1.629 2.674-1.716 2.9s-.646 1.13-1.241 2.01c-1.134 1.678-2.283 3.76-1.863 3.375.376-.344 3.463-5.173 3.463-5.416 0-.118.513-.967 1.141-1.887 1.28-1.876 2.167-3.472 1.93-3.472-.087 0-.858 1.12-1.714 2.49m-20.533 1.439c-1.282 1.953-2.635 4.328-2.305 4.046.461-.393 3.528-5.261 3.397-5.392-.069-.069-.56.536-1.092 1.346M48.873 260.6c-.251.55-.39 1-.31 1s.44-.45.8-1 .5-1 .31-1-.55.45-.8 1m60.373 3.624c-1.345 2.102-2.441 3.947-2.436 4.1s1.005-1.254 2.22-3.124c2.534-3.899 3.065-4.8 2.831-4.8-.093 0-1.269 1.721-2.615 3.824m83.149-2.341l-3.242 5.617c-.466.825-1.205 2.005-1.643 2.623s-.71 1.21-.603 1.317c.213.213 1.126-1.248 4.34-6.94.466-.825 1.205-2.005 1.643-2.623s.71-1.21.603-1.317-.601.489-1.098 1.323m-63.935 3.344c-1.398 2.248-1.72 3.256-.438 1.373 1.008-1.482 2.051-3.4 1.848-3.4-.083 0-.717.912-1.41 2.027m-2.543 4.273c-1.232 1.869-2 3.3-1.771 3.3.096 0 .529-.601.962-1.335a73.16 73.16 0 0 1 1.486-2.4c.384-.586.611-1.065.505-1.065s-.638.675-1.182 1.5m-22.671 4.324c-1.345 2.102-2.446 3.992-2.446 4.2s-.18.376-.4.376-.4.172-.4.383-1.35 2.463-3 5.004-3 4.719-3 4.839-.736 1.302-1.636 2.627-1.557 2.488-1.46 2.584c.154.154 3.04-4.192 3.455-5.205.088-.214 1.663-2.699 3.5-5.523s3.341-5.229 3.341-5.344.687-1.234 1.526-2.487c2.077-3.102 3.377-5.278 3.153-5.278-.102 0-1.287 1.721-2.633 3.824m82.001.249c-.496.794-.931 1.55-2.894 5.027-.466.825-1.205 2.005-1.643 2.623s-.71 1.21-.603 1.317c.213.213 1.25-1.447 4.336-6.94.463-.825 1.029-1.729 1.257-2.01s.337-.587.242-.681-.407.204-.695.664m-63.883 2.856l-1.542 2.371c-.393.605-.629 1.1-.525 1.1.269 0 3.189-4.447 3.027-4.609-.073-.074-.506.438-.96 1.138M117.8 282.8c-.341.66-.531 1.2-.421 1.2s.48-.54.821-1.2.531-1.2.421-1.2-.48.54-.821 1.2m60.634 2.806c-.679 1.103-1.234 2.111-1.234 2.238s-.339.71-.753 1.294a35.04 35.04 0 0 0-1.546 2.462l-3.501 6-3.4 5.8-1.585 2.7c-.492.825-.805 1.5-.697 1.5.172 0 3.071-4.673 5.088-8.2l3.394-5.8 3.4-5.8 1.585-2.7c.492-.825.802-1.5.689-1.5s-.761.903-1.44 2.006m-63.61 2.112l-1.131 1.782c-.322.495-.498.9-.392.9.282 0 2.385-3.247 2.214-3.419-.08-.079-.391.252-.691.737m-2.8 4.611c-1.543 2.349-2.519 4.071-2.308 4.071.256 0 3.554-5.264 3.396-5.421-.067-.067-.556.54-1.088 1.35m-24.663 6.955c-2.199 3.516-2.182 3.818.032.581 1.029-1.504 1.794-2.812 1.699-2.906s-.873.952-1.731 2.325m20.663-.366l-1.131 1.782c-.322.495-.498.9-.392.9.282 0 2.385-3.247 2.214-3.419-.08-.079-.391.252-.691.737M84.473 303.8c-.251.55-.39 1-.31 1s.44-.45.8-1 .5-1 .31-1-.55.45-.8 1m20.541.035c-.373.569-.609 1.103-.525 1.187s.469-.381.855-1.034c.862-1.46.604-1.579-.33-.153M80.711 309.9c-3.561 5.685-3.81 6.499-.381 1.247 2.161-3.311 2.989-4.747 2.736-4.747-.089 0-1.149 1.575-2.355 3.5m21.241-1c-.262.495-.737 1.35-1.056 1.9-.557.959-.553.967.092.2.798-.948 1.917-3 1.636-3-.108 0-.41.405-.672.9m62.52.4c-.436.715-1.154 1.95-1.595 2.745-1.572 2.834-1.88 3.358-2.087 3.555-.231.219-4.172 6.85-5.587 9.4-.489.88-1.075 1.829-1.303 2.11s-.321.603-.207.717c.19.189 1.907-2.402 1.907-2.878 0-.113.54-.99 1.2-1.949s1.2-1.845 1.2-1.968.778-1.441 1.729-2.928 2.275-3.694 2.942-4.904l2.111-3.7c.494-.825.804-1.5.69-1.5s-.564.585-1 1.3m-65.656 4.818c-1.336 2.125-2.082 3.482-1.915 3.482.255 0 2.757-4.075 2.599-4.233-.072-.072-.38.266-.684.751m-23.464 4.364c-1.294 2.025-2.413 3.87-2.489 4.1-.185.569 3.831-5.307 4.568-6.682 1.188-2.216.213-1.006-2.079 2.582m19.77 1.618c-1.611 2.542-2.413 4.115-1.581 3.1.935-1.141 2.601-4 2.331-4-.099 0-.437.405-.75.9m-23.355 4.003c-.482.997-3.552 5.938-6.858 11.035-1.191 1.837-2.089 3.416-1.995 3.509s1.213-1.498 2.488-3.538l6.911-11.009c.319-.495.423-.899.233-.897s-.541.407-.779.9m20.249 1.215c-1.336 2.125-2.082 3.482-1.915 3.482.255 0 2.757-4.075 2.599-4.233-.072-.072-.38.266-.684.751m60.098 4.982c-2.465 4.007-3.714 6.163-3.723 6.427-.005.15-.361.723-.791 1.273s-.786 1.175-.791 1.389c-.012.541.86-.758 3.127-4.653l2.843-4.836c.495-.825.811-1.5.702-1.5s-.724.855-1.367 1.9m-64.891 2.75c-.47.798-.79 1.516-.71 1.596s.548-.573 1.041-1.45c1.121-1.994.834-2.119-.331-.146m-2.724 4.578c-.714 1.079-1.299 2.097-1.299 2.262s.645-.658 1.433-1.829 1.373-2.188 1.299-2.262-.719.749-1.433 1.829m59.529 6.391c-1.336 2.21-2.428 4.19-2.428 4.4s-.18.381-.4.381-.4.197-.4.438-.38.972-.844 1.623-.757 1.272-.651 1.377c.163.164 2.678-3.8 5.101-8.038l1.579-2.7c.492-.825.799-1.5.682-1.5s-1.304 1.808-2.639 4.019m-83.156-2.43c-.48.648-.872 1.286-.872 1.417s-.72 1.298-1.6 2.594c-1.704 2.509-1.829 2.8-1.2 2.8.22 0 .4-.227.4-.505s.63-1.441 1.4-2.585 1.4-2.209 1.4-2.368.391-.706.868-1.215.78-1.012.672-1.121-.589.334-1.068.983m19.342 3.046c-.373.569-.609 1.103-.525 1.187s.469-.381.855-1.034c.862-1.46.604-1.579-.33-.153m-1.798 3.083c-1.336 2.125-2.082 3.482-1.915 3.482.255 0 2.757-4.075 2.599-4.233-.072-.072-.38.266-.684.751" fill="#6cb3e4"/><path d="M157 133.249c-6.597.917-13.547 2.386-15.095 3.19-.382.199-.969.361-1.305.361s-.923.162-1.305.36-2.225 1.089-4.095 1.98c-3.187 1.52-5.54 2.799-6 3.261-.11.111-1.24.991-2.51 1.956-2.605 1.98-6.221 5.801-7.103 7.506-.323.623-1.352 2.239-2.287 3.591s-1.7 2.657-1.7 2.902-.142.444-.315.444-.927 1.035-1.674 2.3a79.92 79.92 0 0 1-2.685 4.201c-.729 1.045-1.326 1.982-1.326 2.08s-2.07 3.344-4.6 7.21-4.6 7.206-4.6 7.42-.15.389-.332.389-.583.495-.889 1.1-1.686 2.746-3.067 4.757-2.512 3.842-2.512 4.067-.135.469-.3.543c-.316.14-4.1 5.785-4.1 6.115 0 .106-1.575 2.555-3.5 5.442l-4.242 6.513c-.408.695-.903 1.323-1.1 1.396a.57.57 0 0 0-.358.48c0 .331-7.944 12.86-8.793 13.87-.224.266-.407.593-.407.728s-1.17 1.923-2.6 3.974-2.6 3.846-2.6 3.989-.184.477-.408.743-1.099 1.563-1.942 2.883l-10.092 15.579-9.127 14.339c-.313.638-.808 1.252-1.1 1.364s-.531.346-.531.52-1.17 2.029-2.6 4.123-2.6 3.92-2.6 4.056-1.17 1.939-2.6 4.004-2.6 3.921-2.6 4.123-.36.694-.8 1.092-.8.87-.8 1.049c0 .34-6.778 10.802-7.224 11.151-.141.11-.328.399-.416.641-.517 1.427-5.438 8.113-5.86 7.962-.39-.139-.5 1.671-.5 8.21 0 6.545.112 8.387.512 8.387.281 0 .771.36 1.088.8s.897.8 1.288.8.712.18.712.4.36.4.8.4.8.18.8.4.36.4.8.4.8.168.8.373.405.501.9.657 1.191.619 1.547 1.027.941.743 1.3.743.653.18.653.4.36.4.8.4.8.18.8.4.27.4.6.4.6.18.6.4.36.4.8.4.8.18.8.4.36.4.8.4.8.18.8.4.251.4.558.4.982.447 1.5.993 1.257.996 1.642 1 .7.187.7.407.278.4.617.4 1.003.36 1.475.8 1.095.8 1.383.8.525.18.525.4.36.4.8.4.8.18.8.4.326.4.725.4 1.111.36 1.583.8 1.117.8 1.432.8.678.27.805.6.506.6.842.6.613.18.613.4.349.4.776.4.888.18 1.024.4.557.4.935.4.948.36 1.265.8.897.8 1.288.8.712.18.712.4c0 1.396 3.104-2.115 4.4-4.976.11-.243.785-1.28 1.5-2.305s1.3-1.967 1.3-2.095.962-1.715 2.137-3.528c3.29-5.075 6.35-10.001 6.83-10.993.238-.493.568-.898.733-.9s.3-.17.3-.375 1.235-2.319 2.745-4.7l5.99-9.528 3.654-5.683c.226-.266.411-.576.411-.69s1.17-2.016 2.6-4.227 2.6-4.115 2.6-4.232.72-1.272 1.6-2.568 1.6-2.454 1.6-2.574 1.35-2.298 3-4.839 3-4.793 3-5.004.18-.383.4-.383.4-.176.4-.39 1.17-2.199 2.6-4.41 2.6-4.195 2.6-4.41.18-.39.4-.39.4-.173.4-.384 1.288-2.415 2.863-4.9l4.46-7.116c.878-1.43 2.11-3.349 2.737-4.265s1.14-1.762 1.14-1.88 1.323-2.249 2.941-4.735c2.898-4.454 5.641-8.866 7.107-11.428.411-.72 1.919-3.113 3.35-5.319s2.602-4.181 2.602-4.391.18-.382.4-.382.4-.182.4-.404 1.017-1.977 2.259-3.9l3.1-4.919c.463-.782 1.831-2.995 3.041-4.916l3-4.812 6.872-10.963c1.171-1.822 2.128-3.487 2.128-3.7s.18-.386.4-.386.4-.167.4-.372c0-.351 1.357-2.546 8.867-14.352 1.723-2.708 3.133-5.093 3.133-5.3s.18-.376.4-.376.4-.176.4-.39 1.17-2.199 2.6-4.41 2.6-4.107 2.6-4.215c0-.189 2.537-4.206 4.861-7.697.626-.941 1.139-1.806 1.139-1.922s.72-1.27 1.6-2.566 1.6-2.447 1.6-2.558 1.35-2.272 3-4.803 3-4.79 3-5.02.135-.42.3-.422c1.449-.015 1.042-1.929-.459-2.158-2.889-.441-29.115-.597-32.041-.19m49.917 3.451c-1.094 1.705-2.225 3.55-2.513 4.1s-.632 1.09-.764 1.2-.679 1.01-1.215 2-1.751 3.017-2.7 4.504-1.725 2.882-1.725 3.1a.4.4 0 0 1-.4.396c-.22 0-.4.159-.4.354s-1.203 2.31-2.673 4.7L183.61 175c-.389.66-2.081 3.422-3.759 6.137s-3.051 5.024-3.051 5.128-.54.976-1.2 1.935-1.2 1.848-1.2 1.976-.99 1.766-2.2 3.642-2.2 3.584-2.2 3.796-.18.386-.4.386-.4.166-.4.369c0 .368-4.618 8.073-6.048 10.093-.414.584-.752 1.146-.752 1.249 0 .189-1.142 2.097-8.194 13.689l-4.599 7.6c-.388.66-1.919 3.18-3.402 5.6l-3.405 5.6-4.603 7.6-4.602 7.6c-2.338 3.979-9.725 16.059-10.395 17.001-.44.617-.8 1.232-.8 1.366s-.78 1.455-1.734 2.938c-1.824 2.834-3.838 6.147-5.167 8.495a35.04 35.04 0 0 1-1.546 2.462c-.414.584-.753 1.167-.753 1.296s-.838 1.541-1.862 3.138l-2.551 4.104c-.378.66-2.441 4.08-4.584 7.6l-4.592 7.6c-.383.66-1.919 3.18-3.413 5.6l-3.164 5.2c-.245.44-1.254 2.114-2.24 3.72l-2.949 4.8-1.849 3.08c-.382.66-2.046 3.389-3.699 6.064l-3.152 5.212c-.144.346-5.187 8.505-6.059 9.804-.482.718 1.294 2.718 2.414 2.72.275 0 .5.18.5.4s.36.4.8.4.8.18.8.4.45.4 1 .4 1 .18 1 .4.32.4.712.4.971.36 1.288.8.897.8 1.288.8.712.172.712.381.63.68 1.4 1.046 1.4.824 1.4 1.019.36.354.8.354.8.18.8.4.36.4.8.4.8.18.8.4.36.4.8.4.8.18.8.4.27.4.6.4.6.18.6.4.36.4.8.4.8.18.8.4.278.4.617.4.834.184 1.1.408c2.293 1.936 2.975 2.391 3.583 2.392.385 0 .7.18.7.4s.36.4.8.4.8.18.8.4.236.4.525.4.911.36 1.383.8 1.136.8 1.475.8.617.18.617.4.407.4.905.4 1.242.449 1.656 1 .996 1 1.295 1 .544.18.544.4.36.4.8.4.8.18.8.4.36.4.8.4.8.18.8.4.27.4.6.4.6.18.6.4.36.4.8.4.8.18.8.4.36.4.8.4.8.18.8.4.36.4.8.4.8.18.8.4.36.4.8.4c.466 0 .8-.267.8-.638 0-.351.34-1.116.755-1.7.631-.886 4.34-7.108 6.476-10.862.313-.55.668-1.09.788-1.2.328-.299 2.067-3.372 4.076-7.2 1.529-2.913 3.072-5.589 6.806-11.8.396-.66.827-1.515.957-1.9s.394-.7.589-.7.353-.174.353-.386 1.016-2.057 2.258-4.1l3-5.014 1.493-2.6 2.235-3.9c.815-1.43 1.628-2.78 1.806-3s.702-1.075 1.165-1.9l4.778-8.3c1.234-2.09 2.339-3.89 2.455-4 .204-.194.387-.505 2.094-3.555.445-.795 1.616-2.777 2.603-4.405l2.499-4.2 3.414-5.84 3.501-6a35.04 35.04 0 0 1 1.546-2.462c.414-.584.753-1.177.753-1.319s.63-1.242 1.4-2.446 1.4-2.292 1.4-2.419.339-.708.753-1.292 1.134-1.737 1.6-2.562l3.426-5.866c.561-.89 1.021-1.729 1.021-1.864s.339-.724.753-1.308 1.134-1.737 1.6-2.562l1.679-2.97a99.48 99.48 0 0 1 2.2-3.608c.753-1.176 1.368-2.237 1.368-2.358s.54-1.005 1.2-1.964 1.2-1.833 1.2-1.943 1.53-2.755 3.4-5.88l3.4-5.793c0-.061 1.17-2.041 2.6-4.399s2.6-4.367 2.6-4.464.54-.962 1.2-1.921 1.2-1.84 1.2-1.958 1.049-1.975 2.331-4.128l8.869-15.315c0-.22.135-.4.3-.402s.499-.407.741-.9 1.458-2.569 2.7-4.613 2.259-3.811 2.259-3.927.54-.998 1.2-1.957 1.2-1.853 1.2-1.985 1.053-1.991 2.339-4.128l3.353-5.687c.558-.99 2.051-3.51 3.318-5.6 3.956-6.527 4.219-6.982 4.454-7.7.126-.385.388-.7.583-.7s.353-.157.353-.349.99-1.999 2.2-4.015 2.2-3.84 2.2-4.052.18-.384.4-.384.4-.183.4-.407.746-1.619 1.657-3.1c2.138-3.472 4.346-7.25 4.904-8.39.241-.493.574-.898.739-.9s.3-.186.3-.41.789-1.709 1.753-3.3l2.563-4.338c1.696-3.031 1.89-3.361 2.084-3.555.199-.199.555-.809 2.075-3.555.44-.795.963-1.616 1.163-1.825s.362-.524.362-.7-13.296-.32-29.547-.32h-29.547l-1.989 3.1" fill="#f5f7f9"/><path d="M197.745 38.381c-1.396.333-4.362 1.935-11.642 6.29-2.694 1.611-4.985 2.929-5.091 2.929s-1.952 1.05-4.103 2.333a284.17 284.17 0 0 1-9.709 5.574c-.99.548-3.69 2.114-6 3.481l-9.6 5.608-8.293 4.864c-1.591.957-2.972 1.74-3.067 1.74s-1.584.836-3.307 1.858l-4.433 2.6-5.921 3.429-3.8 2.199L113.6 86.6l-12.4 7.2-6.7 3.845-2.8 1.6-4.1 2.345-4.4 2.501c-.99.55-3.87 2.219-6.4 3.709l-9.2 5.319a166.19 166.19 0 0 0-4.4 2.596c-1.43.875-3.59 2.138-4.8 2.809l-5 2.847-3.906 2.2c-2.805 1.447-5.451 4.844-6.521 8.37-.574 1.891-.913 137.659-.344 137.659.298 0 1.371-1.075 1.371-1.375 0-.221 4.801-7.5 5.611-8.508.214-.266.389-.577.389-.692s3.06-4.901 6.8-10.637l6.8-10.647c0-.121 1.53-2.439 3.4-5.152s3.4-5.03 3.4-5.147 3.444-5.484 7.654-11.927L88.109 200c1.321-2.09 4.177-6.44 6.346-9.666s3.945-5.961 3.945-6.078 3.06-4.912 6.8-10.656l6.8-10.65c0-.113 1.17-1.884 2.6-3.935s2.6-3.846 2.6-3.989.181-.477.402-.743 1.106-1.563 1.967-2.883c4.967-7.618 16.656-14.68 28.031-16.937 4.186-.83 4.613-.904 7.6-1.306 6.619-.893 34.953-.737 35.887.197.212.212-1.045 2.388-4.085 7.073-1.431 2.205-2.602 4.181-2.602 4.391s-.18.382-.4.382a.4.4 0 0 0-.4.396c0 .218-1.35 2.476-3 5.017l-3 4.762c0 .2-4.682 7.704-18 28.848l-2.813 4.567c-.819 1.434-5.286 8.532-9.646 15.328l-3.541 5.688c0 .093-.833 1.48-1.85 3.082l-5.218 8.312-4.519 7.2-3.715 6c-.792 1.4-2.247 3.712-8.932 14.191l-4.003 6.4c-.623 1.155-10.303 16.691-12.402 19.904-.969 1.483-1.761 2.782-1.761 2.887s-1.53 2.544-3.4 5.418-3.4 5.306-3.4 5.403-1.17 1.986-2.6 4.197-2.6 4.09-2.6 4.176-1.485 2.489-3.3 5.338l-5.7 9.064-4.836 7.752-5.159 8.27-5.465 8.716c-1.507 2.375-2.74 4.462-2.74 4.638s-.36.648-.8 1.046-.8.879-.8 1.068-.613 1.287-1.362 2.438c-1.916 2.944-2.15 3.894-.96 3.894.527 0 1.258.434 1.683 1 .413.55.996 1 1.295 1s.544.18.544.4.36.4.8.4.8.18.8.4.36.4.8.4.8.18.8.4.27.4.6.4.6.18.6.4.36.4.8.4.8.18.8.4.32.4.712.4.971.36 1.288.8.838.8 1.157.8.909.298 1.312.662c.669.606.731.607.731.013 0-.587 1.729-3.555 5.457-9.369.739-1.151 1.343-2.185 1.343-2.296s.81-1.465 1.8-3.01 1.8-2.906 1.8-3.026.72-1.278 1.6-2.574 1.6-2.465 1.6-2.597.658-1.268 1.463-2.522 2.76-4.441 4.345-7.081l11.441-18.662c.413-.584.751-1.146.751-1.249 0-.182 5.025-8.549 9.783-16.289l3.73-6.2c1.454-2.501 5.634-9.284 7.946-12.894.738-1.151 1.341-2.163 1.341-2.248s1.193-2.113 2.651-4.507l3.354-5.551c.386-.66 1.916-3.18 3.4-5.6l3.387-5.6c.379-.66 1.908-3.168 3.397-5.574l3.414-5.6a1813.46 1813.46 0 0 1 11.723-19.318c.591-.931 1.074-1.798 1.074-1.928s.495-.991 1.1-1.915l1.572-2.472c.259-.436 1.426-2.323 2.593-4.193l2.565-4.2c.243-.44 1.665-2.78 3.159-5.2l3.511-5.8c.436-.77 1.088-1.851 1.447-2.402s.865-1.361 1.123-1.8l9.4-15.476c.841-1.253 1.53-2.355 1.53-2.449 0-.226 4.298-7.394 5.201-8.673.388-.55 1.061-1.63 1.495-2.4s2.009-3.38 3.499-5.8l4.775-8c.478-.861.582-1.027 3.966-6.3l2.246-3.5h29.809c31.966 0 30.645-.091 29.009 2-.43.55-.786 1.129-.791 1.286s-1.025 1.957-2.267 4l-3 5.014-1.485 2.6c-.409.715-1.759 2.988-3 5.051s-2.257 3.835-2.257 3.938-.339.665-.753 1.249-1.112 1.692-1.551 2.462l-2.296 4-2.292 4c-.436.77-.936 1.58-1.11 1.8s-1.478 2.38-2.895 4.8l-6.499 11-4.662 7.9a841.14 841.14 0 0 1-9.026 15.3c-.875 1.43-2.043 3.41-2.597 4.4-1.575 2.819-2.456 4.319-4.929 8.4l-4.579 7.792c-.434.766-1.803 3.061-3.044 5.1l-3.265 5.508c-1.32 2.356-3.597 6.218-4.769 8.091-.513.821-.933 1.598-.933 1.728s-.54 1.022-1.2 1.981-1.2 1.845-1.2 1.968-.81 1.487-1.8 3.032-1.8 2.914-1.8 3.042-.339.712-.753 1.296-1.134 1.737-1.6 2.562c-2.103 3.724-2.465 4.345-3.447 5.9-.574.909-1.393 2.27-1.821 3.026l-5.785 9.974-2.598 4.4-3.396 5.8-3.396 5.8c-.378.66-2.093 3.54-3.811 6.4l-4.329 7.4a105.3 105.3 0 0 1-2.935 4.904c-.951 1.487-1.729 2.805-1.729 2.928s-.54 1.009-1.2 1.968-1.2 1.84-1.2 1.958-1.051 1.975-2.336 4.128l-8.855 15.114a764.34 764.34 0 0 1-3.813 6.4c-5.688 9.479-6.694 11.318-6.426 11.752.217.351 5.567 3.608 9.43 5.742a169.49 169.49 0 0 1 3.821 2.193l3.8 2.199 3.379 1.914 3.4 1.913a324.6 324.6 0 0 1 5.112 2.943c1.822 1.069 3.41 1.944 3.528 1.944s1.001.54 1.96 1.2 1.832 1.2 1.939 1.2 1.605.836 3.328 1.858l4.433 2.6 8.5 4.95c12.633 7.461 14.934 7.869 21.8 3.863l14-8.075 5.752-3.342c2.503-1.46 4.631-2.654 4.728-2.654s.961-.54 1.92-1.2 1.841-1.2 1.96-1.2 1.706-.875 3.528-1.944l5.312-3.062 2.8-1.568c3.808-2.144 9.453-5.588 9.631-5.877.184-.296-5.164-8.964-14.035-22.749l-6.39-10-5.452-8.471c-.404-.589-1.077-1.669-1.494-2.4s-2.727-4.389-5.132-8.129L212.4 295.395c-.33-.556-2.709-4.308-5.287-8.338-5.849-9.14-5.538-8.101-3.463-11.56l2.179-3.697c.243-.44 2.207-3.77 4.364-7.4l4.607-7.8c.377-.66 2.715-4.62 5.196-8.8l8.508-14.4 4.854-8.2c.471-.77 1.087-1.85 1.368-2.4s.843-1.439 1.251-1.976l.741-.976 3.141 4.897 10.341 16.233 5.433 8.546 4.635 7.276 6.334 10 5.196 8.2 3.552 5.6 3.798 6 6.111 9.6 8.136 12.8 4.805 7.6 3.673 5.8c10.475 16.557 9.052 15.152 13.004 12.843l2.993-1.7c.182-.079 1.979-1.116 3.994-2.305 4.086-2.41 3.991-2.103 1.762-5.707L318 316.42l-8.75-14.113-5.241-8.507c-.753-1.308-3.973-6.492-6.57-10.578l-2.039-3.298c-.22-.396-2.762-4.546-5.648-9.222l-7.945-12.902-3.853-6.12c-.634-.946-1.154-1.818-1.154-1.938s-.338-.696-.752-1.28c-.772-1.09-3.632-5.721-9.468-15.33l-5.104-8.2c-1.645-2.521-6.992-11.269-8.029-13.138-.246-.443-.821-1.343-1.278-2s-1.791-2.777-2.964-4.711l-2.134-3.516.937-1.684c.515-.926 3.604-6.145 6.864-11.599l5.928-10.128c0-.117.54-.997 1.2-1.956s1.2-1.83 1.2-1.936 1.17-2.121 2.6-4.479l2.6-4.388c0-.055 1.498-2.597 3.328-5.648l4.282-7.263c1.213-2.181 1.773-2.052 3.557.82l12.457 19.445L306.989 196l14.263 22.113c.851 1.271 1.548 2.381 1.548 2.466 0 .153 5.727 9.209 8.994 14.221l7.604 11.8 7.845 12.2 6.297 9.8c2.399 3.74 4.52 6.71 4.711 6.6.197-.113.349-31.681.349-72.2v-72l-.91-1.8c-1.826-3.61-2.375-4.014-16.29-11.996l-4.333-2.546c-1.723-1.022-3.2-1.858-3.282-1.858s-1.103-.565-2.267-1.256l-10.318-5.931-7.6-4.417a95.02 95.02 0 0 0-3.3-1.96l-5.6-3.187-3.9-2.249-4-2.308-3.6-2.027c-4.494-2.485-10.743-6.08-15.4-8.859l-5-2.92-14.3-8.132-10.9-6.26c-.99-.554-3.06-1.763-4.6-2.688l-4.6-2.687-6.1-3.466-7.1-4.055-9.687-5.653c-2.137-1.29-3.995-2.345-4.128-2.345s-.993-.507-1.913-1.126c-4.373-2.945-7.881-3.81-11.727-2.893" fill="#2c3b4c"/><path d="M276.01 152.486l-4.282 7.263-3.328 5.648c0 .055-1.17 2.03-2.6 4.388l-2.6 4.479c0 .106-.54.977-1.2 1.936s-1.2 1.839-1.2 1.956-2.668 4.674-5.928 10.128l-6.864 11.599-.937 1.684 2.134 3.516 2.964 4.711s1.032 1.557 1.278 2c1.037 1.869 6.384 10.617 8.029 13.138.981 1.502 3.277 5.192 5.104 8.2l9.468 15.33c.414.584.752 1.16.752 1.28s.52.992 1.154 1.938 2.369 3.7 3.853 6.12l7.945 12.902 5.648 9.222c.22.395 1.137 1.879 2.039 3.298l6.57 10.578c.381.66 2.739 4.488 5.241 8.507L318 316.42l5.7 9.233c.825 1.335 1.503 2.634 1.506 2.887.005.334.087.338.3.014.162-.245.744-.584 1.294-.753s1.45-.606 2-.973a20.75 20.75 0 0 1 2-1.155c.55-.269 1.668-.89 2.485-1.381 3.2-1.922 6.13-3.618 8.077-4.677 1.121-.61 2.668-1.488 3.438-1.951l2.8-1.68 3-1.808c.88-.534 2.14-1.226 2.8-1.538 1.596-.756 2.698-2.011 3.934-4.481l1.022-2.043.122-15.424c.067-8.483-.027-15.394-.208-15.357s-2.302-2.993-4.712-6.733l-6.315-9.8-7.845-12.2-7.604-11.8-8.994-14.221c0-.085-.697-1.195-1.548-2.466A2719.4 2719.4 0 0 1 306.989 196l-14.965-23.249-12.457-19.445c-1.784-2.872-2.344-3.001-3.557-.82m-40.561 69.112c-.577.872-1.049 1.683-1.049 1.802s-.427.888-.95 1.709-2.748 4.551-4.946 8.291l-8.508 14.4-5.196 8.8c-.376.66-2.449 4.17-4.607 7.8l-4.364 7.4c-.243.44-1.223 2.104-2.179 3.697-2.075 3.459-2.386 2.42 3.463 11.56l5.287 8.338c.561.947 2.044 3.262 13.328 20.805l5.132 8.129c.417.731 1.09 1.811 1.494 2.4s2.857 4.401 5.452 8.471l6.391 10 7.799 12.242c4.117 6.481 6.336 9.62 6.765 9.573.764-.083 2.074-.711 4.239-2.033.88-.537 2.14-1.26 2.8-1.607s1.92-1.064 2.8-1.594a57.19 57.19 0 0 1 3-1.673c.77-.389 1.496-.836 1.614-.992s1.287-.855 2.6-1.554 2.815-1.606 3.34-2.016 1.178-.746 1.451-.746.72-.269.993-.598 1.196-.808 2.049-1.063 1.553-.626 1.553-.823.585-.63 1.3-.964a39.47 39.47 0 0 0 2.9-1.565l6.838-3.97c1.341-.752 3.321-1.921 4.4-2.597s2.637-1.525 3.462-1.886 1.5-.795 1.5-.966 1.343-.992 2.984-1.825 2.84-1.612 2.664-1.729c-.3-.2-3.299-4.81-9.248-14.214l-3.8-6-4.805-7.6-8.136-12.8-6.111-9.6-3.798-6-3.552-5.6-5.196-8.2-6.334-10-4.635-7.279-5.59-8.8-5.03-7.921-4.801-7.513c-3.74-5.872-3.462-5.656-4.763-3.689" fill="#3099e7"/></svg>