<?xml version="1.0" standalone="no"?>
<!DOCTYPE svg PUBLIC "-//W3C//DTD SVG 20010904//EN"
 "http://www.w3.org/TR/2001/REC-SVG-20010904/DTD/svg10.dtd">
<svg version="1.0" xmlns="http://www.w3.org/2000/svg"
 width="471.000000pt" height="515.000000pt" viewBox="0 0 471.000000 515.000000"
 preserveAspectRatio="xMidYMid meet">

<g transform="translate(0.000000,515.000000) scale(0.100000,-0.100000)"
fill="#000000" stroke="none">
<path d="M2314 4691 c-18 -8 -204 -115 -664 -381 -63 -37 -331 -192 -595 -345
-264 -152 -492 -289 -508 -303 -15 -14 -32 -42 -38 -62 -6 -23 -9 -311 -7
-832 l3 -797 170 262 c93 144 255 395 360 557 105 162 235 363 288 446 110
172 166 230 268 279 122 58 195 70 436 70 116 0 214 -3 218 -6 3 -4 -21 -49
-53 -100 -33 -52 -387 -618 -787 -1259 -727 -1164 -727 -1165 -704 -1180 12
-8 53 -32 90 -52 l68 -38 89 148 c49 81 153 253 232 382 79 129 162 267 185
305 23 39 107 176 185 305 79 129 194 318 255 420 62 102 201 331 310 510 109
179 230 378 269 443 l70 117 353 0 c194 0 353 -2 353 -4 0 -2 -43 -77 -97
-167 -53 -90 -169 -288 -258 -439 -89 -151 -256 -435 -372 -630 -115 -195
-324 -548 -463 -785 -139 -236 -284 -483 -323 -548 -60 -100 -68 -120 -56
-131 8 -7 113 -70 234 -139 121 -69 283 -162 360 -206 115 -66 147 -81 182
-81 36 0 75 19 260 126 120 69 262 151 316 182 56 33 95 62 93 69 -5 12 -223
356 -508 801 -82 129 -147 239 -145 246 5 12 396 678 402 684 1 2 38 -52 81
-120 42 -68 182 -287 309 -488 128 -201 287 -453 355 -560 67 -107 126 -199
130 -203 7 -8 170 79 170 91 0 3 -20 37 -44 76 -83 135 -802 1301 -840 1362
l-37 61 97 164 c53 90 134 226 179 302 l83 138 114 -178 c131 -203 764 -1190
808 -1261 l30 -47 0 860 c0 821 -1 861 -19 890 -13 21 -77 64 -217 144 -110
63 -271 156 -359 207 -88 50 -279 160 -425 244 -338 194 -515 296 -664 383
-121 71 -176 88 -222 68z"/>
</g>
</svg>
