<?xml version="1.0" encoding="UTF-8" standalone="no"?>
<!DOCTYPE svg PUBLIC "-//W3C//DTD SVG 20010904//EN" "http://www.w3.org/TR/2001/REC-SVG-20010904/DTD/svg10.dtd">
<svg version="1.0" xmlns="http://www.w3.org/2000/svg" width="1503.000000pt" height="1504.000000pt" viewBox="0 0 1503.000000 1504.000000" preserveAspectRatio="xMidYMid meet">

<g transform="translate(0.000000,1504.000000) scale(0.100000,-0.100000)" fill="#000000" stroke="none">
<path d="M7270 15023 c-1381 -44 -2739 -476 -3890 -1238 -1082 -716 -1950 -1684 -2541 -2830 -773 -1500 -1016 -3228 -688 -4895 384 -1949 1538 -3676 3200 -4788 1831 -1224 4128 -1577 6259 -962 707 204 1419 534 2040 945 1082 716 1950 1684 2541 2830 773 1500 1016 3228 688 4895 -434 2205 -1850 4110 -3844 5172 -1142 609 -2457 913 -3765 871z m404 -2826 c68 -31 123 -86 190 -190 90 -138 1045 -1814 1107 -1941 161 -331 157 -653 -12 -989 -27 -53 -1992 -3532 -2162 -3827 -113 -196 -209 -333 -287 -410 -173 -171 -391 -275 -630 -300 -132 -14 -2244 -13 -2347 1 -140 18 -234 85 -291 207 -23 48 -27 71 -27 143 0 83 1 88 56 200 56 114 3795 6713 3901 6884 65 104 124 175 172 204 89 55 232 63 330 18z m2579 -4560 c74 -34 106 -65 174 -164 79 -116 68 -98 688 -1158 804 -1374 770 -1311 763 -1439 -8 -144 -104 -273 -236 -318 l-67 -23 -1410 -3 c-942 -2 -1436 1 -1489 8 -98 13 -168 44 -224 100 -55 55 -88 120 -103 202 -15 79 0 136 71 278 44 89 1219 2113 1323 2279 69 111 132 188 177 216 94 59 232 68 333 22z"/>
</g>
</svg>