<?xml version="1.0" standalone="no"?>
<!DOCTYPE svg PUBLIC "-//W3C//DTD SVG 20010904//EN"
 "http://www.w3.org/TR/2001/REC-SVG-20010904/DTD/svg10.dtd">
<svg version="1.0" xmlns="http://www.w3.org/2000/svg"
 width="501.000000pt" height="500.000000pt" viewBox="0 0 501.000000 500.000000"
 preserveAspectRatio="xMidYMid meet">

<g transform="translate(0.000000,500.000000) scale(0.100000,-0.100000)"
fill="#000000" stroke="none">
<path d="M2325 4994 c-16 -2 -73 -9 -125 -15 -355 -40 -769 -192 -1068 -392
-600 -403 -984 -1006 -1099 -1729 -25 -160 -25 -556 0 -716 85 -533 311 -995
671 -1369 400 -417 908 -673 1496 -754 124 -18 496 -18 620 -1 394 55 752 188
1065 397 157 104 263 191 400 329 384 387 616 858 702 1423 22 149 22 517 0
666 -86 565 -318 1036 -702 1423 -393 395 -872 637 -1430 720 -95 14 -467 27
-530 18z m1060 -800 c292 -168 536 -311 544 -317 23 -19 51 -89 51 -127 0 -67
-33 -110 -231 -307 -207 -204 -236 -223 -312 -209 -19 4 -158 77 -308 164
-263 151 -276 157 -329 157 -55 0 -63 -4 -907 -497 -469 -274 -855 -498 -858
-498 -3 0 -5 194 -5 431 0 462 2 488 50 535 14 15 395 240 845 500 810 468
821 474 875 474 54 0 65 -5 585 -306z m-1533 -1761 l3 -408 26 -45 c25 -42 52
-59 440 -284 398 -230 416 -240 474 -243 l60 -4 270 157 c234 136 277 158 322
162 29 2 65 1 80 -3 39 -9 419 -387 444 -440 33 -71 20 -145 -37 -198 -29 -27
-1009 -597 -1074 -624 -73 -31 -70 -33 -946 473 -641 370 -831 484 -852 512
l-27 35 0 426 0 425 400 232 c220 128 403 233 407 234 4 0 8 -183 10 -407z"/>
</g>
</svg>
