<svg xmlns="http://www.w3.org/2000/svg" width="400" height="324.324" fill-rule="evenodd" xmlns:v="https://vecta.io/nano"><path d="M388.327 6.404c-1.151.452-4.223 4.886-4.223 6.096 0 .262-.146.476-.325.476s-.324.297-.324.659-.219.744-.487.846-.486.528-.486.944-.146.848-.325.958-.324.557-.324.992-.146.792-.324.792-.325.367-.325.816-.133 1.068-.295 1.378-.689 1.877-1.17 3.483l-1.165 3.483c-.159.31-.29.849-.29 1.198s-.146.724-.324.834-.324.622-.324 1.136-.146 1.025-.325 1.135-.325.448-.326.749-.22.967-.487 1.478-.484 1.351-.484 1.865-.146.937-.325.937-.324.511-.324 1.135-.146 1.135-.325 1.135-.324.494-.324 1.096-.199 1.261-.441 1.462c-.262.218-.375.715-.277 1.226.102.537-.013.993-.309 1.214-.276.207-.472.887-.47 1.631.003.702-.162 1.332-.367 1.4s-.298.313-.209.544-.205 1.864-.653 3.629l-1.512 5.966-.86 3.976c-.089.67-.292 1.299-.451 1.397s-.291.747-.291 1.439-.13 1.34-.29 1.439-.369.728-.465 1.398c-.377 2.615-.774 4.284-1.117 4.698-.198.238-.346.909-.329 1.492s-.138 1.229-.344 1.434-.374.994-.374 1.75-.146 1.466-.325 1.577-.324.84-.324 1.622-.146 1.512-.324 1.622-.325.841-.325 1.625-.182 1.541-.405 1.684-.413.916-.422 1.719c-.016 1.448-1.171 7.68-1.777 9.593-.174.548-.316 1.334-.316 1.747s-.135 1.278-.3 1.923l-.837 3.769-.836 3.591c-.163.548-.298 1.525-.298 2.171s-.145 1.265-.324 1.375-.324.913-.324 1.784-.146 1.674-.325 1.784-.324.904-.324 1.764c0 1.011-.176 1.71-.499 1.977-.373.31-.448.759-.296 1.772.157 1.042.075 1.487-.349 1.911-.365.365-.495.852-.381 1.431.234 1.186-.095 2.733-.544 2.559-.252-.097-.33.46-.253 1.8.065 1.124-.037 2.089-.243 2.295-.195.195-.355.981-.355 1.745s-.144 2.013-.319 2.774c-.277 1.196-.755 4.026-2.014 11.927l-.604 3.731c-.612 3.721-.678 3.515 1.129 3.553.942.02 1.652.197 1.73.43.086.257.864.396 2.214.396 1.171 0 2.081.142 2.081.325s.974.324 2.271.324c1.66 0 2.271.115 2.271.426 0 .321.484.392 1.948.286 1.241-.09 2.118.001 2.42.251.26.216 1.318.432 2.351.48 1.804.085 6.001.637 7.429.978 1.014.243 1.663-.713 1.864-2.745.403-4.081.77-6.367 1.127-7.035.209-.39.38-1.512.38-2.495s.146-1.877.324-1.987.324-1.205.324-2.433.146-2.323.325-2.433.324-1.218.324-2.463c0-1.679.122-2.308.472-2.442.372-.143.432-.607.283-2.197-.142-1.521-.073-2.131.281-2.485.333-.334.462-1.202.446-2.995-.016-1.828.103-2.602.431-2.805.317-.197.388-.6.239-1.347-.198-.993.373-6.547 1.101-10.698.173-.993.316-2.371.316-3.063s.141-2.07.313-3.062c.328-1.888.855-6.056 1.357-10.725l.631-5.84c.653-5.993.933-8.963 1.195-12.658.146-2.055.405-3.953.575-4.217s.312-2.119.316-4.122c.005-2.433.14-3.773.405-4.039.274-.273.398-1.724.398-4.647 0-2.609.135-4.385.35-4.6.228-.227.338-2.372.315-6.103-.026-4.092.078-5.889.359-6.228.58-.698.609-23.385.031-23.607-.283-.109-.406-1.041-.406-3.086 0-1.737-.132-2.93-.324-2.93-.179 0-.325-.584-.325-1.297s-.146-1.298-.324-1.298-.325-.212-.325-.472c0-.491-1.48-2.142-1.88-2.098-.125.015-.445.111-.709.215m-37.62 152.152c-.228.848-.484 2.417-.568 3.488s-.287 2.085-.45 2.254-.297 1.21-.297 2.313c0 1.261-.159 2.135-.427 2.358-.296.245-.385.935-.291 2.243.104 1.438.016 1.988-.369 2.308-.4.332-.467.84-.317 2.437.139 1.488.07 2.14-.263 2.487-.301.313-.45 1.247-.446 2.805.002 1.359-.155 2.495-.376 2.716-.209.209-.299.593-.199.853.186.485-.667 8.111-1.22 10.908-.17.861-.31 2.128-.31 2.814s-.14 1.953-.311 2.814c-.626 3.152-1.946 14.011-2.527 20.787-.134 1.561-.369 3.033-.522 3.27s-.261 1.575-.241 2.973-.142 2.956-.361 3.462-.403 2.294-.408 3.974c-.006 2.149-.129 3.095-.415 3.191-.294.098-.405 1.191-.405 3.974 0 2.61-.12 3.878-.374 3.963-.261.087-.354 1.37-.307 4.248.054 3.327-.023 4.158-.399 4.302-.382.147-.436.909-.3 4.295.108 2.678.023 4.796-.242 6.063-.593 2.837-.674 34.209-.089 34.816.227.236.413 1.14.413 2.008s.146 1.67.325 1.781c.196.121.324 2.49.324 6.02 0 3.202.083 5.821.183 5.821.59 0 1.439-.762 1.439-1.29 0-.34.146-.709.324-.819s.325-.685.325-1.277.217-1.257.483-1.478.399-.537.296-.703c-.324-.524.543-3.444 1.277-4.304.386-.453 1.139-1.665 1.675-2.695s1.082-1.919 1.216-1.979.243-.317.243-.572.169-.79.375-1.189c.789-1.526.923-1.868.923-2.354 0-.275.219-.585.487-.688.277-.106.486-.59.486-1.125 0-.516.146-.938.325-.938s.324-.438.324-.974.146-.973.325-.973.324-.367.324-.815.133-1.069.295-1.379c.429-.816 1.976-6.022 1.976-6.646 0-.291.146-.62.324-.73s.325-.621.325-1.136.146-1.025.324-1.135.324-.559.324-.997.127-1.05.281-1.359c.523-1.049 1.098-2.829 1.256-3.892.086-.581.287-1.138.446-1.236s.288-.68.288-1.294.146-1.117.325-1.117.324-.502.324-1.116.146-1.206.325-1.317.324-.692.324-1.293.204-1.297.453-1.546c.255-.255.384-.808.296-1.27-.096-.502.05-1.023.381-1.353s.458-.786.333-1.179c-.112-.353.013-1.119.278-1.704s.554-1.647.641-2.36a32.81 32.81 0 0 1 .542-2.92l.647-2.757.814-3.407c.304-1.249.624-2.819.713-3.489s.292-1.3.451-1.398.29-.746.29-1.439.146-1.349.325-1.46.324-.71.324-1.333.23-1.576.51-2.118.438-1.174.35-1.404.048-.817.301-1.305.461-1.456.461-2.149.146-1.261.325-1.261.324-.721.324-1.603.146-1.693.325-1.803.324-.84.324-1.622.128-1.501.284-1.597.366-.945.467-1.885.415-2.877.698-4.304l2.107-11.03a94.78 94.78 0 0 1 .812-3.893c.289-1.249.61-3.04.714-3.98s.318-1.788.474-1.885.283-.888.283-1.759.146-1.674.325-1.784.324-.904.324-1.764c0-.978.178-1.711.476-1.958.344-.285.424-.776.289-1.765-.138-1.006-.052-1.505.323-1.881.359-.358.491-1.023.442-2.222-.046-1.132.067-1.756.336-1.845.261-.088.405-.795.405-1.99 0-1.02.134-1.993.297-2.163s.373-1.184.466-2.255c.21-2.422.575-4.952 1.514-10.496.791-4.669.749-4.897-.898-4.908-.402-.003-.73-.151-.73-.33 0-.185-.973-.324-2.271-.324s-2.271-.139-2.271-.324-.863-.325-1.942-.325c-1.068 0-2.564-.139-3.325-.308s-4.011-.689-7.223-1.156-6.287-.984-6.835-1.151-1.071-.305-1.162-.305-.353.694-.582 1.541M229.602 248.85c-.313.182-1.367.389-2.342.461s-2.061.282-2.412.47a3.66 3.66 0 0 1-1.45.341c-.447 0-.903.146-1.014.324s-.478.324-.818.324c-1.309 0-5.951 2.978-7.737 4.963l-1.515 1.66c-2.915 3.042-3.479 12.197-1.05 17.06 1.327 2.654 6.598 7.461 8.183 7.461.277 0 .504.146.504.324s.233.325.518.325.905.203 1.379.452 1.956.776 3.294 1.174 2.725.835 3.082.973 1.963.649 3.568 1.137c8.148 2.472 13.788 5.912 13.788 8.41 0 .427.182.837.405.911.282.094.406.965.406 2.839s-.124 2.745-.406 2.839c-.223.074-.405.488-.405.919s-.146.784-.325.784-.324.169-.324.376c0 .83-3.883 3.517-5.082 3.517-.264 0-.689.209-.945.466-.303.302-.839.405-1.533.292-.745-.121-1.197-.017-1.497.345-.628.757-6.881.755-7.638-.002-.373-.373-.831-.462-1.613-.316-.767.144-1.241.057-1.588-.29-.273-.272-.944-.495-1.492-.495s-.996-.146-.996-.325-.438-.324-.974-.324-.973-.146-.973-.324-.283-.325-.63-.325-.719-.146-.83-.324-.412-.325-.671-.325c-.702 0-5.701-3.311-7.081-4.692-1.48-1.48-1.783-1.378-3.008 1.012-1.337 2.609-1.846 3.485-2.161 3.715-1.561 1.145 2.705 4.746 9.677 8.169l1.861.92c.31.157.842.284 1.182.284s.706.229.814.509c.121.316.418.438.781.323.323-.102.871.029 1.219.292s1.179.482 1.848.488 1.217.156 1.217.335c0 .206 2.595.324 7.137.324s7.137-.118 7.137-.324c0-.179.641-.325 1.425-.325 1.001 0 1.484-.153 1.622-.513.108-.283.38-.448.602-.368s.771-.035 1.217-.258a53.58 53.58 0 0 1 1.784-.834c2.907-1.286 7.141-5.061 8.43-7.516.351-.669.752-1.216.89-1.216s.25-.365.25-.811.146-.811.325-.811.324-.662.324-1.47c0-1.008.153-1.529.487-1.657.375-.144.486-.767.486-2.713s-.111-2.569-.486-2.712c-.334-.128-.487-.65-.487-1.657 0-.809-.146-1.47-.324-1.47s-.325-.365-.325-.811-.146-.811-.324-.811-.325-.168-.325-.372c0-1.223-4.809-5.888-7.299-7.082-.535-.256-1.219-.669-1.52-.918s-.704-.354-.895-.236-.435-.014-.542-.293c-.114-.298-.581-.507-1.133-.507-.516 0-.938-.146-.938-.325s-.357-.324-.792-.324-.882-.146-.992-.324-.559-.325-.997-.325-1.05-.13-1.36-.288-2.315-.845-4.456-1.526l-4.38-1.451c-2.614-1.146-4.532-2.131-4.536-2.331-.003-.134-.208-.243-.455-.243-.662 0-3.768-3.023-3.768-3.666 0-.304-.146-.552-.324-.552s-.325-.502-.325-1.116-.146-1.206-.324-1.317-.324-.621-.324-1.135.145-1.025.324-1.136.328-.593.333-1.073c.01-.885 1.436-3.056 2.494-3.796 1.594-1.114 3.141-1.781 4.131-1.781.604 0 1.159-.183 1.233-.406.194-.58 9.377-.579 9.571.001.083.249.74.405 1.711.405.866 0 1.666.146 1.776.324s.621.325 1.135.325 1.026.146 1.136.324.447.326.749.327 2.095.776 3.985 1.721l3.437 1.718.537-.936c.296-.515.538-1.143.538-1.396s.146-.461.324-.461.324-.19.324-.422.377-1.179.837-2.102c.934-1.875.928-2.59-.026-3.118-.356-.198-.721-.44-.811-.538-.205-.227-1.921-1.01-4.217-1.924-.981-.391-2.038-.844-2.348-1.007s-.848-.297-1.197-.297-.724-.146-.835-.324-.639-.324-1.175-.324-1.267-.156-1.624-.347-1.51-.402-2.564-.47-2.204-.277-2.554-.465c-.813-.435-6.174-.427-6.925.01m-136.835.838a6.55 6.55 0 0 1-2.112.434c-.593 0-1.169.146-1.279.324s-.549.324-.974.324-.863.146-.973.325-.447.326-.749.329c-.548.005-5.177 2.251-7.062 3.427-3.052 1.905-5.95 4.752-8.728 8.577-.711.978-1.404 1.827-1.541 1.887s-.249.388-.249.73-.146.622-.325.622-.324.274-.324.609-.219.791-.487 1.013-.486.605-.486.85-.146.447-.325.447-.324.43-.324.954-.129 1.034-.287 1.132-.382.654-.499 1.236l-.555 2.68c-1.078 5.091-.488 15.451 1.048 18.406.161.31.293.93.293 1.379s.146.815.324.815.325.297.325.659.219.743.486.846.487.392.487.643c0 .497.592 1.642 1.185 2.292.205.225.712.96 1.126 1.634s1.049 1.54 1.411 1.925 1.294 1.448 2.072 2.361 2.091 2.123 2.919 2.688 1.555 1.144 1.614 1.289.248.262.418.262 1.069.511 1.997 1.135 1.87 1.136 2.095 1.136.41.146.41.324.292.324.649.324.649.146.649.325.347.324.771.324.956.223 1.181.494.661.415.968.317.741.046.967.317c.238.287.937.494 1.668.494.692 0 1.258.146 1.258.325 0 .19 1.131.324 2.746.324 1.886 0 3.099.168 3.873.537 1.048.5 1.183.5 1.946 0 .58-.38 1.536-.537 3.264-.537 1.414 0 2.445-.137 2.445-.324 0-.179.499-.325 1.109-.325s1.522-.205 2.027-.456a32.73 32.73 0 0 1 1.892-.849 24.6 24.6 0 0 0 1.537-.679c.309-.158.784-.287 1.054-.287s.491-.146.491-.324.236-.324.524-.324c1.211 0 9.208-5.763 9.208-6.635 0-.222-.944-1.411-2.098-2.643s-2.103-2.349-2.109-2.482c-.023-.562-1.461-.179-2.435.648l-1.763 1.472c-1.133.921-4.889 2.827-5.571 2.827-.342 0-.622.146-.622.324s-.376.325-.834.325-1.061.226-1.338.503c-.331.331-.807.437-1.385.31-.584-.128-1.019-.028-1.289.298-.597.719-8.594.707-9.697-.016-.443-.29-1.085-.421-1.523-.311-.462.116-.946 0-1.244-.297-.267-.268-.862-.487-1.321-.487s-.834-.146-.834-.325-.365-.324-.811-.324-.811-.146-.811-.324-.216-.325-.48-.325c-2.553 0-11.199-8.899-11.199-11.526 0-.263-.146-.477-.324-.477s-.325-.274-.325-.609a1.51 1.51 0 0 0-.486-1.013c-.268-.222-.487-.743-.487-1.156s-.146-.843-.324-.953-.325-.767-.325-1.46-.146-1.349-.324-1.46c-.188-.116-.324-1.889-.324-4.217s.136-4.101.324-4.217c.178-.111.324-.768.324-1.46s.146-1.35.325-1.46.324-.546.324-.969.219-.988.487-1.256.486-.707.486-.977.146-.581.325-.691.324-.484.324-.83.146-.63.325-.63.324-.156.324-.347c0-.972 6.142-8.088 6.981-8.088.141 0 .727-.358 1.302-.797 2.307-1.759 7.751-3.761 9.515-3.498.722.108 1.183.011 1.366-.285.394-.638 6.047-.637 6.441 0 .192.311.611.386 1.367.246.696-.129 1.426-.028 2.019.282.511.266 1.206.484 1.545.484s.87.134 1.18.298 1.22.597 2.023.963c1.575.719 3.164 1.626 3.757 2.145.203.179.927.763 1.608 1.298s1.421 1.156 1.644 1.379c.738.736 1.573.4 2.723-1.097.625-.813 1.607-2.012 2.183-2.664s1.05-1.352 1.054-1.553c.007-.373-3.659-3.743-4.33-3.981-.202-.071-.44-.222-.529-.334-.318-.402-6.355-3.267-6.884-3.267-.296 0-.629-.146-.739-.324s-.549-.325-.974-.325-.863-.146-.973-.324-.639-.324-1.176-.324-1.294-.178-1.684-.395c-1.049-.585-12.489-.617-13.862-.039m-85.089.001c-.119.119-.217 15.16-.217 33.425v33.209l.73.281c1.436.555 46.227.383 46.789-.179.385-.385.494-1.313.494-4.202v-3.707H36.496 17.518l-.048-10.544-.082-10.948c-.025-.318 3.555-.441 16.513-.568l16.545-.162.091-3.812.092-3.812H34.074c-9.106 0-16.559-.11-16.563-.243s-.04-4.878-.081-10.541l-.074-10.298 18.329-.083 18.33-.084.091-3.974.091-3.974H31.045l-23.367.216m129.952 33.424l.083 33.675 13.427.083c11.419.07 13.572.01 14.405-.406.636-.317 1.925-.488 3.686-.488 1.503 0 2.707-.137 2.707-.309s.548-.398 1.217-.505 1.47-.332 1.78-.501.859-.307 1.221-.307.911-.134 1.221-.298a105.07 105.07 0 0 1 2.672-1.298c7.274-3.448 14.022-10.157 16.095-16.003.11-.312.33-.568.488-.568s.286-.511.286-1.135.146-1.136.324-1.136.325-.408.325-.908.132-1.047.293-1.217c1.161-1.221 1.166-15.558.006-17.741-.164-.309-.299-.93-.299-1.378s-.146-.816-.325-.816-.335-.401-.348-.892-.298-1.33-.634-1.865-.863-1.484-1.172-2.109c-1.568-3.169-8.701-11.354-9.894-11.354-.179 0-.961-.438-1.739-.974s-1.566-.973-1.752-.973-.816-.266-1.401-.592-1.867-.854-2.849-1.174-2.037-.711-2.347-.868-.974-.286-1.476-.286-1.052-.133-1.221-.297c-.562-.541-4.379-.711-19.694-.874l-15.167-.162.082 33.676m153.904-33.047c-.295.326-.536.829-.536 1.116s-.146.614-.325.724-.324.484-.324.83-.146.63-.325.63-.324.197-.324.438-.365 1.125-.811 1.964-.811 1.736-.811 1.995-.146.469-.325.469-.324.294-.324.653a3.11 3.11 0 0 1-.297 1.217 34.58 34.58 0 0 0-.854 1.861c-.306.713-.829 1.872-1.163 2.575s-.606 1.469-.606 1.703-.146.426-.324.426-.324.214-.324.476-.292.997-.649 1.632-.649 1.352-.649 1.593-.219.618-.487.84-.486.678-.486 1.013-.146.609-.325.609-.324.365-.324.812-.146.811-.325.811-.324.365-.324.811-.146.811-.324.811-.325.262-.325.584-.124.722-.275.892-.513.922-.803 1.673c-.63 1.631-1.619 3.878-2.684 6.101-.429.895-.78 1.807-.78 2.028s-.146.4-.324.4-.324.221-.324.491-.134.745-.298 1.055-.532 1.074-.82 1.699-.642 1.354-.787 1.622c-.797 1.462-1.015 1.984-1.015 2.428 0 .27-.146.491-.325.491s-.324.365-.324.811-.146.811-.324.811-.325.284-.325.63-.146.72-.324.83-.325.407-.325.659-.38 1.302-.845 2.333l-1.495 3.334c-.357.803-.776 1.679-.93 1.947a26.87 26.87 0 0 0-.803 1.622c-.288.624-.657 1.389-.82 1.699s-.297.784-.297 1.054-.146.491-.325.491-.324.353-.324.784-.11.833-.243.892c-.478.212-1.223 2.068-1.117 2.783.097.661 5.401.912 9.227.437.134-.016.243-.468.243-1.003s.146-.973.325-.973.324-.221.324-.491.129-.745.287-1.055.43-.928.605-1.374a73.81 73.81 0 0 1 .665-1.622l.854-2.028c1.255-3.001 2.559-5.987 3.188-7.299.293-.61.62-.733 1.998-.75l30.846.027 2.92.009.892 1.887c.49 1.038.892 2.057.892 2.263s.146.376.324.376.325.221.325.491a2.78 2.78 0 0 0 .292 1.054c.389.749 2.105 4.49 2.714 5.916l1.32 2.98.836 1.845 4.15-.067c2.283-.036 4.327-.177 4.542-.313.516-.327.354-.835-1.632-5.093-1.677-3.597-3.612-8.046-4.48-10.301-.605-1.572-1.017-2.534-1.283-3-.303-.531-1.011-2.029-1.916-4.056l-1.468-3.244c-.881-1.931-1.319-2.969-1.779-4.217-.277-.753-1.864-4.278-2.298-5.105-.163-.31-.296-.784-.296-1.054s-.146-.491-.324-.491-.325-.365-.325-.811-.146-.812-.324-.812-.325-.221-.325-.493-.365-1.071-.811-1.777-.811-1.42-.811-1.585-.278-.862-.618-1.548c-.859-1.734-2.301-4.963-2.301-5.152 0-.182-1.208-2.961-1.649-3.795-.164-.31-.298-.795-.298-1.078s-.227-.741-.505-1.019-.433-.694-.345-.924-.049-.498-.306-.596-.466-.476-.466-.838-.146-.659-.324-.659-.325-.365-.325-.811-.146-.811-.324-.811-.325-.18-.325-.4-.427-1.279-.949-2.352-1.255-2.646-1.63-3.493l-.681-1.541h-4.483c-3.932 0-4.55.073-5.021.593m-124.462 7.842c0 .182.913.324 2.09.324 1.149 0 2.179.146 2.29.324s.552.325.983.325c2.976 0 11.741 6.48 13.189 9.752.233.524.533.953.668.953s.245.292.245.649.146.649.324.649.325.274.325.609.21.784.467.997.396.573.31.799.068.598.343.827.502.754.502 1.168.128.832.285.928c.967.598.967 13.488 0 13.488-.157 0-.285.42-.285.933s-.211 1.108-.468 1.322-.387.595-.29.848-.058.55-.344.66-.52.476-.52.813-.146.615-.325.615-.324.226-.324.504c0 2.184-8.252 10.201-10.5 10.201-.271 0-.582.146-.692.325s-.557.324-.993.324-.792.146-.792.324-.448.325-.996.325-1.227.231-1.51.513c-.363.364-.829.454-1.594.311-.63-.119-1.785.006-2.767.297-2.029.603-18.678.742-19.756.165-.636-.341-1.04-49.752-.411-50.381.363-.363 20.546-.256 20.546.109m129.705 2.679c.057.489.239.889.406.889s.303.365.303.811.146.811.324.811.325.274.325.609a1.51 1.51 0 0 0 .486 1.013c.268.222.487.678.487 1.013s.146.609.324.609.325.221.325.491.132.745.295 1.055c.64 1.223 2.331 5.06 3.631 8.243.753 1.842 1.492 3.489 1.641 3.658s.272.571.272.892.146.584.325.584.324.365.324.811.146.811.324.811.325.365.325.811.146.811.324.811.325.198.325.439.365 1.124.811 1.963.811 1.737.811 1.995.146.47.324.47.324.262.324.583.163.747.361.945.286.484.194.633c-.124.2-23.124.31-27.552.132-.559-.023-.55-.276.067-1.807l.978-2.433c1-2.492 1.523-3.692 2.825-6.488l1.463-3.244c.181-.446.458-1.065.616-1.375s.286-.768.286-1.019.228-.544.507-.651.42-.336.314-.508-.05-.575.126-.895.56-1.165.855-1.878l.87-2.109.583-1.46c.49-1.284 2.536-5.972 2.935-6.727.164-.31.298-.795.298-1.078 0-.912 1.127-.375 1.238.59" fill="#0e4551"/><path d="M8.446 159.265c-.467.872-.467 67.621 0 68.494.494.922 15.71.977 16.407.059.707-.932.651-67.962-.059-68.671-.863-.863-15.881-.755-16.348.118m23.426 34.166l.083 34.793 12.253.085 12.253.085.318-.836c.449-1.183.432-67.452-.018-68.293-.323-.604-.808-.628-12.654-.628H31.789l.083 34.794m31.792 0l.083 34.793 2.892.094c2.095.069 2.966-.021 3.158-.324.303-.478.381-68.057.079-68.843-.16-.418-.765-.514-3.246-.514h-3.048l.082 34.794M77.299 158.9c-.576.366-.653 68.32-.078 69.013.656.791 5.704.664 6.141-.154.621-1.159.451-67.987-.173-68.612-.549-.549-5.114-.74-5.89-.247m17.181.116c-.575.575-.586 68.406-.011 68.981.564.564 5.585.522 6.06-.051.268-.323.344-9.679.284-34.794l-.083-34.352-2.925-.093c-1.997-.063-3.052.035-3.325.309m13.301-.001c-.467.468-.59 68.246-.125 68.979.193.303 1.063.393 3.158.324l2.892-.094v-34.712V158.8l-2.762-.093c-1.87-.063-2.891.037-3.163.308m13.452.028c-.695.516-.891 68.056-.201 68.889.311.374 2.479.454 12.349.454h11.972l.316-.832c.448-1.179.429-67.45-.019-68.289-.422-.787-23.375-.996-24.417-.222m31.742.321c-.598.854-.768 66.656-.177 68.212l.308.81h7.567c5.453 0 7.676-.109 7.956-.389.773-.773.539-68.608-.238-69.024-1.425-.763-14.846-.422-15.416.391m23.006-.321c-.085.223-.117 15.88-.071 34.793l.084 34.388 2.892.094c2.095.069 2.965-.021 3.158-.324.455-.717.343-68.51-.114-68.967-.544-.545-5.741-.531-5.949.016m17.246.096c-.261.678-.265 68.056-.005 68.734.264.688 5.366.751 5.929.073.267-.323.343-9.679.283-34.794l-.083-34.352-2.961-.093c-2.485-.078-2.995-.008-3.163.432m13.297-.004c-.618.618-.817 66.812-.206 68.419.463 1.219 6.044 1.309 6.336.102.097-.401.136-16.058.087-34.793l-.089-34.063-2.803-.094c-2.232-.074-2.91.014-3.325.429m13.319-.281c-.27.27-.289 68.316-.019 69.019.175.455 1.566.513 12.336.513h12.138l.3-.788c.371-.975.281-67.979-.092-68.555-.283-.438-24.23-.622-24.663-.189m31.773.297c-.257.67-.257 68.051 0 68.722.172.449 1.204.513 8.23.513h8.033l.202-1.216c.343-2.08.24-66.784-.109-67.7l-.316-.833h-7.921c-6.924 0-7.947.065-8.119.514m27.537-.183c-.284.458-.308 68.589-.025 69.047.384.621 5.914.493 6.158-.142.257-.671.257-68.052 0-68.722-.231-.602-5.772-.767-6.133-.183m13.386.02c-.725.422-.9 68.287-.179 69.009.854.853 5.749.498 6.107-.443.448-1.179.429-67.45-.019-68.289-.381-.711-4.809-.918-5.909-.277m13.235-.051c-.254.411-.265 68.721-.011 69.132.378.612 15.252.405 15.771-.219.619-.747.785-67.029.17-68.262l-.393-.788-7.672-.087c-4.646-.053-7.749.036-7.865.224" fill="#1cbb9b"/><path d="M386.257 6.37c-.471.471-.856.959-.856 1.085s-.364.654-.81 1.173-.811 1.12-.811 1.338-.293.915-.649 1.551-.649 1.453-.649 1.817-.219.881-.487 1.149a1.83 1.83 0 0 0-.486 1.112c0 .344-.146.626-.325.626s-.324.365-.324.811-.146.811-.325.811-.324.438-.324.973-.146.973-.325.973-.324.449-.324.997-.219 1.215-.487 1.483-.486.759-.486 1.093-.146.696-.325.807-.324.548-.324.973-.146.863-.324.973-.325.621-.325 1.136-.146 1.025-.324 1.135-.325.703-.325 1.317-.146 1.116-.324 1.116-.324.376-.324.834-.219 1.054-.487 1.321-.487.833-.487 1.255-.146.859-.324.97-.325.694-.325 1.297-.146 1.188-.324 1.298-.324.674-.324 1.252-.131 1.19-.292 1.36-.366.892-.459 1.605c-.223 1.718-.972 4.589-1.277 4.894-.134.133-.243.721-.243 1.305s-.146 1.153-.325 1.263-.324.776-.324 1.479-.146 1.278-.324 1.278-.325.657-.325 1.46-.146 1.46-.324 1.46-.325.566-.325 1.258c0 .722-.207 1.43-.486 1.662s-.487.939-.487 1.662c0 .691-.146 1.257-.324 1.257s-.325.657-.325 1.46-.146 1.46-.324 1.46-.325.657-.325 1.46-.146 1.46-.324 1.46-.324.657-.324 1.46-.146 1.46-.325 1.46-.324.593-.324 1.319-.174 1.637-.387 2.027c-.416.762-.815 2.831-1.122 5.823-.106 1.029-.32 1.95-.477 2.047s-.285.898-.285 1.779-.146 1.603-.325 1.603-.324.639-.324 1.42c0 .867-.19 1.578-.487 1.824s-.486.956-.486 1.805c0 .771-.146 1.491-.325 1.602s-.324.84-.324 1.622-.146 1.511-.324 1.622-.325.921-.325 1.803-.146 1.603-.324 1.603-.325.721-.325 1.603-.146 1.693-.324 1.803-.329.813-.335 1.56-.224 1.643-.486 1.99-.477 1.25-.477 2.008-.146 1.469-.324 1.579-.325.914-.325 1.785-.146 1.674-.324 1.784-.324 1.214-.324 2.452c0 1.285-.14 2.252-.325 2.252-.178 0-.324.648-.324 1.441s-.134 1.523-.297 1.624c-.474.293-.82 5.032-.398 5.454.574.574.82.023.793-1.774-.016-1.073.147-1.846.454-2.153.346-.346.423-.856.275-1.837-.152-1.013-.077-1.462.296-1.772.323-.267.499-.966.499-1.977 0-.86.146-1.653.324-1.764s.325-.913.325-1.784.146-1.674.324-1.784.324-.729.324-1.375.135-1.623.298-2.171.54-2.164.836-3.591l.837-3.769c.165-.645.3-1.51.3-1.923s.142-1.199.316-1.747c.606-1.913 1.761-8.145 1.777-9.593.009-.803.199-1.576.422-1.719s.405-.899.405-1.684.146-1.515.325-1.625.324-.84.324-1.622.146-1.512.324-1.622.325-.82.325-1.577.168-1.544.374-1.75.361-.851.344-1.434.131-1.254.329-1.492c.343-.414.74-2.083 1.117-4.698.096-.67.306-1.3.465-1.398s.29-.746.29-1.439.131-1.34.291-1.439.362-.727.451-1.397.476-2.46.86-3.976l1.512-5.966c.448-1.765.742-3.397.653-3.629s.005-.476.209-.544.37-.698.367-1.4c-.002-.744.194-1.424.47-1.631.296-.221.411-.677.309-1.214-.098-.511.015-1.008.277-1.226.242-.201.441-.859.441-1.462s.146-1.096.324-1.096.325-.511.325-1.135.146-1.135.324-1.135.325-.422.325-.937.218-1.354.484-1.865.486-1.176.487-1.478.148-.639.326-.749.325-.621.325-1.135.146-1.025.324-1.136.324-.486.324-.834.131-.888.29-1.198.684-1.877 1.165-3.483l1.17-3.483c.162-.31.295-.93.295-1.378s.146-.816.325-.816.324-.356.324-.792.146-.882.324-.992.325-.541.325-.958.219-.841.486-.944.487-.483.487-.846.146-.659.324-.659.325-.214.325-.476c0-1.383 3.148-5.732 4.448-6.144.758-.241 2.364 1.072 2.364 1.931 0 .26.146.472.325.472s.324.584.324 1.298.146 1.297.325 1.297c.192 0 .324 1.193.324 2.93 0 2.045.123 2.977.406 3.086.578.222.549 22.909-.031 23.607-.281.339-.385 2.136-.359 6.228.023 3.731-.087 5.876-.315 6.103-.215.215-.35 1.991-.35 4.6 0 2.923-.124 4.374-.398 4.647-.265.266-.4 1.606-.405 4.039-.004 2.003-.147 3.857-.316 4.122s-.429 2.162-.575 4.217c-.262 3.695-.542 6.665-1.195 12.658l-.631 5.84c-.502 4.669-1.029 8.837-1.357 10.725-.172.992-.313 2.37-.313 3.062s-.143 2.07-.316 3.063c-.728 4.151-1.299 9.705-1.101 10.698.149.747.078 1.15-.239 1.347-.328.203-.447.977-.431 2.805.016 1.793-.113 2.661-.446 2.995-.354.354-.423.964-.281 2.485.149 1.59.089 2.054-.283 2.197-.35.134-.472.763-.472 2.442 0 1.245-.146 2.353-.324 2.463s-.325 1.205-.325 2.433-.146 2.323-.324 2.433-.324 1.004-.324 1.987-.171 2.105-.38 2.495c-.357.668-.724 2.954-1.127 7.035-.201 2.032-.85 2.988-1.864 2.745-1.428-.341-5.625-.893-7.429-.978-1.033-.048-2.091-.264-2.351-.48-.302-.25-1.179-.341-2.42-.251-1.464.106-1.948.035-1.948-.286 0-.311-.611-.426-2.271-.426-1.297 0-2.271-.139-2.271-.324s-.91-.325-2.081-.325c-1.35 0-2.128-.139-2.214-.396-.078-.233-.788-.41-1.73-.43-1.807-.038-1.741.168-1.129-3.553l.604-3.731 2.014-11.927a15.18 15.18 0 0 0 .319-2.819c0-.79.146-1.527.325-1.637.419-.259.425-4.055.006-4.055-.175 0-.388.329-.472.73-.632 3.008-.832 4.357-.832 5.612 0 .794-.146 1.444-.325 1.444s-.324.865-.324 1.946-.144 1.947-.324 1.947-.326.693-.327 1.541-.22 1.959-.486 2.47-.485 1.634-.485 2.495-.146 1.656-.324 1.766-.325.966-.325 1.901-.133 1.839-.296 2.009-.345 1.257-.405 2.416l-.11 2.109 1.455.104c.8.056 1.538.238 1.64.404s1.302.395 2.665.51c1.692.143 2.535.356 2.656.671.098.257.346.356.56.224.53-.327 4.255-.152 4.633.219.17.165 1.147.301 2.171.301s1.953.146 2.063.325 1.201.324 2.425.324c1.39 0 2.271.14 2.349.373.069.206.993.443 2.055.527s2.076.267 2.254.407c.296.232 1.999.429 3.001.348.279-.023.406-.685.406-2.122 0-1.15.146-2.18.324-2.291s.325-1.14.325-2.29.128-2.089.286-2.089c.356 0 1.019-4.169 1.212-7.624.079-1.427.278-2.887.441-3.244.363-.791.599-2.816.852-7.299.106-1.874.324-3.545.485-3.715s.292-1.344.292-2.611c0-1.411.157-2.46.406-2.708.378-.378.662-2.459 1.091-7.998.096-1.249.31-2.409.475-2.579s.299-1.52.299-3.001c0-1.578.134-2.692.324-2.692s.325-1.114.325-2.693c0-1.634.15-2.843.382-3.075.21-.21.445-1.662.522-3.228s.27-2.984.429-3.154.289-1.438.289-2.819.146-2.601.324-2.712.325-1.673.325-3.568.141-3.456.324-3.569.324-1.565.324-3.244.146-3.133.325-3.244c.194-.12.324-2.265.324-5.345 0-3.169.126-5.186.327-5.253.18-.06.487-2.299.682-4.975 1.638-22.463 1.284-50.708-.643-51.35-.201-.067-.366-.412-.366-.767 0-1.789-3.732-2.293-5.308-.717m-36.216 150.132c0 .253-.155.511-.344.574s-.488 1.279-.665 2.703l-.63 5.103-.649 5.191c-.554 4.339-.722 8.678-.336 8.678.519 0 .782-1.497.555-3.159-.156-1.136-.079-1.63.324-2.076s.493-1.019.38-2.384c-.105-1.257-.019-1.907.283-2.158.275-.228.433-1.089.433-2.363 0-1.103.133-2.143.297-2.313s.363-1.184.443-2.254c.123-1.639.757-4.591 1.068-4.977.049-.061.575.039 1.168.223s3.707.715 6.918 1.181 6.462.987 7.223 1.156 2.257.308 3.325.308c1.079 0 1.942.144 1.942.325s.973.324 2.271.324 2.271.139 2.271.324c0 .179.328.327.73.33 1.647.011 1.689.239.898 4.908-.939 5.544-1.304 8.074-1.514 10.496-.093 1.071-.302 2.085-.466 2.255s-.297 1.143-.297 2.163c0 1.195-.144 1.902-.405 1.99-.269.089-.382.713-.336 1.845.049 1.199-.083 1.864-.442 2.222-.375.376-.461.875-.323 1.881.135.989.055 1.48-.289 1.765-.298.247-.476.98-.476 1.958 0 .86-.146 1.654-.324 1.764s-.325.913-.325 1.784-.127 1.663-.283 1.759-.369.945-.474 1.885-.425 2.731-.714 3.98a94.78 94.78 0 0 0-.812 3.893l-2.107 11.03c-.283 1.427-.597 3.364-.698 4.304s-.311 1.788-.467 1.885-.284.815-.284 1.597-.146 1.512-.324 1.622-.325.922-.325 1.803-.146 1.603-.324 1.603-.325.567-.325 1.261-.207 1.66-.461 2.149-.389 1.076-.301 1.305-.069.861-.35 1.404-.51 1.496-.51 2.118-.146 1.223-.324 1.333-.325.768-.325 1.46-.13 1.34-.29 1.439-.362.728-.451 1.398-.409 2.24-.713 3.489l-.814 3.407-.647 2.757a32.81 32.81 0 0 0-.542 2.92c-.087.713-.375 1.776-.641 2.36s-.39 1.351-.278 1.704c.125.393-.004.85-.333 1.179s-.477.851-.381 1.353c.088.462-.041 1.015-.296 1.27-.249.249-.453.945-.453 1.546s-.146 1.183-.324 1.293-.325.703-.325 1.317-.146 1.116-.324 1.116-.325.503-.325 1.117-.129 1.196-.288 1.294-.36.655-.446 1.236c-.158 1.063-.733 2.843-1.256 3.892-.154.309-.281.921-.281 1.359s-.145.887-.324.997-.324.621-.324 1.135-.146 1.026-.325 1.136-.324.439-.324.73c0 .624-1.547 5.83-1.976 6.646-.162.31-.295.93-.295 1.379s-.146.815-.324.815-.325.438-.325.973-.146.974-.324.974-.325.422-.325.938c0 .535-.209 1.019-.486 1.125-.268.103-.487.413-.487.688s-.169.828-.375 1.227c-.782 1.514-.923 1.865-.923 2.316 0 .255-.109.513-.243.572s-.681.95-1.216 1.979-1.289 2.242-1.675 2.695c-.734.86-1.601 3.78-1.277 4.304.103.166-.03.483-.296.703s-.483.886-.483 1.478-.146 1.167-.325 1.277-.324.479-.324.819c0 .528-.849 1.29-1.439 1.29-.1 0-.183-2.619-.183-5.821 0-3.53-.128-5.899-.324-6.02-.179-.111-.325-.837-.325-1.615 0-1.569-.244-2.44-.683-2.44-.16 0-.29.948-.29 2.108 0 1.246.138 2.109.338 2.109.226 0 .306 2.045.243 6.164-.073 4.766-.002 6.164.311 6.164.223 0 .406.155.406.344s.455.301 1.03.244c1.269-.125 2.538-2.242 2.538-4.231 0-.699.219-1.489.487-1.757s.486-.885.486-1.372c0-.967.666-2.63 1.055-2.634.133-.001.243-.221.243-.489s.146-.487.324-.487.325-.292.325-.648.146-.649.324-.649.325-.219.325-.487.112-.487.25-.487.519-.547.847-1.216l.885-1.78a3.17 3.17 0 0 0 .288-1.216c0-.36.146-.654.325-.654s.324-.365.324-.811.133-.811.296-.811.395-.584.515-1.297.336-1.298.479-1.298c.245 0 .455-.761.87-3.163.1-.58.312-1.054.471-1.054s.289-.365.289-.811.146-.811.324-.811.325-.449.325-.997.219-1.215.486-1.483.487-.914.487-1.437.146-.95.324-.95.325-.511.325-1.135.146-1.136.324-1.136.325-.511.325-1.135.146-1.135.324-1.135.325-.449.325-.997.219-1.215.486-1.483.487-.905.487-1.417.146-1.022.324-1.132.325-.767.325-1.46.146-1.349.324-1.46.324-.694.324-1.297.146-1.188.325-1.298.324-.84.324-1.622.146-1.512.325-1.622.329-.666.334-1.236.225-1.318.487-1.665.476-1.104.476-1.684.146-1.144.325-1.254.324-.768.324-1.46.146-1.35.325-1.46.324-.776.324-1.479.146-1.279.324-1.279.325-.594.325-1.32c0-.742.213-1.535.486-1.808.268-.267.487-.978.487-1.58s.146-1.183.324-1.293.325-.849.325-1.641.146-1.441.324-1.441.325-.648.325-1.441.146-1.531.324-1.641.325-.767.325-1.46.145-1.349.324-1.46.324-.904.324-1.763c0-.944.18-1.713.454-1.94.461-.383.702-1.567 1.027-5.056.1-1.07.306-2.238.459-2.595.506-1.184.98-3.674.98-5.145 0-.798.149-1.501.332-1.562.362-.121.932-2.699 1.188-5.378.089-.936.295-1.703.457-1.703s.294-.803.294-1.784.146-1.784.324-1.784.325-.803.325-1.784.146-1.785.324-1.785.325-.667.325-1.483c0-.885.196-1.679.486-1.969.299-.3.487-1.095.487-2.067 0-.869.146-1.67.324-1.78s.325-.995.325-1.966.146-1.765.324-1.765.324-.919.324-2.108.142-2.109.325-2.109c.178 0 .324-.502.324-1.116s.127-1.195.282-1.291.386-1.636.513-3.422.364-3.331.529-3.433.298-.97.298-1.93.146-1.837.325-1.947.324-1.059.324-2.108.146-1.999.325-2.109.324-1.141.324-2.29c0-1.177.142-2.09.324-2.09s.325-.868.325-1.956c0-1.44.128-2.006.486-2.144.349-.133.487-.678.487-1.917 0-.952.146-1.821.324-1.931 1.078-.666-.018-1.854-1.999-2.167-4.104-.649-6.396-.962-8.22-1.122-1.07-.095-2.085-.305-2.254-.469s-1.146-.297-2.171-.297-1.952-.146-2.063-.324-1.05-.325-2.088-.325c-1.282 0-2.017-.156-2.291-.486-.282-.34-1.03-.487-2.473-.487-1.163 0-2.069-.142-2.069-.324s-.919-.325-2.109-.325c-1.603 0-2.108.11-2.108.46m-242.666.48c-1.558.747-3.125 3.926-1.935 3.926.222 0 .324 10.579.312 32.279l-.33 32.279c-.414 0-.404 1.852.012 2.109.178.11.324.547.324.971 0 .464.239.845.602.96.826.263 8.056.387 8.3.143.323-.323.206-72.739-.118-73.063-.175-.175-.943-.127-1.9.118-1.162.298-1.964.322-2.895.085-1.019-.258-1.514-.218-2.372.193m37.542-.412c-.112.112-5.337.187-11.612.167-9.994-.032-11.55.03-12.54.5-.885.419-1.262.455-1.728.164-.328-.205-.657-.266-.73-.136-.264.468-.156 3.321.133 3.499.447.276.388 64.895-.06 65.732-.256.479-.256.76 0 1.017.195.194.355.68.355 1.078 0 1.205-.037 1.201 12.814 1.603 4.698.147 7.911.102 9.402-.133 1.462-.231 2.376-.246 2.579-.043.482.482 1.647.375 2.751-.253l.998-.568.002-35.284-.299-35.848c-.165-.309-.379-.818-.476-1.131-.17-.549-1.174-.779-1.589-.364m21.731.004c-.114.115-3.301.224-7.083.244-5.185.026-6.908.135-7.01.441-.074.223-.476.405-.893.405-1.373 0-1.623.268-1.593 1.707.015.756.216 5.979.447 11.606.47 11.445.277 49.112-.275 53.755-.343 2.88.016 4.327 1.186 4.781 1.254.487 8.591.924 9.193.548.351-.219.893-.266 1.332-.116.884.302 6.323.266 6.633-.044.12-.12.474-.217.788-.217 1.028 0 2.127-3.2 1.279-3.724-.459-.284-.456-47.485.004-48.038.232-.28.284-1.662.154-4.095-.293-5.482-.303-12.938-.02-14.138.275-1.166-.185-2.025-1.084-2.025-.292 0-.714-.292-.936-.649-.386-.616-1.677-.885-2.122-.441m9.41.234c-1.938.805-1.849-.979-1.849 36.924 0 36.438-.031 35.699 1.533 36.119 1.205.324 5.952.383 6.141.076.083-.134.434-.243.78-.243.39 0 .63-.222.63-.584 0-.321.143-.727.318-.902.203-.203.325-12.881.338-35.171l.02-34.852-.743-.573c-.921-.709-2.566-1.049-3.838-.795-.529.106-1.294.066-1.701-.089-.46-.175-1.074-.141-1.629.09m16.976.036c-.736.252-1.204.658-1.347 1.171-.367 1.313-.327 69.981.04 70.209.179.11.325.448.325.751 0 .946 1.652 1.441 3.368 1.009.817-.206 1.719-.285 2.004-.175.861.33 3.102-.171 3.303-.739a3.9 3.9 0 0 1 .463-.885c.353-.46.523-70.196.171-70.196-.144 0-.925-.303-1.736-.672-1.058-.482-1.813-.615-2.673-.47-.659.112-1.557.07-1.995-.093-.521-.194-1.186-.163-1.923.09m26.248.079c-1.232.614-1.211.024-1.245 35.21l-.519 33.333c-.267 0-.486-.146-.486-.324 0-.51-.7-.379-1.132.211-.613.84.303 2.503 1.134 2.059.895-.479.971-.422.971.734 0 1.855.501 1.966 9.408 2.095 10.172.147 18.03-.281 18.772-1.023 1.318-1.318.87-70.833-.465-72.171-.415-.416-25.616-.534-26.438-.124m48.301-.391c-.088.088-3.775.216-8.194.284-6.789.104-8.113.203-8.547.638-.462.462-.521 3.558-.573 29.965l-.194 31.235c-.075.981-.168 2.906-.207 4.277-.07 2.458-.083 2.494-.963 2.595-.743.085-.909.278-.994 1.157-.125 1.298 1.061 1.545 1.552.324.296-.737.529.334.355 1.637-.196 1.473 16.213 2.421 18.717 1.082l.727-.39-.005-35.755-.243-36.079c-.41-.558-1.264-1.137-1.431-.97m-259.797.387c-.268.107-.594.354-.725.551s-.241 16.418-.243 36.049l-.005 35.693 1.12.603c1.146.617 5.083.614 11.963-.009 1.459-.133 2.339-.077 2.579.163.9.9 3.802.016 3.802-1.158 0-.238.215-.322.52-.205.285.109.614.068.73-.092s.502-.452.859-.649c1.117-.619 1.034-3.047-.103-3.047-.318 0-.749-.171-.957-.379-.487-.487-.666-.011-.818 2.163-.063.892-.14-14.219-.172-33.58l-.059-35.202-.73-.458c-.756-.476-16.681-.872-17.761-.443m23.469.016c-1.482.17-1.415-1.55-1.428 36.969l-.011 35.287 1.231.522c1.486.629 18.183.864 21.17.298 1.184-.225 1.866-.227 2.086-.006.497.496 2.069.392 2.967-.196l.8-.524v-35.771c0-32.874-.044-35.806-.537-36.216-.506-.42-23.064-.732-26.278-.363m31.681.087c-.45.118-.766.409-.709.653s-.057.74-.251 1.107c-.613 1.159-.31 69.772.311 70.387.846.837 8.273.854 8.903.02.422-.559.486-5.092.495-35.445.011-36.665.064-35.035-1.205-36.717-.179-.238-6.642-.242-7.544-.005m14.543-.048c-.237.076-.538.299-.669.496-.165.246-.24.231-.244-.049-.003-.223-.224-.406-.491-.406s-.487.146-.487.325-.242.324-.537.324c-.489 0-.517.581-.31 6.57.433 12.526.547 53.347.163 58.399-.399 5.251-.176 6.609 1.131 6.875 1.247.254 6.836.389 7.663.184l.811-.2.163-36.319.162-36.32-3.462-.008c-1.904-.005-3.655.053-3.893.129m16.763-.016c-1.77.319-2.166 1.404-1.944 5.337.359 6.376.494 63.82.15 63.82-.594 0-.337 2.275.34 3.001.571.614.973.697 3.154.655 1.399-.026 2.686.108 2.924.306.303.251.635.254 1.145.009.395-.189.974-.425 1.287-.525.854-.273.885-71.554.031-72.263-.506-.42-5.35-.652-7.087-.34m112.327-.048c-.312.084-.567.288-.567.454s-.219.3-.487.3c-.43 0-.487 4.195-.487 35.81v35.811l.878.575c.771.505 1.1.529 2.696.199 1-.206 2.652-.375 3.672-.375 2.852 0 2.636 2.831 2.726-35.686.085-36.311.059-36.94-1.482-37.006-4.206-.18-6.483-.207-6.949-.082m72.542.319c-.462.239-.975.435-1.141.435-.701 0-1.705 1.294-1.31 1.689.296.296.388 8.567.388 34.849 0 40.307-.709 35.482 5.214 35.482h4.194V193.35c0-34.372-.031-36.337-.568-36.377-3.102-.23-6.056-.118-6.777.256m13.385-.044c-.263.264-.672.484-.908.49-1.658.039-1.628-.283-1.511 16.266l.004 42.604c-.057 6.245-.01 11.66.106 12.033.351 1.131 3.692 2.28 4.207 1.446.104-.169.896-.224 1.759-.122.884.105 2.082.016 2.748-.204l1.18-.389v-35.744-35.745l-.73-.458c-1.073-.673-6.225-.807-6.855-.177m19.913-.272c-3.48.059-6.545.199-6.813.312s-.742.233-1.054.268-.665.16-.785.28-.237 15.289-.262 33.712l-.301 34.955c-.43 2.458 3.679 5.439 4.861 3.526.16-.258 1.146-.296 3.344-.129 11.177.849 11.715.712 11.715-2.971 0-1.462.146-2.749.325-2.86.198-.122.324-2.7.324-6.65s-.126-6.528-.324-6.65c-.206-.128-.325-4.269-.325-11.355s.119-11.227.325-11.354c.701-.434.413-29.291-.3-30.056-.343-.369-.768-.581-.945-.471s-.371.053-.431-.124c-.155-.46-2.171-.553-9.354-.433m-96.188 1.4c-.265.428.123 1.036.509.797.394-.243.391-1.121-.004-1.121-.168 0-.395.146-.505.324m-113.166.216c-.286.286-.244 7.372.054 9.03.403 2.246.808.663.893-3.492.043-2.123.164-3.946.269-4.05.378-.379.178-1.315-.323-1.507-.636-.244-.63-.244-.893.019m-78.261.618c.71.709.766 67.739.059 68.671-.697.918-15.913.863-16.407-.059-.467-.873-.467-67.622 0-68.494s15.485-.981 16.348-.118m31.967.118c.45.841.467 67.11.018 68.293l-.318.836-12.253-.085-12.253-.085-.083-34.793-.083-34.794h12.318c11.846 0 12.331.024 12.654.628m13.115-.114c.302.786.224 68.365-.079 68.843-.192.303-1.063.393-3.158.324l-2.892-.094-.083-34.793-.082-34.794h3.048c2.481 0 3.086.096 3.246.514m13.313-.004c.624.625.794 67.453.173 68.612-.437.818-5.485.945-6.141.154-.575-.693-.498-68.647.078-69.013.776-.493 5.341-.302 5.89.247m17.624 34.005l-.284 34.794c-.475.573-5.496.615-6.06.051-.575-.575-.564-68.406.011-68.981.273-.274 1.328-.372 3.325-.309l2.925.093.083 34.352m12.893.36v34.712l-2.892.094c-2.095.069-2.965-.021-3.158-.324-.465-.733-.342-68.511.125-68.979.272-.271 1.293-.371 3.163-.308l2.762.093v34.712m31.944-34.247c.448.839.467 67.11.019 68.289l-.316.832h-11.972c-9.87 0-12.038-.08-12.349-.454-.69-.833-.494-68.373.201-68.889 1.042-.774 23.995-.565 24.417.222m22.741-.292c.777.416 1.011 68.251.238 69.024-.28.28-2.503.389-7.956.389h-7.567l-.308-.81c-.591-1.556-.421-67.358.177-68.212.57-.813 13.991-1.154 15.416-.391m13.539.054c.457.457.569 68.25.114 68.967-.193.303-1.063.393-3.158.324l-2.892-.094-.084-34.388.071-34.793c.208-.547 5.405-.561 5.949-.016m17.504 34.125l-.283 34.794c-.563.678-5.665.615-5.929-.073-.26-.678-.256-68.056.005-68.734.168-.44.678-.51 3.163-.432l2.961.093.083 34.352m13.307-.289l-.087 34.793c-.292 1.207-5.873 1.117-6.336-.102-.611-1.607-.412-67.801.206-68.419.415-.415 1.093-.503 3.325-.429l2.803.094.089 34.063m31.765-33.82c.373.576.463 67.58.092 68.555l-.3.788H232.16c-10.77 0-12.161-.058-12.336-.513-.27-.703-.251-68.749.019-69.019.433-.433 24.38-.249 24.663.189m23.466.427c.349.916.452 65.62.109 67.7l-.202 1.216h-8.033c-7.026 0-8.058-.064-8.23-.513-.257-.671-.257-68.052 0-68.722.172-.449 1.195-.514 8.119-.514h7.921l.316.833m17.314-.319c.257.67.257 68.051 0 68.722-.244.635-5.774.763-6.158.142-.283-.458-.259-68.589.025-69.047.361-.584 5.902-.419 6.133.183m13.162.114c.448.839.467 67.11.019 68.289-.358.941-5.253 1.296-6.107.443-.721-.722-.546-68.587.179-69.009 1.1-.641 5.528-.434 5.909.277m23.256.323c.615 1.233.449 67.515-.17 68.262-.519.624-15.393.831-15.771.219-.254-.411-.243-68.721.011-69.132.116-.188 3.219-.277 7.865-.224l7.672.087.393.788m-118.865.184c-.511.579-.511.977-.003 1.79.309.495.314.784.023 1.251-.257.411-.273.714-.05.937s.21.403-.039.557c-.272.168-.266.351.023.699s.296.566.027.836-.219.474.192.787c.897.681.937.59 1.164-2.638.297-4.221-.135-5.585-1.337-4.219m-130.711.672c-.107.279-.029.673.173.875.274.274.367.144.367-.508 0-.976-.243-1.141-.54-.367m274.344 20.863c0 1.587-.14 2.347-.487 2.635s-.486 1.063-.486 2.778c0 1.306-.146 2.464-.325 2.574s-.324 1.287-.324 2.615c0 1.393-.137 2.414-.324 2.414s-.325 1.081-.325 2.595-.135 2.595-.324 2.595-.325 1.127-.325 2.731c0 1.896-.124 2.772-.405 2.865-.253.085-.5 1.163-.656 2.866l-.582 5.65c-.182 1.606-.407 4.27-.501 5.921s-.307 3.001-.473 3.001-.302 1.449-.302 3.225c0 1.8-.144 3.313-.325 3.425-.189.117-.324 1.928-.324 4.334 0 2.273-.142 4.275-.315 4.448s-.456 2.169-.627 4.434-.431 4.331-.577 4.591c-.435.773-.137 8.698.321 8.545.27-.091.399-1.395.428-4.306.028-2.766.165-4.218.406-4.298s.364-1.411.364-3.96c0-2.783.111-3.876.405-3.974.286-.096.409-1.042.415-3.191.005-1.68.189-3.468.408-3.974s.382-2.063.361-3.462.088-2.736.241-2.973.386-1.672.518-3.189c.616-7.105 1.902-17.7 2.531-20.868.171-.861.311-2.127.311-2.814s.14-1.953.31-2.814c.569-2.876 1.404-10.43 1.209-10.938-.106-.275-.061-.582.099-.681.43-.266.752-2.871.498-4.028-.383-1.743-.818-1.089-.818 1.228m-143.26 37.569c-.104.324-.311.881-.459 1.238-.964 2.311-.582 8.596.523 8.596 1.227 0 1.565-3.855.401-4.575-.34-.21-.345-.346-.025-.667.487-.487.552-4.684.076-4.978-.179-.111-.411.063-.516.386m-100.049 1.254c0 .455-.231 1.274-.514 1.821-.37.715-.415 1.094-.162 1.347.193.193.352 1.336.352 2.538 0 2.36.253 2.784 1.323 2.212.577-.309.654-.558.481-1.556-.114-.653-.366-2.538-.56-4.189-.322-2.742-.92-4.155-.92-2.173m-76.561 2.56c0 .257.146.557.324.668s.325-.1.325-.468-.146-.668-.325-.668-.324.211-.324.468m46.066 2.757c0 .347-.146.72-.324.83-.678.419-.362 1.511.405 1.402.92-.131 1.325-2.861.425-2.861-.284 0-.506.275-.506.629m100 .829c-.625.711-.518 1.855.162 1.726.374-.071.603-.467.67-1.16.108-1.121-.174-1.313-.832-.566m-76.804 21.482c-.357.086-.788.288-.957.449s-1.147.293-2.171.293-1.953.146-2.063.324-.703.324-1.317.324-1.116.146-1.116.325-.438.324-.973.324-.973.146-.973.325-.365.324-.811.324-.811.129-.811.287-.256.372-.568.477a5.75 5.75 0 0 0-1.055.503c-.267.172-.961.504-1.54.738s-1.055.535-1.055.67-.197.245-.439.245-.833.365-1.314.811-1.055.811-1.274.811-.609.292-.866.649-.62.648-.805.648-.619.375-.963.832c-1.008 1.343-1.699 2.088-1.934 2.088-.351 0-1.813 1.558-1.813 1.932 0 .186-.146.339-.324.339s-.325.235-.325.521-.331.782-.736 1.101-.944 1.106-1.196 1.75-.578 1.17-.723 1.17-.264.438-.264.973-.146.973-.325.973-.324.292-.324.649-.216.649-.487.649c-.34 0-.486.342-.486 1.135 0 .625-.146 1.136-.325 1.136s-.324.356-.324.792-.146.882-.325.992-.324.84-.324 1.622-.146 1.512-.324 1.622c-.198.122-.325 2.538-.325 6.164s.127 6.042.325 6.164c.178.11.324.913.324 1.784s.146 1.674.324 1.784.325.63.325 1.155.146.954.324.954.325.42.325.934.219 1.115.486 1.337.487.605.487.851.146.447.324.447.325.438.325.973.146.973.324.973.325.219.325.487.146.486.324.486.324.23.324.51c0 .583.758 1.437 1.275 1.437.191 0 .347.292.347.649 0 .558 4.851 5.839 5.365 5.839.095 0 .497.298.892.663 1.553 1.434 2.685 2.256 3.105 2.256.242.001.727.366 1.078.812s.919.811 1.263.811.625.146.625.324.292.325.649.325.649.146.649.324.365.324.811.324.811.146.811.325.409.324.908.324 1.064.156 1.255.347c.508.508 8.279 1.617 11.624 1.659 2.455.031 9.829-1.161 10.338-1.67.184-.185.744-.336 1.244-.336s.908-.146.908-.324.365-.325.811-.325.811-.146.811-.324.284-.324.63-.324.72-.146.83-.325.421-.324.691-.324.694-.183.943-.406c1.125-1.009 1.453-1.216 1.921-1.216.275 0 .5-.146.5-.325s.145-.324.321-.324c.323 0 1.212-.652 2.323-1.703.33-.312.668-.568.752-.568s.667-.473 1.297-1.052c1.121-1.028 1.676-3.165.822-3.165-.178 0-.324-.171-.324-.379s-.214-.609-.476-.892c-4.728-5.104-4.964-5.229-6.502-3.44-.534.62-1.226 1.131-1.538 1.135s-.568.153-.568.332-.203.324-.452.324-.536.219-.638.487-.378.486-.612.486-.636.292-.893.649-.8.649-1.207.649-.74.114-.74.253-.693.45-1.54.69-1.87.64-2.271.889c-.419.26-.73.312-.73.122 0-.183-.219-.332-.487-.332s-.487.146-.487.324-.575.325-1.278.325-1.369.146-1.479.324-1.424.325-2.92.325-2.809-.146-2.919-.325-1.05-.324-2.089-.324c-1.282 0-2.017-.156-2.291-.487-.222-.268-.669-.486-.994-.486s-1.433-.438-2.465-.974-2.005-.973-2.163-.973-.573-.365-.924-.811-.814-.811-1.03-.811-.601-.292-.859-.649-.592-.649-.743-.649c-.349 0-1.201-.839-1.21-1.193-.004-.147-.515-.703-1.136-1.237s-1.128-1.154-1.128-1.378-.146-.409-.324-.409-.325-.219-.325-.487-.146-.486-.324-.486-.325-.292-.325-.649-.146-.649-.324-.649-.325-.283-.325-.63-.134-.713-.299-.814-.395-.622-.512-1.155-.348-.969-.512-.969-.299-.511-.299-1.136-.146-1.135-.324-1.135c-.187 0-.324-1.028-.324-2.433s-.137-2.433-.325-2.433c-.178 0-.324-.503-.324-1.117s.146-1.206.324-1.317.325-1.205.325-2.433.146-2.322.324-2.433.324-.64.324-1.178.219-1.196.487-1.463.487-.769.487-1.113.146-.625.324-.625.328-.256.332-.568.292-.933.641-1.379.638-.993.642-1.216.153-.406.332-.406.324-.146.324-.324.255-.602.568-.941l1.409-1.541c.463-.508 1.256-1.217 1.762-1.573s1.252-.978 1.657-1.379.891-.73 1.077-.73 1.049-.511 1.919-1.136 1.809-1.135 2.09-1.135.606-.155.723-.345.643-.301 1.168-.246 1.069-.086 1.213-.318c.173-.28 1.434-.482 3.799-.61 1.947-.105 3.746-.353 3.998-.552.34-.269.492-.262.589.026.074.22 1.107.484 2.387.61 1.242.123 2.335.349 2.431.504s.522.282.947.282.863.146.973.325.557.324.993.324.792.146.792.324.292.325.648.325.649.136.649.302.31.401.688.521 1.13.641 1.67 1.157 1.182.94 1.427.94 1.073.656 1.842 1.459c1.655 1.727 2.918 1.96 3.516.649.203-.446.492-.811.642-.811s.272-.292.272-.649.11-.649.243-.649c.373 0 2.028-1.495 2.028-1.831 0-.163.292-.507.649-.764 1.623-1.17.32-4.068-2.412-5.364-.636-.302-1.157-.724-1.157-.938s-.511-.59-1.135-.835-1.136-.564-1.136-.709-.292-.264-.648-.264-.649-.113-.649-.252-.656-.54-1.457-.892-1.458-.75-1.46-.884-.286-.243-.633-.243-.72-.146-.83-.324-.63-.325-1.154-.325-.955-.146-.955-.324-.575-.325-1.278-.325-1.369-.146-1.479-.324-.905-.324-1.766-.324-1.984-.218-2.495-.485c-.904-.471-6.131-.645-7.742-.257m131.468-.018c-.313.087-.568.294-.568.459s-.721.301-1.603.301-1.693.146-1.803.324-.557.324-.993.324-.792.146-.792.325-.438.324-.973.324-.973.146-.973.325-.274.324-.609.324-.791.219-1.013.487-.605.486-.851.486-.447.146-.447.325-.144.324-.32.324c-1.101 0-5.519 4.78-5.519 5.971 0 .284-.146.517-.325.517s-.324.277-.324.614-.219.699-.487.801c-.284.109-.486.596-.486 1.17 0 .541-.146.984-.325.984-.2 0-.324 1.724-.324 4.523 0 2.665.133 4.604.324 4.723.179.11.325.629.325 1.154 0 .632.164.954.486.954s.487.317.487.905c0 .533.394 1.366.96 2.027.528.618.966 1.25.973 1.405.017.348 2.517 2.8 2.856 2.8.135 0 .617.329 1.07.73 1.03.913 2.117 1.543 2.652 1.536.347-.004 1.788.63 4.542 1.997.31.153.849.279 1.198.279s.724.146.834.325.63.324 1.155.324.954.146.954.324.448.325.996.325 1.216.219 1.483.486.76.487 1.093.487.697.146.807.324.63.325 1.155.325.954.146.954.324.511.325 1.135.325 1.136.146 1.136.324.283.325.63.325.72.145.83.324.614.324 1.12.324c.518 0 1.001.213 1.106.487.102.268.348.487.544.487s.546.182.776.405.95.823 1.599 1.334 1.181 1.131 1.181 1.378.129.451.286.451c.466 0 .787 1.295.986 3.975.142 1.895.088 2.514-.218 2.514-.223 0-.405.291-.405.648s-.146.649-.325.649-.324.153-.324.339c0 .441-1.492 1.932-1.932 1.932-.186 0-.339.146-.339.324s-.292.325-.649.325-.649.146-.649.324-.281.325-.625.325-.845.218-1.113.486c-.35.35-1.203.487-3.04.487-1.582 0-2.705.151-2.951.397-.313.314-.531.314-1.034 0-.353-.22-1.705-.397-3.036-.397-1.499 0-2.75-.182-3.33-.485-.511-.266-1.249-.485-1.64-.486s-.801-.148-.911-.327-.557-.324-.993-.324-.791-.146-.791-.325-.365-.324-.811-.324-.811-.146-.811-.325-.292-.324-.649-.324-.649-.139-.649-.309-.511-.552-1.136-.848-1.135-.668-1.135-.826-.191-.288-.425-.288-.739-.292-1.122-.649-.791-.648-.907-.648-.497-.365-.848-.812-.846-.811-1.101-.811-.463-.146-.463-.324c0-1.307-2.535-.11-3.262 1.541-.256.58-.575 1.054-.71 1.054s-.246.277-.246.614-.219.699-.486.801-.487.484-.487.846-.146.659-.324.659-.325.292-.325.649-.146.649-.324.649c-1.059 0 .309 2.863 1.39 2.909.139.006.752.485 1.361 1.065 1.594 1.518 2.045 1.865 2.426 1.865.186 0 .338.146.338.325s.292.324.649.324.649.146.649.324.156.325.347.325.551.182.8.405c1.121 1.005 1.451 1.217 1.902 1.217.264 0 .571.146.681.324s.484.325.831.325.629.146.629.324.43.324.954.324 1.045.146 1.155.325.618.324 1.127.324.979.154 1.042.342c.562 1.686 20.097 1.69 21.783.005.19-.191.828-.347 1.417-.347s1.07-.146 1.07-.324.215-.325.477-.325c.649 0 2.618-1.132 3.677-2.114.478-.443 1-.805 1.16-.805.459 0 4.094-3.884 4.094-4.373 0-.242.11-.488.244-.547.414-.185 1.378-2.122 1.378-2.77 0-.338.125-.754.276-.923.462-.515 1.128-5.817.921-7.327-.651-4.752-.549-4.353-1.81-7.093-.287-.625-.777-1.372-1.09-1.661s-.567-.623-.567-.744c0-.31-1.538-1.813-1.855-1.813-.144 0-.552-.39-.907-.868-1.009-1.358-1.851-2.052-2.49-2.052-.323 0-.588-.146-.588-.324s-.283-.324-.629-.324-.72-.146-.831-.325-.614-.324-1.12-.324c-.518 0-1-.213-1.106-.487-.102-.267-.485-.486-.85-.486s-.953-.146-1.308-.325l-1.288-.649a3.88 3.88 0 0 0-1.46-.324c-.449 0-.816-.146-.816-.325s-.438-.324-.973-.324-.973-.139-.973-.31-.511-.405-1.136-.522-1.135-.343-1.135-.502-.511-.288-1.136-.288-1.135-.146-1.135-.324-.438-.325-.973-.325-.973-.146-.973-.324-.365-.325-.812-.325-.811-.146-.811-.324-.301-.324-.67-.324-1.149-.365-1.734-.811-1.209-.812-1.386-.812c-.536 0-3.347-2.817-3.347-3.355 0-.274-.146-.589-.324-.7s-.324-1.278-.324-2.595.146-2.485.324-2.595.324-.416.324-.679c0-.614 1.821-2.403 2.445-2.403.261 0 .475-.111.475-.245 0-.305 1.315-.853 3.276-1.367 1.75-.459 8.359-.274 10.836.303a41.9 41.9 0 0 0 2.839.553c.669.096 1.216.306 1.216.466s.303.29.672.29a1.9 1.9 0 0 1 1.159.486c.267.268.768.487 1.112.487s.626.146.626.324.292.325.649.325.648.146.648.324.333.325.74.325.95.292 1.207.649c1.146 1.59 3.893.296 3.893-1.835 0-.24.146-.436.324-.436s.325-.292.325-.649.146-.649.324-.649.325-.401.325-.892.365-1.316.811-1.835c1.049-1.22 1.038-2.276-.031-3.016a16.51 16.51 0 0 1-1.453-1.143c-.336-.309-.833-.475-1.104-.371s-.494.028-.494-.17-.292-.359-.649-.359-.649-.134-.649-.299-.436-.394-.97-.511-1.052-.348-1.154-.512-.469-.3-.815-.3-.63-.146-.63-.324-.511-.325-1.135-.325-1.136-.146-1.136-.324-.429-.325-.954-.325-1.044-.146-1.154-.324-.983-.324-1.939-.324c-1.102 0-1.787-.149-1.873-.406-.135-.408-10.694-.72-12.003-.354M7.461 248.986c0 .268-.202.487-.448.487-.458 0-.522 1.732-.081 2.174.505.505.207 63.466-.303 64.03-.437.483-.398.594.399 1.116.904.593 46.951.897 48.76.323.855-.271 1.029-8.926.196-9.759-.391-.391-3.429-.463-19.464-.463H17.518v.811.811h18.978 18.978v3.707c0 2.889-.109 3.817-.494 4.202-.562.563-45.354.734-46.79.179l-.732-.283.083-33.343.083-33.343 23.286-.083 23.287-.083-.091 3.976-.091 3.976-18.444.084c-16.623.075-18.425.134-18.249.594.108.281.196 3.938.196 8.127 0 4.995.112 7.547.325 7.416.201-.125.324-3.028.324-7.633v-7.433l17.924-.008 18.491-.01c.517-.001.568-.458.568-5.03V248.5H31.306c-20.979 0-23.845.058-23.845.486m128.677-.263c-.123.123-.212 15.442-.199 34.044l.024 33.82 1.113.367c2.724.899 35.785.311 36.102-.642.062-.184.757-.335 1.545-.335s1.433-.146 1.433-.324.511-.325 1.135-.325 1.136-.146 1.136-.324.292-.324.648-.324.649-.146.649-.325.197-.324.437-.324c.65 0 2.483-.975 2.483-1.322 0-.165.292-.3.649-.3s.649-.146.649-.325.219-.324.486-.324.487-.11.487-.245.438-.439.973-.676.973-.638.973-.891.219-.459.487-.459.487-.146.487-.324.197-.325.439-.325c.665 0 4.236-3.584 4.767-4.785.257-.58.627-1.054.823-1.054s.695-.657 1.108-1.46.873-1.46 1.024-1.46.273-.456.273-1.013c0-.81.087-.941.436-.651.604.501.863.131.651-.93-.099-.497-.02-.994.178-1.116s.357-.569.357-.994.146-.863.325-.973.324-.621.324-1.136.146-1.025.325-1.135.324-.922.324-1.803.146-1.603.324-1.603c.205 0 .325-2.157.325-5.821 0-3.53-.128-5.899-.325-6.02-.178-.111-.324-.849-.324-1.642s-.146-1.44-.324-1.44-.325-.503-.325-1.117-.146-1.206-.324-1.316-.325-.462-.325-.781c0-.762-.937-2.626-1.321-2.626-.165 0-.301-.41-.301-.912s-.292-1.225-.649-1.608-.653-.885-.659-1.116c-.014-.579-.793-1.554-1.242-1.554-.203 0-.369-.218-.369-.483s-.256-.791-.568-1.168c-1.362-1.643-2.313-2.567-2.645-2.567-.196 0-.356-.109-.356-.243-.001-.415-1.515-2.028-1.903-2.028-.202 0-.368-.146-.368-.324s-.238-.324-.53-.324-.765-.258-1.054-.573c-.603-.657-3.145-2.35-3.518-2.342-.391.008-3.806-1.76-3.927-2.033-.06-.133-.607-.243-1.217-.243s-1.108-.146-1.108-.324-.511-.325-1.136-.325-1.135-.146-1.135-.324-.803-.325-1.784-.325-1.785-.146-1.785-.324c0-.37-33.809-.47-34.178-.101m100.389.117c.35.188 1.499.397 2.554.465s2.208.279 2.564.47 1.087.347 1.624.347 1.065.146 1.175.324.486.324.835.324.888.134 1.197.297 1.367.616 2.348 1.007c2.296.914 4.012 1.697 4.217 1.924.09.098.455.34.811.538.954.528.96 1.243.026 3.118-.46.923-.837 1.869-.837 2.102s-.146.422-.324.422-.324.208-.324.461-.242.881-.538 1.396l-.537.936-3.437-1.718c-1.89-.945-3.683-1.72-3.985-1.721s-.639-.148-.749-.327-.621-.324-1.136-.324-1.025-.146-1.135-.325-.91-.324-1.776-.324c-.971 0-1.628-.156-1.711-.405-.194-.58-9.377-.581-9.571-.001-.074.223-.629.406-1.233.406-.99 0-2.537.667-4.131 1.781-1.058.74-2.484 2.911-2.494 3.796-.005.48-.155.963-.333 1.073s-.324.622-.324 1.136.145 1.025.324 1.135.324.703.324 1.317.146 1.116.325 1.116.324.248.324.552c0 .643 3.106 3.666 3.768 3.666.247 0 .452.109.455.243.004.2 1.922 1.185 4.536 2.331.268.118 2.239.771 4.38 1.451s4.146 1.367 4.456 1.526.922.288 1.36.288.886.146.997.325.556.324.992.324.792.146.792.324.422.325.938.325c.552 0 1.019.209 1.133.507.107.279.351.411.542.293s.594-.012.895.236.985.662 1.52.918c2.49 1.194 7.299 5.859 7.299 7.082 0 .204.146.372.325.372s.324.365.324.811.146.811.325.811.324.661.324 1.47c0 1.007.153 1.529.487 1.657.375.143.486.766.486 2.712s-.111 2.569-.486 2.713c-.334.128-.487.649-.487 1.657 0 .808-.146 1.47-.324 1.47s-.325.365-.325.811-.113.811-.25.811-.539.547-.89 1.216c-1.289 2.455-5.523 6.23-8.43 7.516a53.58 53.58 0 0 0-1.784.834c-.446.223-.994.339-1.217.258s-.494.085-.602.368c-.138.36-.621.513-1.622.513-.784 0-1.425.146-1.425.325 0 .206-2.596.324-7.137.324s-7.137-.118-7.137-.324c0-.179-.548-.329-1.217-.335s-1.501-.225-1.848-.488-.896-.394-1.219-.292c-.363.115-.66-.007-.781-.323-.108-.28-.474-.509-.814-.509s-.872-.127-1.182-.284l-1.861-.92c-6.972-3.423-11.238-7.024-9.677-8.169.315-.23.824-1.106 2.161-3.715 1.225-2.39 1.528-2.492 3.008-1.012 1.38 1.381 6.379 4.692 7.081 4.692.259 0 .561.146.671.325s.484.324.83.324.63.146.63.325.438.324.973.324.974.146.974.324.448.325.996.325 1.219.223 1.492.495c.347.347.821.434 1.588.29.782-.146 1.24-.057 1.613.316.757.757 7.01.759 7.638.002.3-.362.752-.466 1.497-.345.694.113 1.23.01 1.533-.292.256-.257.681-.466.945-.466 1.199 0 5.082-2.687 5.082-3.517 0-.207.146-.376.324-.376s.325-.353.325-.784.182-.845.405-.919c.282-.094.406-.965.406-2.839s-.124-2.745-.406-2.839c-.223-.074-.405-.484-.405-.911 0-1.736-4.056-4.847-8.759-6.72-1.545-.614-2.122-.809-5.029-1.69l-3.568-1.137c-.357-.138-1.744-.576-3.082-.973s-2.821-.926-3.294-1.174-1.094-.452-1.379-.452-.518-.146-.518-.325-.227-.324-.504-.324c-1.585 0-6.856-4.807-8.183-7.461-2.429-4.863-1.865-14.018 1.05-17.06.186-.194.868-.941 1.515-1.66 1.786-1.985 6.428-4.963 7.737-4.963.34 0 .708-.146.818-.324s.567-.324 1.014-.324a3.66 3.66 0 0 0 1.45-.341c.351-.188 1.436-.399 2.412-.47s2.029-.279 2.342-.461c.751-.437 6.112-.445 6.925-.01m54.065.274c-.312.316-.568.819-.568 1.116s-.146.54-.324.54-.324.284-.324.63-.146.72-.325.83-.324.486-.324.836c0 1.117-.793 3.219-1.215 3.219-.397 0-.538.397-.432 1.217.029.223-.099.406-.286.406s-.338.292-.338.648-.146.649-.325.649-.324.365-.324.811-.146.811-.324.811-.325.423-.325.939c0 .535-.209 1.019-.486 1.125-.268.103-.487.483-.487.846s-.146.659-.324.659-.325.292-.325.649-.146.648-.324.648-.325.284-.325.63-.146.72-.324.83-.325.484-.325.83-.146.63-.324.63-.324.365-.324.811-.119.811-.265.811c-.358 0-1.357 2.143-1.357 2.912 0 .34-.146.709-.325.819s-.324.557-.324.992-.146.792-.325.792-.324.365-.324.811-.11.812-.243.813c-.318.003-1.379 1.871-1.379 2.427 0 .37-.459 1.423-1.663 3.812-.156.31-.284.784-.284 1.054s-.135.491-.3.491c-.346 0-1.322 1.833-1.322 2.483 0 .24-.146.437-.324.437s-.325.365-.325.811-.145.811-.324.811-.324.343-.324.763-.365 1.449-.811 2.288-.811 1.736-.811 1.994-.146.47-.325.47-.324.365-.324.811-.146.811-.325.811-.324.283-.324.63-.146.72-.324.83-.325.421-.325.691-.219.71-.486.977-.487.768-.487 1.113-.146.625-.325.625-.324.365-.324.811-.146.811-.324.811-.325.292-.325.649-.146.649-.324.649-.325.157-.325.35-.511 1.412-1.135 2.71-1.135 2.665-1.135 3.037-.146.767-.325.878-.324.557-.324.992-.146.792-.325.792-.324.308-.324.684c0 .474-.149.626-.487.496-.375-.144-.486.073-.486.947 0 1.511.622 1.721 5.603 1.891 4.438.152 6.075-.227 6.075-1.406 0-.366.146-.666.325-.666s.324-.297.324-.66.232-1.013.515-1.445.42-.938.305-1.124-.057-.339.128-.339.429-.365.541-.811.334-.811.493-.811.289-.221.289-.491.169-.818.375-1.217c.808-1.561.923-1.874.923-2.505 0-.359.146-.653.324-.653s.325-.277.325-.614.219-.699.486-.801.487-.484.487-.846.146-.659.324-.659.325-.292.325-.649c0-.64.213-.649 16.788-.638 17.548.01 17.924.039 17.924 1.385 0 .282.146.603.324.713s.325.694.325 1.298.146 1.187.324 1.297.324.484.324.83.146.63.325.63.324.365.324.811.13.811.29.811.38.365.492.811.347.811.522.811.318.292.318.649.146.649.325.649.324.438.324.973.146.973.325.973.324.284.324.63.146.72.324.83.325.479.325.819c0 1.139 1.213 1.415 6.628 1.508 2.944.05 5.328-.045 5.541-.221.408-.339.256-2.169-.203-2.453-.158-.098-.287-.461-.287-.807s-.146-.63-.325-.63-.324-.297-.324-.659-.219-.743-.487-.846-.486-.463-.486-.801-.146-.614-.325-.614-.324-.361-.324-.803-.292-1.281-.648-1.865-.648-1.323-.649-1.64-.22-.662-.487-.765-.487-.463-.487-.801-.146-.614-.325-.614-.324-.365-.324-.811-.146-.811-.324-.811-.325-.179-.325-.397c0-.597-1.733-4.939-2.021-5.064-.137-.059-.25-.461-.25-.892s-.146-.784-.324-.784-.324-.292-.324-.649-.146-.649-.325-.649-.324-.365-.324-.811-.146-.811-.325-.811-.324-.281-.324-.625-.219-.845-.487-1.113-.486-.643-.486-.834-.146-.347-.325-.347-.324-.438-.324-.974-.146-.973-.325-.973-.324-.365-.324-.811-.146-.811-.324-.811-.325-.292-.325-.649-.146-.649-.324-.649-.325-.274-.325-.609a1.51 1.51 0 0 0-.486-1.013c-.268-.222-.487-.721-.487-1.11s-.122-.845-.272-1.015-.461-.819-.692-1.443c-.885-2.397-1.441-3.569-1.694-3.569-.144 0-.262-.292-.262-.649s-.146-.648-.324-.648-.324-.365-.324-.811-.146-.812-.325-.812-.324-.283-.324-.629-.146-.72-.325-.83-.324-.462-.324-.781c0-.762-.938-2.626-1.321-2.626-.166 0-.301-.365-.301-.811s-.146-.811-.325-.811-.324-.292-.324-.649-.146-.648-.324-.648-.325-.365-.325-.811-.146-.811-.324-.811-.325-.218-.325-.485c0-.676-1.073-3.084-1.374-3.084-.136 0-.248-.438-.248-.973s-.146-.973-.324-.973-.324-.365-.324-.811-.146-.812-.325-.812-.324-.291-.324-.648-.146-.649-.325-.649-.324-.297-.324-.659-.219-.743-.487-.846c-.277-.106-.486-.59-.486-1.125 0-.516-.146-.939-.325-.939s-.324-.365-.324-.811-.146-.811-.325-.811-.324-.292-.324-.649c0-.942-10.833-.974-11.76-.034m-183.963.613c.39.217 1.148.395 1.684.395s1.066.146 1.176.324.548.324.973.324.863.146.974.325.443.324.739.324c.529 0 6.566 2.865 6.884 3.267.089.112.327.263.529.334.671.238 4.337 3.608 4.33 3.981-.004.201-.479.9-1.054 1.553s-1.558 1.851-2.183 2.664c-1.15 1.497-1.985 1.833-2.723 1.097-.223-.223-.963-.844-1.644-1.379l-1.608-1.298c-.593-.519-2.182-1.426-3.757-2.145-.803-.366-1.713-.799-2.023-.963s-.841-.298-1.18-.298-1.034-.218-1.545-.484c-.593-.31-1.323-.411-2.019-.282-.756.14-1.175.065-1.367-.246-.394-.637-6.047-.638-6.441 0-.183.296-.644.393-1.366.285-1.764-.263-7.208 1.739-9.515 3.498-.575.439-1.161.797-1.302.797-.839 0-6.981 7.116-6.981 8.088 0 .191-.146.347-.324.347s-.325.284-.325.63-.146.72-.324.83-.325.421-.325.691-.219.71-.486.977-.487.833-.487 1.256-.146.859-.324.969-.325.767-.325 1.46-.146 1.349-.324 1.46c-.188.116-.324 1.889-.324 4.217s.136 4.101.324 4.217c.178.111.324.768.324 1.46s.146 1.35.325 1.46.324.539.324.953.219.934.487 1.156a1.51 1.51 0 0 1 .486 1.013c0 .335.146.609.325.609s.324.214.324.477c0 2.627 8.646 11.526 11.199 11.526.264 0 .48.146.48.325s.365.324.811.324.811.146.811.324.376.325.834.325 1.054.219 1.321.487c.298.297.782.413 1.244.297.438-.11 1.08.021 1.523.311 1.103.723 9.1.735 9.697.016.27-.326.705-.426 1.289-.298.578.127 1.054.021 1.385-.31.277-.277.879-.503 1.338-.503s.834-.146.834-.325.28-.324.622-.324c.682 0 4.438-1.906 5.571-2.827l1.763-1.472c.974-.827 2.412-1.21 2.435-.648.006.133.954 1.251 2.109 2.482s2.098 2.421 2.098 2.643c0 .872-7.997 6.635-9.208 6.635-.288 0-.524.146-.524.324s-.221.324-.491.324-.745.129-1.054.287a24.6 24.6 0 0 1-1.537.679 32.73 32.73 0 0 0-1.892.849c-.505.251-1.417.456-2.027.456s-1.109.146-1.109.325c0 .187-1.031.324-2.445.324-1.728 0-2.684.157-3.264.537-.763.5-.898.5-1.946 0-.774-.369-1.987-.537-3.873-.537-1.615 0-2.746-.134-2.746-.324 0-.179-.566-.325-1.258-.325-.731 0-1.43-.207-1.668-.494-.226-.271-.661-.414-.967-.317s-.742-.045-.968-.317-.757-.494-1.181-.494-.771-.146-.771-.324-.292-.325-.649-.325-.649-.146-.649-.324-.184-.324-.41-.324-1.168-.511-2.095-1.136-1.826-1.135-1.997-1.135-.358-.118-.418-.262-.786-.725-1.614-1.289-2.142-1.774-2.919-2.688l-2.072-2.361c-.362-.385-.996-1.251-1.411-1.925s-.921-1.409-1.126-1.634c-.593-.65-1.185-1.795-1.185-2.292 0-.251-.219-.54-.487-.643s-.486-.483-.486-.846-.146-.659-.325-.659-.324-.367-.324-.815-.132-1.069-.293-1.379c-1.536-2.955-2.126-13.315-1.048-18.406l.555-2.68c.117-.582.341-1.139.499-1.236s.287-.607.287-1.132.146-.954.324-.954.325-.201.325-.447.219-.628.486-.85.487-.678.487-1.013.146-.609.324-.609.325-.28.325-.622.112-.671.249-.73.83-.909 1.541-1.887c2.778-3.825 5.676-6.672 8.728-8.577 1.885-1.176 6.514-3.422 7.062-3.427.302-.003.639-.151.749-.329s.548-.325.973-.325.863-.146.974-.324.686-.324 1.279-.324a6.55 6.55 0 0 0 2.112-.434c1.373-.578 12.813-.546 13.862.039m63.363.242c1.16.114 2.247.341 2.417.504s.719.297 1.221.297 1.166.129 1.476.286 1.366.547 2.347.868 2.264.849 2.849 1.174 1.216.592 1.401.592.974.438 1.752.973 1.56.974 1.739.974c1.193 0 8.326 8.185 9.894 11.354.309.625.836 1.573 1.172 2.109s.621 1.374.634 1.865.17.892.348.892.325.367.325.816.135 1.069.299 1.378c1.16 2.183 1.155 16.52-.006 17.741-.161.17-.293.717-.293 1.217s-.146.908-.325.908-.324.511-.324 1.136-.129 1.135-.286 1.135-.378.256-.488.568c-2.073 5.846-8.821 12.555-16.095 16.003l-2.672 1.298c-.31.164-.86.298-1.221.298s-.911.138-1.221.307-1.111.394-1.78.501-1.217.334-1.217.505-1.204.309-2.707.309c-1.761 0-3.05.171-3.686.488-.833.416-2.986.476-14.405.406l-13.427-.083-.083-33.675-.082-33.676 15.167.162 17.277.37m131.727 1.045c.375.847 1.108 2.419 1.63 3.493s.949 2.131.949 2.352.146.4.325.4.324.365.324.811.146.811.325.811.324.296.324.659.21.739.466.838.394.367.306.596.067.646.345.924.505.736.505 1.019.134.768.298 1.078c.441.834 1.649 3.613 1.649 3.795 0 .189 1.442 3.418 2.301 5.152.34.686.618 1.383.618 1.548s.365.878.811 1.585.811 1.506.811 1.777.146.493.325.493.324.365.324.812.146.811.325.811.324.221.324.491.133.744.296 1.054c.434.827 2.021 4.352 2.298 5.105.46 1.248.898 2.286 1.779 4.217l1.468 3.244c.905 2.027 1.613 3.525 1.916 4.056.266.466.678 1.428 1.283 3 .868 2.255 2.803 6.704 4.48 10.301 1.986 4.258 2.148 4.766 1.632 5.093-.215.136-2.259.277-4.542.313l-4.15.067-.836-1.845-1.32-2.98c-.609-1.426-2.325-5.167-2.714-5.916a2.78 2.78 0 0 1-.292-1.054c0-.27-.146-.491-.325-.491s-.324-.169-.324-.376-.402-1.225-.892-2.263l-.892-1.887-2.92-.009-30.846-.027c-1.378.017-1.705.14-1.998.75-.629 1.312-1.933 4.298-3.188 7.299l-.854 2.028-.665 1.622c-.175.446-.448 1.064-.605 1.374s-.287.785-.287 1.055-.146.491-.324.491-.325.438-.325.973-.109.987-.243 1.003c-3.826.475-9.13.224-9.227-.437-.106-.715.639-2.571 1.117-2.783.133-.059.243-.461.243-.892s.146-.784.324-.784.325-.221.325-.491.133-.745.297-1.054.532-1.075.82-1.699a26.87 26.87 0 0 1 .803-1.622c.154-.268.573-1.144.93-1.947l1.495-3.334c.465-1.031.845-2.08.845-2.333s.146-.548.325-.659.324-.484.324-.83.146-.63.325-.63.324-.365.324-.811.146-.811.324-.811.325-.221.325-.491c0-.444.218-.966 1.015-2.428.145-.268.5-.998.787-1.622s.657-1.389.82-1.699.298-.784.298-1.055.146-.491.324-.491.324-.18.324-.4.351-1.133.78-2.028c1.065-2.223 2.054-4.47 2.684-6.101.29-.751.651-1.504.803-1.673s.275-.571.275-.892.146-.584.325-.584.324-.365.324-.811.146-.811.324-.811.325-.365.325-.811.146-.812.324-.812.325-.274.325-.609.219-.79.486-1.013.487-.6.487-.84.292-.957.649-1.593.649-1.369.649-1.632.145-.476.324-.476.324-.192.324-.426.273-1.001.606-1.703.857-1.862 1.163-2.575a34.58 34.58 0 0 1 .854-1.861 3.11 3.11 0 0 0 .297-1.217c0-.359.146-.653.324-.653s.325-.211.325-.469.365-1.156.811-1.995.811-1.723.811-1.964.146-.438.324-.438.325-.284.325-.63.146-.72.324-.83.325-.436.325-.724c0-1.453.833-1.709 5.557-1.709h4.483l.681 1.541m36.228 5.379c-.129.327-.234 2.546-.234 4.931 0 3.115-.114 4.41-.406 4.597-.589.377-.421 34.16.171 34.16.315 0 .413-3.564.45-16.302.03-10.299.175-16.839.395-17.761.619-2.603.281-11.289-.376-9.625m-191.421 1.406c-.629.629-.225 50.04.411 50.381 1.078.577 17.727.438 19.756-.165.982-.291 2.137-.416 2.767-.297.765.143 1.231.053 1.594-.311.283-.282.962-.513 1.51-.513s.996-.146.996-.325.357-.324.792-.324.882-.146.993-.324.421-.325.692-.325c2.248 0 10.5-8.017 10.5-10.201 0-.278.146-.504.324-.504s.325-.277.325-.615.234-.704.52-.813.441-.407.344-.66.033-.635.29-.848.468-.808.468-1.322.128-.933.285-.933c.967 0 .967-12.89 0-13.488-.157-.096-.285-.514-.285-.928s-.226-.939-.502-1.168-.43-.601-.343-.827-.053-.586-.31-.799-.467-.662-.467-.997-.146-.609-.325-.609-.324-.292-.324-.649-.11-.649-.245-.649-.435-.429-.668-.953c-1.448-3.272-10.213-9.752-13.189-9.752-.431 0-.873-.146-.983-.325s-1.141-.324-2.29-.324c-1.177 0-2.09-.142-2.09-.324 0-.365-20.183-.472-20.546-.109m22.493 1.256c.981.116 1.923.343 2.092.505s.635.294 1.035.294.818.146.928.324.557.325.992.325.793.109.794.243c.003.305 1.861 1.379 2.386 1.379.214 0 .599.292.856.649s.728.649 1.045.649.577.146.577.324.219.324.487.324.486.153.486.339.803 1.135 1.785 2.109 1.784 1.956 1.784 2.185.292.625.649.882.649.632.649.833c0 .595.995 2.411 1.321 2.411.165 0 .301.503.301 1.117s.146 1.206.324 1.317.325.694.325 1.297.146 1.188.324 1.298c.194.12.324 2.22.324 5.21 0 3.123-.122 5.009-.324 5.009-.178 0-.324.657-.324 1.46s-.146 1.46-.325 1.46-.324.429-.324.954-.142 1.042-.316 1.149-.568.736-.875 1.398-.652 1.276-.765 1.365-.411.636-.664 1.216-.607 1.055-.789 1.055-.62.387-.975.861c-.912 1.218-2.327 2.707-2.573 2.707-.233 0-.834.461-2.01 1.541-.437.402-.999.73-1.248.73s-.543.146-.653.324-.484.325-.83.325-.63.146-.63.324-.283.325-.63.325-.711.132-.811.294-.911.394-1.803.517-1.622.355-1.622.517c0 .17-4.785.294-11.355.294h-11.354v-24.046c0-20.301.069-23.989.444-23.679.338.281.544.247.869-.144.439-.529 15.861-.507 20.423.03m126.52.942c0 .283-.134.768-.298 1.078-.399.755-2.445 5.443-2.935 6.727l-.583 1.46-.87 2.109c-.295.713-.68 1.559-.855 1.878s-.233.722-.126.895-.035.401-.314.508-.507.4-.507.651-.129.71-.286 1.019-.435.929-.616 1.375-.839 1.906-1.463 3.244c-1.302 2.796-1.825 3.996-2.825 6.488l-.978 2.433c-.617 1.531-.626 1.784-.067 1.807 4.428.178 27.428.068 27.552-.132.092-.149.005-.434-.194-.633s-.361-.623-.361-.945-.146-.583-.324-.583-.324-.212-.324-.47-.365-1.156-.811-1.995-.811-1.722-.811-1.963-.146-.439-.325-.439-.324-.365-.324-.811-.146-.811-.325-.811-.324-.365-.324-.811-.146-.811-.324-.811-.325-.263-.325-.584-.122-.722-.272-.892-.888-1.816-1.641-3.658c-1.3-3.183-2.991-7.02-3.631-8.243-.163-.31-.295-.785-.295-1.055s-.146-.491-.325-.491-.324-.274-.324-.609-.219-.791-.487-1.013a1.51 1.51 0 0 1-.486-1.013c0-.335-.146-.609-.325-.609s-.324-.365-.324-.811-.136-.811-.303-.811-.349-.4-.406-.889c-.111-.965-1.238-1.502-1.238-.59m.974 2.777c0 .357.139.649.309.649s.406.51.523 1.135.343 1.135.501 1.135.289.292.289.649.146.649.324.649.324.429.324.954.146 1.044.325 1.155.324.484.324.83.146.63.325.63.324.296.324.659.219.743.487.845.486.463.486.801.146.614.325.614.324.365.324.811.114.811.254.811.454.681.7 1.514c.568 1.921 1.278 3.353 1.665 3.353.166 0 .301.294.301.653a3.46 3.46 0 0 0 .324 1.297l.649 1.289c.179.355.325.817.325 1.027 0 .608 1.071 2.871 1.36 2.871.144 0 .262.365.262.811s.146.811.324.811.324.292.324.649.146.648.325.648.324.219.324.487c0 .424-1.622.487-12.652.487-11.454 0-12.652-.05-12.652-.527 0-.403.102-.442.435-.165.612.508.9.093.443-.638-.319-.511-.264-.693.33-1.11.412-.288.634-.699.528-.976-.101-.262-.022-.477.176-.477s.359-.438.359-.974.146-.973.324-.973.325-.365.325-.811.146-.811.324-.811.325-.292.325-.649.146-.649.324-.649.324-.204.324-.453.364-1.089.808-1.865.808-1.741.811-2.142.113-.731.247-.733c.393-.004 1.054-1.671 1.054-2.657 0-.5.118-.909.262-.909.327 0 1.36-2.299 1.36-3.028 0-.297.146-.54.325-.54s.324-.292.324-.649.146-.649.324-.649.325-.365.325-.811.134-.811.298-.811.395-.434.511-.965.311-.938.431-.904.552-.124.959-.349c.772-.428.666-1.199-.123-.896-.25.096-.454.033-.454-.14a.32.32 0 0 1 .324-.314c.179 0 .325-.292.325-.649s.146-.649.324-.649.325.292.325.649M17.427 276.95c-.345 1.802-1.145 1.72 16.681 1.72h16.521l-.092 3.812-.091 3.812-16.545.162c-12.958.127-16.538.25-16.513.568.018.223.055 4.084.082 8.58.033 5.643.152 8.071.385 7.839.218-.218.303-2.973.243-7.851l-.093-7.515 16.251.001c19.408 0 17.326.662 17.326-5.505 0-5.784 2.015-5.178-17.275-5.19-13.832-.009-16.14-.078-16.14-.478 0-.866-.573-.831-.74.045" fill="#75a09f"/></svg>