<svg xmlns="http://www.w3.org/2000/svg" width="400" height="400" fill-rule="evenodd" xmlns:v="https://vecta.io/nano"><path d="M168.637.34c-.115.187-1.341.373-2.723.415-1.714.051-2.705.279-3.114.716-.33.353-.375.516-.1.362.295-.165.5-.052.5.277 0 .581 1.066.667 1.897.154.266-.165 1.613-.401 2.993-.526s2.735-.408 3.009-.631 1.511-.463 2.748-.536C177.535.354 176.818 0 172.69 0c-2.113 0-3.937.153-4.053.34M199.3.287a8.9 8.9 0 0 0 2.2 0c.605-.092.11-.167-1.1-.167s-1.705.075-1.1.167m24.366-.088c.11.11 1.328.273 2.708.361s2.705.359 2.947.601c.605.605 1.689.55 2.24-.114.356-.429.314-.609-.184-.8-.762-.293-8.001-.337-7.711-.048m8.769.901c-.479.513-.315.544 3.465.642.715.019 1.3.185 1.3.37s.193.216.429.07c.739-.457-.905-1.276-2.878-1.434-1.141-.091-2.027.043-2.316.352m-73.102.794c-1.292.091-2.268.392-2.6.803-.383.471-.392.572-.033.356.322-.193.5-.057.5.385 0 .635.059.632.8-.038.44-.398.8-.584.8-.413s.238.113.529-.128 1.113-.365 1.828-.275c1.092.139 1.223.074.822-.41-.262-.316-.5-.541-.528-.5s-.981.14-2.118.22m79.049.464c-.442.472-.302.516.917.287.791-.148 1.543-.1 1.672.107s.682.328 1.231.268.998.056.998.259.193.249.429.103c.739-.457-.905-1.276-2.878-1.434-1.228-.098-2.024.039-2.369.41m-84.182.719c-2.015.264-2.481.502-1.802.922.338.209.757.204 1.018-.012.243-.202 1.026-.293 1.741-.203 1.092.139 1.223.074.822-.41-.262-.316-.5-.547-.528-.514s-.591.131-1.251.217m90.198.463c-.468.501-.386.551.593.364.784-.15 1.385.015 1.94.532.612.57.934.642 1.345.301.448-.372.419-.534-.167-.938-1.124-.776-3.1-.913-3.711-.259m-48.233.004c.259.418 7.247.378 7.669-.044.164-.165-1.541-.3-3.791-.3s-3.995.155-3.878.344m-47.632.75c-1.158.081-2.28.401-2.549.726-.265.319-1.068.58-1.784.58-1.504 0-2.434.806-1.736 1.504.326.326.604.286 1.042-.153.328-.328.853-.499 1.166-.379s.471.06.351-.135c-.35-.565.827-.821 1.409-.306.439.389.439.349 0-.231-.649-.857.069-.942.775-.091.446.537.572.514 1.073-.201.437-.624.889-.77 1.97-.636 1.183.147 1.329.084.928-.399-.262-.315-.499-.54-.527-.499s-.981.14-2.118.22m101.206.274c.089.237.369.385.623.328s.848.254 1.318.693c.645.6.986.688 1.388.355s.534-.304.538.107c.005.462.061.463.352.004.276-.436.38-.441.517-.029.202.606 2.61.883 2.946.34.286-.462-.337-.688-2.541-.92-.947-.1-1.937-.354-2.2-.564-.723-.575-3.134-.833-2.941-.314M137.6 7.4c-.274.33-1.084.6-1.8.6s-1.526.27-1.8.6-1.084.6-1.8.6-1.517.259-1.78.576-.87.632-1.349.7-.871.394-.871.724c0 .773 1.686.874 1.976.119.121-.316.428-.44.689-.279.325.201.385.068.194-.431-.234-.61-.183-.644.332-.217.381.317.609.346.609.08 0-.234.356-.357.792-.274s.897-.019 1.027-.229.449-.255.709-.099c.269.162.236-.008-.077-.393-.622-.768-.065-.931.669-.197.347.347.48.353.48.023 0-.251.368-.386.818-.3 1.3.251 2.094-.186 1.543-.85-.562-.677.091-.741.759-.073.373.373.48.356.48-.08 0-.429.11-.45.47-.09.491.491 1.53-.025 1.53-.759 0-.603-3.069-.391-3.6.249m120.254-.113c.117.19.569.233 1.003.095.526-.167 1.029.026 1.509.579.704.811.734.813 1.403.074.44-.487.534-.848.263-1.015-.618-.382-4.429-.139-4.178.267m4.174.879c-.563.679-.137 1.034 1.239 1.034.623 0 1.133.208 1.133.462 0 .26.354.142.809-.271.969-.876.683-1.212-1.284-1.51-.949-.143-1.626-.042-1.897.285m3.624 1.171c-.583.703-.18 1.063 1.191 1.063 1.512 0 1.841-.712.555-1.201-1.306-.496-1.213-.504-1.746.138m3.751 1.458c-.14.227.02.294.376.158s.621-.025.621.271c0 .28.114.396.253.257s.589-.073 1 .147c.837.449 1.002-.013.267-.748-.58-.58-2.178-.634-2.517-.085m-144.777 1.163c-.327.529.926.893 1.703.495.369-.19.941-.266 1.271-.168.533.156.533.129 0-.248-.733-.519-2.67-.57-2.974-.079m148.174.04c0 .247.18.338.4.202s.4-.044.4.204.405.394.9.324c1.354-.192 1.081-.911-.4-1.053-.769-.074-1.3.058-1.3.323m2.792 1.011c-.547.66.533 1.106 1.159.48.332-.332.449-.268.449.244 0 .853 1.654 1.563 2.135.917.198-.267.251-.073.131.473-.168.762-.104.84.365.451.354-.294.569-.316.569-.058 0 .227.311.368.692.312s.947.154 1.259.466.901.481 1.308.375.843-.028.968.175a.44.44 0 0 0 .601.139c.204-.127.372-.029.372.217s.16.349.355.228.575.047.845.372.621.511.78.412.723.125 1.252.496 1.198.708 1.485.75.802.309 1.143.592.888.554 1.215.602.909.372 1.293.719.817.51.964.363.268-.047.268.223.16.392.355.271.575.047.845.372.655.49.855.366.315.013.255.304.16.535.49.541a2.53 2.53 0 0 1 1.1.323c.275.172.511.168.525-.01s.193.093.397.602.553.813.775.676.403-.089.403.108.275.357.611.357c.436 0 .3-.324-.475-1.134-.597-.623-1.39-1.133-1.762-1.133s-.9-.27-1.174-.6-.814-.6-1.2-.6-.926-.27-1.2-.6-.814-.6-1.2-.6-.926-.27-1.2-.6-.814-.6-1.2-.6-.926-.27-1.2-.6-.814-.6-1.2-.6-.926-.27-1.2-.6-.814-.6-1.2-.6-.926-.27-1.2-.6-.825-.6-1.225-.6-.825-.157-.943-.348c-.851-1.377-7.948-3.876-8.64-3.043M120.8 13.4c-.274.33-.814.6-1.2.6s-.926.27-1.2.6-.825.6-1.225.6-.839.18-.975.4-.071.4.144.4.675.109 1.023.243c.427.164.633.017.633-.449 0-.566.108-.602.593-.2.479.398.863.334 1.989-.33.93-.549 1.485-.68 1.662-.393.173.28.395.202.631-.22.201-.358.626-.651.945-.651s.58-.199.58-.443-.279-.335-.621-.204c-.356.136-.516.069-.376-.158.399-.646-2.057-.453-2.603.205m-6.937 3.27c-.118.119-.006.439.25.713.416.445 1.487-.037 1.487-.669 0-.238-1.506-.275-1.737-.044m-4.879 2.555c-.127.206.129.375.569.375 1.043 0 1.424-.616.427-.692-.42-.031-.868.111-.996.317m-4.774 2.359c-.341.551.9.807 1.34.276.299-.36.201-.509-.363-.551-.424-.032-.864.092-.977.275m-2.476 1.443c-.132.345-.026.84.237 1.1.368.365.41.298.183-.296-.228-.6-.152-.716.343-.526.369.142.73.002.857-.33.147-.382-.048-.575-.579-.575-.44 0-.908.282-1.041.627m-3.159 1.825c-.957 1.019-1.012 1.168-.299.799.651-.337.947-.337 1.155-.001.191.31.396.244.649-.207.203-.363.538-.555.745-.428s.375-.138.375-.591c0-1.232-1.26-1.026-2.625.428m-2.749 1.506c-.122.197.048.461.376.588s.598.044.598-.182.208-.283.462-.126c.286.177.353.11.176-.176-.339-.548-1.299-.61-1.612-.104m206.974.066c0 .233.18.312.4.176s.4-.046.4.2.16.349.355.228.575.047.845.372.638.5.818.389.44-.019.578.204.05.407-.196.407-.328.192-.183.427.516.331.823.213.56-.03.56.196.167.308.371.182.491.147.637.606.369.732.496.605.592.085 1.032.47c.594.519.724.545.503.101-.265-.533-.239-.533.233 0 .292.33.8.659 1.129.731.34.074.09-.403-.576-1.1-.646-.677-1.467-1.231-1.825-1.231s-1.172-.545-1.81-1.21-1.374-1.128-1.637-1.027-.793-.165-1.177-.59c-.756-.835-1.776-1.036-1.776-.349M92.889 28.189c-.755.784-.796.961-.269 1.163.406.156.522.078.335-.225s-.073-.381.321-.23c.477.183 1.924-.881 1.924-1.416 0-.519-1.603-.027-2.311.708m-3.155 2.038c-.366.956.364 1.395 1.242.746.428-.315.552-.573.277-.573s-.389-.18-.253-.4-.039-.4-.389-.4-.744.282-.877.627m-3.449 2.182l-1.516 1.54 1.116-.119c.652-.069 1.169-.392 1.245-.779.072-.363.295-.559.496-.435s.257-.056.125-.4c-.168-.438-.062-.557.353-.398.326.126.686-.016.8-.313.434-1.129-1.159-.579-2.619.904m226.115-.18c0 .418 1.304 1.539 1.891 1.626.319.046.968.409 1.444.805s.153-.041-.716-.97c-1.38-1.475-2.619-2.166-2.619-1.461m-230.311 3.16c-.755.784-.796.961-.269 1.163.406.156.522.078.335-.225s-.068-.379.359-.215c.459.176.579.075.417-.349-.126-.328-.072-.567.12-.532.7.128 1.349-.039 1.349-.346 0-.689-1.471-.368-2.311.504m235.111.635c0 .233.18.312.4.176s.4-.057.4.176.217.379.482.324.49.153.5.462.354.611.766.671c.616.091.55-.096-.375-1.061-1.128-1.178-2.173-1.537-2.173-.748M77.901 38.393c-1.187 1.205-1.37 1.572-.879 1.76.341.131.522.08.403-.112-.253-.41.741-1.342 1.075-1.007.125.124.343-.138.484-.583.144-.453.49-.721.785-.608.29.112.621-.041.735-.338.432-1.124-1.156-.582-2.603.888m243.177-.137c-.415.414.1.927.699.698.327-.126.661.136.823.647.15.473.377.755.504.628s.606.08 1.064.46.12-.07-.749-.999c-1.608-1.718-1.887-1.889-2.341-1.434M72.5 42.598c-2.109 2.132-2.437 2.747-1.705 3.199.235.145.289-.034.132-.442-.197-.516-.122-.604.305-.356.312.181.435.182.271.002-.405-.448.486-1.455 1.004-1.135.261.161.294.06.089-.272-.24-.388-.143-.459.359-.267.408.157.587.103.442-.132-.134-.217-.066-.395.152-.395s.514-.369.658-.821c.196-.62.388-.715.78-.39.438.364 1.013-.167 1.013-.937 0-.741-1.871.299-3.5 1.946m252.517-.626c-.126.205-.047.486.176.624s.407.129.407-.021.288-.034.64.258.92.573 1.26.623.766.328.945.617c.797 1.294 1.36 1.927 1.712 1.927.209 0 .754.308 1.212.685s-.424-.613-1.958-2.2c-2.608-2.697-3.843-3.404-4.394-2.513M68.184 45.625c-.127.206-.133.535-.012.73s-.074.33-.433.3-.742.215-.851.545-.054.467.12.303.515-.147.755.036c.259.197.723.032 1.137-.403.423-.444.511-.736.224-.736-.263 0-.161-.231.225-.513.656-.48.648-.517-.116-.575-.449-.033-.921.107-1.049.313M56.9 56.942c-8.381 8.408-8.484 8.525-7.518 8.525.321 0 .471-.181.335-.402-.146-.236.017-.299.397-.153.475.182.58.077.398-.398-.179-.464-.099-.553.282-.318s.435.175.202-.202-.146-.461.318-.282c.418.16.578.072.454-.251s.188-.487.92-.466c1.35.04 3.532-1.903 2.385-2.124-.37-.071-.673-.316-.673-.543s.248-.319.55-.202c.341.13.531-.044.5-.458-.029-.386.223-.648.597-.621.364.026.626-.236.6-.6s.235-.627.6-.6.626-.236.6-.6.235-.627.6-.6.626-.236.6-.6c-.027-.374.235-.626.621-.597.414.031.588-.159.458-.5-.117-.302-.026-.55.202-.55s.472.303.543.673c.11.57.304.512 1.266-.379.624-.579 1.024-1.233.888-1.453s.118-.596.564-.835.811-.708.811-1.044c0-.359-.19-.492-.462-.324-.295.183-.353.109-.159-.203a.73.73 0 0 1 .841-.283c.365.14.459-.001.292-.438-.146-.38-.083-.543.153-.397.221.136.402-.014.402-.335 0-1.001-.273-.761-8.567 7.56m276.955-7.652c.11.177.368.219.573.093s.372.16.372.636c0 .619.177.798.621.628.341-.131.533-.096.426.077-.343.556.451 1.401 1.416 1.507.515.056.988.117 1.051.136s-.089.412-.337.876c-.605 1.131.097 1.845.86.874.513-.654.501-.668-.137-.168-.385.302-.7.366-.7.143 0-.477 1.019-.939 1.347-.612.124.124.038.575-.191 1.003-.375.7-.334.733.414.333.837-.448.889-.422.98.484.028.275.32.5.65.5a.6.6 0 0 1 .6.6.6.6 0 0 0 .6.6.6.6 0 0 1 .6.6.6.6 0 0 0 .6.6.6.6 0 0 1 .6.6c0 .33.27.604.6.609.353.005.549.303.477.723-.086.499.095.677.6.591s.686.092.6.6c-.084.496.091.684.559.6.492-.089.728.212.848 1.077.187 1.359.912 2.284 1.192 1.522.097-.262.479-.373.85-.247s-2.821-3.289-7.092-7.592c-4.688-4.723-8.046-7.802-8.473-7.77-.388.029-.616.199-.506.377M66.86 55.042c-.298.336-.461.69-.365.787s.503-.185.903-.627.563-.795.364-.787-.605.29-.902.627m265.742.16c.4.442.809.72.91.619.216-.216-.924-1.421-1.345-1.421-.16 0 .036.361.435.802M46.099 67.764c-.495.523-.939 1.407-.985 1.965s-.192.982-.325.943c-.468-.139-4.19 3.872-4.233 4.561-.028.448.16.62.523.481.312-.119.478-.449.369-.733s.07-.618.398-.743c.374-.144.493-.062.319.218-.167.271-.057.371.279.254.306-.106.499-.507.429-.892-.074-.41.048-.59.296-.437.265.164.324.006.158-.426-.192-.502-.121-.599.267-.359.377.233.435.175.202-.202s-.146-.461.318-.282c.453.174.579.075.423-.332-.161-.419.08-.58.869-.58.921 0 1.015-.093.598-.595-.4-.482-.372-.642.149-.842.353-.136.553-.392.443-.569-.472-.764.275-1.632.951-1.104.567.443.588.426.156-.127-.273-.35-.378-.755-.233-.9s.098-.26-.103-.256-.772.435-1.268.957m306.568.503c-.143.143-.06.501.185.796s.289.558.097.584.191.171.851.323 1.155.489 1.1.752.11.478.367.478.343.123.193.274.304.87 1.011 1.6 1.139 1.326.958 1.326c-.588 0 .715 1.275 1.679 1.641.517.197.837.525.71.729s.133.487.576.628.806.434.806.653-.199.273-.441.123-.123.214.266.808c.639.975.746 1.012 1.098.383.316-.564-.002-1.072-1.67-2.663-1.133-1.081-1.947-2.149-1.809-2.373s-.654-1.335-1.76-2.468-2.073-2.406-2.148-2.828-.386-.85-.692-.952c-.384-.128-.453-.015-.223.367.272.451.22.461-.281.055-.337-.273-.73-.379-.873-.236m-129.57.938c-31.564 2.404-59.263 19.095-75.689 45.611-12.264 19.797-18.376 50.22-10.966 54.584 2.142 1.262 183.641 1.262 186.147 0 3.38-1.702 3.928-5.595 2.418-17.2-6.435-49.467-52.247-86.776-101.91-82.995M38.9 77.363c-1.027 1.084-1.187 1.922-.302 1.583.328-.127.51-.371.404-.543-.264-.427.801-1.267 1.156-.912.156.157.166-.025.02-.403-.321-.838-.198-.864-1.278.275m323.5 2.742c0 .418 1.992 2.436 2.2 2.229.105-.106-.346-.708-1.004-1.338s-1.196-1.031-1.196-.891m-327.131 2.09c-.512.54-.834 1.139-.715 1.33s-.692 1.275-1.8 2.406c-2.117 2.162-2.745 4.231-.754 2.485.55-.482.775-.763.5-.623s-.5.149-.5.021.461-.409 1.024-.623.923-.554.799-.754c-.324-.524.191-1.675.629-1.405.202.125.344.079.315-.102-.134-.829.584-2.158 1.065-1.973.353.135.445-.011.28-.443-.164-.427-.091-.548.215-.359s.381.071.226-.334c-.293-.762-.173-.797-1.284.374m332.879 6.237c.36.567.519 1.167.353 1.333s-.031.242.299.168.565.062.522.3.182.434.5.434c.886 0 .706-.388-.875-1.889-1.195-1.133-1.337-1.194-.799-.346M29.867 89.867c-.147.146-.261.551-.254.9.011.546.086.536.544-.067.587-.773 1.258-.972.805-.238-.178.288-.11.353.183.172.257-.159.364-.457.238-.662-.267-.432-1.129-.492-1.516-.105M370.474 92c.324.55.555 1.405.512 1.9s.098.9.311.9.273-.301.132-.668-.068-.784.162-.926c.25-.155-.009-.649-.644-1.232L369.885 91l.589 1M28.1 92.963c-1.214 1.281-1.171 2.237.1 2.237.55 0 1-.191 1-.424s-.225-.296-.5-.141c-.385.217-.392.166-.031-.225.258-.279.362-.785.232-1.124-.155-.403-.076-.518.226-.331s.381.071.226-.334c-.292-.761-.177-.792-1.253.342m344.589 2.25c.277.365.327.837.124 1.165-.35.567.376 1.622 1.116 1.622.212 0 .489.27.616.6s.447.6.712.6c.277 0 .133-.384-.336-.9-.451-.495-.749-1.09-.662-1.323s-.337-.863-.939-1.4-.887-.701-.631-.364m-346.521.925c-.155.406-.053.921.238 1.189.375.347.442.349.25.007-.143-.256-.086-.526.129-.6.241-.083.25-.359.024-.723-.311-.5-.407-.481-.641.127M24.589 98.9c-1.152 1.314-1.176 2.525-.035 1.755.465-.314.789-.878.719-1.253-.074-.398.049-.574.296-.421.256.158.328.017.184-.36-.297-.774-.226-.791-1.164.279m350.83 1.87c-.147.236-.065.43.181.43s.333.184.194.41-.015.36.276.3.495.085.452.323.182.434.5.434c.824 0 .718-.396-.38-1.427-.613-.576-1.053-.745-1.223-.47m-352.752 1.097c-.608.607-.246 1.733.557 1.733.453 0 .72-.168.593-.372s-.044-.488.183-.628.309-.423.183-.628c-.267-.432-1.129-.492-1.516-.105m354.707 1.998c.062.404-.087.868-.331 1.031s.052.259.657.213c1.302-.099 1.365-.345.33-1.282-.733-.663-.764-.661-.656.038m-355.887.381c-.519.52-.3 1.754.313 1.754.651 0 .694-.218.259-1.321-.156-.396-.413-.591-.572-.433m357.241 2.001c.244.466.36.931.258 1.034s.084.186.414.186c.831 0 .75-.41-.258-1.305-.85-.755-.854-.754-.414.085m-358.379.253c-.369.722-.156 1.838.282 1.475.287-.239.423-.69.302-1.004-.199-.52-.454-.726-.584-.471m-1.282 2.567c-.415.415-.314 1.733.133 1.733.22 0 .4-.45.4-1 0-1.047-.092-1.174-.533-.733m362.061 1.98c.244.466.36.931.258 1.034s.084.186.414.186c.831 0 .75-.41-.258-1.305-.85-.755-.854-.754-.414.085m-363.179.253c-.369.722-.156 1.838.282 1.475.287-.239.423-.69.302-1.004-.199-.52-.454-.726-.584-.471m-1.262 2.546c-.519.52-.3 1.754.313 1.754.651 0 .694-.218.259-1.321-.156-.396-.413-.591-.572-.433m366.815 1.954c.464.886.498 1.037.498 2.224 0 .527.169.719.468.534.327-.202.38-.058.176.476-.207.544-.167.643.137.341.611-.605.079-2.799-.885-3.655-.789-.699-.8-.697-.394.08m-368.068.545c-.117.189-.257.92-.31 1.623s-.329 1.47-.611 1.704c-.701.582-.654 1.557.062 1.282a.61.61 0 0 0 .358-.784c-.119-.31.088-.68.459-.822.465-.179.531-.348.212-.546-.334-.206-.288-.461.166-.915.347-.347.63-.833.63-1.082s.208-.324.462-.167c.286.177.353.11.176-.176-.335-.542-1.298-.612-1.604-.117m369.604 3.594c-.128.207.061.49.422.629.884.339 1.09.055.385-.53-.342-.284-.668-.324-.807-.099m1.07 2.481c-.032.429.098.78.29.78.457 0 1.055 1.655 1.152 3.187.031.487.257.709.591.58.658-.252.407-1.946-.385-2.604-.306-.253-.556-.777-.556-1.163 0-1.051-1.016-1.777-1.092-.78m-373.016-.178c-.161.16-.292.567-.292.905 0 .45.118.495.445.168.245-.245.376-.652.292-.905s-.285-.329-.445-.168m-1.225 2.425c-.147.146-.267.667-.267 1.157s-.25.986-.555 1.103c-.823.316-1.023 3.405-.258 3.983.337.255.478.304.312.109s.015-.715.4-1.155c.519-.594.545-.724.101-.503s-.434.161.047-.236c.542-.449.559-.617.104-1.042-.62-.579.905-3.419 1.603-2.988.203.126.241.021.084-.233-.314-.508-1.154-.613-1.571-.195m376.789 3.611c-.437.436-.283.789.344.789.33 0 .6-.14.6-.31 0-.451-.645-.778-.944-.479M9.409 132.143l-.385 1.228c-.097.314.117.809.477 1.1.402.326.544.347.369.057-.156-.26-.111-.579.099-.709s.309-.616.219-1.082c-.222-1.151-.527-1.384-.779-.594M8.354 135.3c-.259.569-.225 2.3.046 2.3.577 0 .848-.723.379-1.013-.238-.147-.337-.52-.219-.827.169-.441-.021-.865-.206-.46m-1.256 3.735c-.43.43-.367 2.165.078 2.165.573 0 .723-.502.459-1.531-.131-.513-.373-.798-.537-.634m-1.02 3.447c-.588.588-.613 2.308-.046 3.118.326.466.362.392.158-.329-.167-.59-.038-1.176.354-1.609.74-.818.296-1.942-.466-1.18m387.648 1.824c-.005.382.235 1.049.533 1.483.518.756.541.745.541-.251 0-.572-.24-1.239-.533-1.483-.41-.339-.535-.281-.541.251M4.92 146.081c-.225.285-.526 1.412-.669 2.503s-.437 2.162-.655 2.38-.396 1.201-.396 2.185-.247 2.072-.549 2.42c-.898 1.034-1.254 6.831-.419 6.831.547 0 .577-.108.168-.6-.397-.479-.397-.6 0-.6.377 0 .365-.164-.051-.677-.405-.499-.414-.595-.033-.366.39.234.453.058.257-.723-.173-.687-.097-1.034.226-1.034.268 0 .383-.269.256-.6s-.02-.6.238-.6c.349 0 .346-.121-.013-.48-.68-.68-.598-1.316.094-.741.483.401.549.272.412-.809-.089-.706-.038-1.484.115-1.727s.317-.71.366-1.036.264-.651.478-.722.312-.754.217-1.517.086-1.888.404-2.502c.636-1.23.278-2.502-.446-1.585m389.631 1.726c.481.356.675.852.538 1.375-.118.451-.051.718.148.595s.363-.034.363.199-.225.427-.5.43c-.362.005-.348.103.051.355.303.192.428.55.277.794s-.09.445.136.445.314.252.196.56-.019.68.219.827.331.436.204.64.066.777.427 1.272c.741 1.015.557-2.593-.218-4.299-.2-.44-.513-1.414-.694-2.164-.22-.907-.593-1.401-1.114-1.475-.762-.107-.763-.095-.033.446m2.819 11.543c.016.754.165 1.288.33 1.187s.3-.009.3.206-.216.462-.48.55c-.287.096-.186.273.253.441.662.254.706.118.459-1.426-.344-2.154-.903-2.774-.862-.958m.811 3.717c.042.403.217 1.048.39 1.433s.202.993.065 1.351-.086.853.114 1.1.465.809.589 1.249.129-.46.01-2-.446-3.04-.729-3.333c-.425-.44-.501-.406-.439.2m-397.119.032c-.396.641-.4 4.523-.005 4.918.28.28.426.247.46-.104l.283-2.58c.207-1.847-.205-3.095-.738-2.234m-.799 5.571c-.145.145-.263 1.703-.263 3.463s.109 3.092.242 2.959.229-1.243.215-2.467c-.015-1.265.149-2.225.382-2.225.224 0 .306-.165.182-.366s-.025-.433.22-.514c.293-.098.247-.315-.134-.631-.319-.265-.699-.364-.844-.219m399.079 3.492c.032.529.193.878.358.776.424-.261.375-1.738-.058-1.738-.196 0-.331.433-.3.962M4.093 182c0 .77.082 1.085.183.7s.1-1.015 0-1.4-.183-.07-.183.7m391.6 0c0 .77.082 1.085.183.7s.1-1.015 0-1.4-.183-.07-.183.7M3.2 200c0 3.593.108 6.425.241 6.293.329-.329.349-12.237.021-12.564-.144-.144-.262 2.678-.262 6.271m393.162-6.3c-.216.569-.086 12.424.138 12.562.165.102.3-2.705.3-6.238 0-5.298-.128-7.142-.438-6.324m3.382 6.3c0 2.09.068 2.945.15 1.9a29.38 29.38 0 0 0 0-3.8c-.082-1.045-.15-.19-.15 1.9M.093 203.2c0 .77.082 1.085.183.7s.1-1.015 0-1.4-.183-.07-.183.7m4 14.8c0 .77.082 1.085.183.7s.1-1.015 0-1.4-.183-.07-.183.7m391.6 0c0 .77.082 1.085.183.7s.1-1.015 0-1.4-.183-.07-.183.7M0 229.357c0 1.092.161 1.791.38 1.655.403-.249.303-2.862-.126-3.291-.14-.14-.254.596-.254 1.636m398.857 1.803c-.378.237-.408.423-.1.614.244.15.443.453.443.673s-.155.305-.344.188-.295.232-.235.776-.026.989-.19.989-.298.228-.298.507-.127 1.014-.282 1.633c-.237.943-.167 1.103.432.987.547-.105.787-.7 1.024-2.532.401-3.12.265-4.282-.45-3.835M1 232.541c-.496.57-.148 4.282.4 4.269.448-.011.545-1.566.217-3.469-.153-.891-.334-1.125-.617-.8m1.179 5.825c.124.201.034.43-.201.508-.548.183.073 4.162.631 4.042s.74-1.716.199-1.716c-.292 0-.324-.221-.091-.638.424-.757.151-2.562-.387-2.562-.208 0-.275.165-.151.366m395.805.034c-.043.33-.045.843-.005 1.14s-.094.436-.3.309c-.213-.132-.345.457-.306 1.36.038.875-.086 1.591-.276 1.591s-.231.183-.093.407c.675 1.091 1.851-3.427 1.27-4.879-.16-.401-.23-.384-.29.072M3.4 244.48c-.447.491-.292 3.898.205 4.52.176.22.45 1.3.608 2.4s.475 2.234.704 2.521.528 1.186.665 2c.198 1.177.409 1.455 1.034 1.362.512-.076.617-.002.302.213-.801.547-.126 4.004.684 3.503.381-.235.372-1.799-.009-1.799-.131 0-.249-.405-.262-.9-.033-1.19-.548-2.7-.922-2.7-.164 0-.216-.429-.116-.953s-.015-1.075-.255-1.224-.438-.674-.438-1.167-.216-1.112-.48-1.376c-.304-.304-.324-.48-.055-.48.603 0 .145-2.021-.516-2.275-.299-.115-.453-.358-.34-.539s.016-.447-.215-.59c-.246-.152-.313-.823-.162-1.627.273-1.454.206-1.591-.432-.889m393.021.544c-.317.647-.606 1.467-.642 1.822s-.202.867-.369 1.138c-.207.335-.07.448.425.352.485-.093.841-.672 1.06-1.727.463-2.231.228-3.017-.474-1.585m-1.206 4.758c-.266.321-.379.752-.252.959s-.037.478-.365.605c-.767.294-.774 1.301-.011 1.594.731.28.852.076 1.202-2.04.301-1.82.189-2.038-.574-1.118m-1.12 4.247c-.171 1.733-.245 1.971-.611 1.971-.21 0-.154.274.124.609.413.499.404.57-.052.395-.396-.152-.587.164-.659 1.091-.181 2.336-.263 2.705-.606 2.705-.186 0-.217.196-.069.435.414.671.899-.087 1.045-1.635.073-.77.346-1.58.606-1.8.594-.503 1.126-4.03.651-4.323-.194-.12-.387.129-.429.552m-2.626 7.871c-.099.165-.151.75-.118 1.3s-.249 1.342-.63 1.76c-.403.442-.638 1.221-.563 1.865.102.877-.004 1.057-.514.866-.564-.211-.574-.155-.081.451.713.876 1.136.441 1.304-1.342.073-.77.337-1.58.587-1.8.579-.511.954-2.6.467-2.6-.203 0-.257-.18-.121-.4s.157-.4.047-.4-.28.135-.378.3m-383.202.367c-.398.397-.322 2.052.105 2.316.205.126.498.027.652-.221s.049-.593-.231-.766-.399-.603-.264-.956c.262-.681.172-.808-.262-.373m1.087 3.91c-.303.788-.042 1.869.446 1.849.503-.02.624-1.626.122-1.626-.203 0-.258-.18-.122-.4s.141-.4.011-.4-.336.259-.457.577m1.313 3.29c-.398.397-.322 2.052.105 2.316.205.126.486.047.624-.176s.076-.407-.137-.407-.339-.45-.279-1c.119-1.079.093-1.139-.313-.733m378.237.727c-.291.331-.341.66-.12.796.207.128.571-.133.81-.579.494-.924.054-1.062-.69-.217m-.809 1.835c-.173 1.756-.243 1.889-.862 1.658-.551-.206-.561-.148-.076.447.494.608.472.653-.2.4-.693-.26-.706-.22-.157.468.337.422.383.621.105.455-.359-.216-.455.034-.353.918.082.698-.091 1.408-.405 1.669-.301.25-.547.64-.547.867s.36.087.8-.311.801-1.101.802-1.562.242-1.296.534-1.856c.692-1.325 1.12-3.5.737-3.737-.166-.103-.336.161-.378.584m-376.565.174c-.353.354.266 3.201.677 3.113.558-.12.742-1.716.197-1.716-.248 0-.34-.18-.204-.4s.046-.4-.2-.4-.336-.18-.2-.4c.258-.418.081-.548-.27-.197m1.023 3.473c-.162.262-.093.544.154.626s.339.453.207.824-.099.545.076.387c.447-.404.611-2.313.198-2.313-.187 0-.473.214-.635.476m1.447 3.7c0 .739.668 1.161.996.631.138-.224.05-.407-.196-.407s-.336-.18-.2-.4.057-.4-.176-.4-.424.259-.424.576m1.354 2.401c-.299.778.004 2.039.47 1.957.207-.037.403.378.435.923a3.25 3.25 0 0 0 .7 1.698c.353.389.641.987.641 1.328s.27.843.6 1.117.6.814.6 1.2.27.926.6 1.2.6.814.6 1.2.27.926.6 1.2.6.814.6 1.2.27.926.6 1.2.6.814.6 1.2.27.926.6 1.2.6.802.6 1.174.51 1.165 1.133 1.762c.81.775 1.134.911 1.134.475 0-.336-.161-.611-.357-.611s-.238-.192-.093-.427-.113-.525-.572-.645-.745-.366-.634-.546.03-.433-.18-.563-.31-.609-.222-1.064c.117-.609-.001-.767-.446-.596-.332.127-.502.066-.377-.136s.052-.476-.162-.608-.302-.468-.195-.747-.255-.929-.805-1.445-.904-1.093-.788-1.281.01-.342-.236-.342-.349-.16-.228-.355-.047-.575-.372-.845-.493-.65-.372-.845.018-.355-.228-.355-.349-.16-.228-.355-.047-.575-.372-.845-.493-.65-.372-.845.018-.355-.228-.355-.349-.16-.228-.355-.038-.568-.353-.829-.462-.761-.327-1.111c.181-.471.097-.547-.324-.294-.485.292-.488.243-.019-.334.387-.478.41-.677.076-.677-.26 0-.374-.16-.253-.355.258-.417-.737-1.346-1.077-1.006-.128.127-.181-.234-.119-.804.125-1.138-.077-1.358-.422-.458m368.825.189c.124.201.009.438-.257.527-.359.119-.364.234-.022.445.262.162.646-.064.894-.527.352-.657.313-.811-.204-.811-.35 0-.535.165-.411.366m-.706 1.879c.152.397.101.586-.122.448-.212-.131-.412.155-.445.635-.058.851-.045.853.517.096.679-.914.721-1.288.182-1.621-.235-.145-.289.034-.132.442M375.733 299c0 .33.131.6.291.6s.394-.27.521-.6c.132-.344.008-.6-.291-.6-.286 0-.521.27-.521.6m-1.533 2.081c-.768.602-.769.616-.022.356.851-.297-.114 1.136-1.261 1.874-.266.17-.371.605-.232.965.149.388.087.554-.15.407-.221-.136-.402.014-.402.335s.06.582.134.582c.347 0 1.733-1.655 1.733-2.069 0-.257.286-.784.635-1.17.968-1.069.616-2.104-.435-1.28M26 303.338c0 .296.348.853.773 1.238s.691.914.59 1.177.361.999 1.027 1.637 1.21 1.449 1.21 1.804.76 1.355 1.69 2.225 1.366 1.192.97.716-.765-1.165-.818-1.532-.356-.83-.67-1.029-.397-.365-.183-.368-.014-.288-.507-.633-.792-.795-.665-1 .06-.373-.149-.373-.354-.315-.324-.7c.038-.474-.183-.659-.684-.573-.407.069-.634-.045-.505-.255s-.03-.602-.355-.872-.493-.65-.372-.845.018-.355-.228-.355-.336-.18-.2-.4.057-.4-.176-.4-.424.242-.424.538m344.75 3.729c-.027.073-.088.268-.135.433-.288 1.023-.748 1.665-1.057 1.474-.197-.122-.358-.065-.358.127s-.367.742-.816 1.224-.618.875-.376.875.326.183.188.407-.389.321-.557.217-.306.073-.306.394c0 .797.05.773 1.654-.831.777-.778 1.413-1.773 1.413-2.213s.256-.897.569-1.017c.785-.302 1.081-1.224.393-1.224-.309 0-.584.06-.612.134M33.2 314.138c0 .296.348.853.773 1.238s.692.911.592 1.171.621 1.257 1.6 2.219c1.279 1.255 1.75 1.534 1.67.991-.061-.416-.364-.761-.673-.766-.322-.005-.508-.321-.435-.74.075-.433-.046-.625-.296-.47s-.331.024-.199-.32c.122-.319.03-.699-.205-.844s-.427-.063-.427.183-.183.334-.407.196-.315-.398-.204-.578-.064-.548-.389-.818-.493-.65-.372-.845.018-.355-.228-.355-.336-.18-.2-.4.057-.4-.176-.4-.424.242-.424.538m332.382.273c-.299.185-.227.363.217.533.882.339.884.338 1.12-.277.217-.567-.586-.72-1.337-.256m-2.133 2.997c-.339.339-.502.909-.364 1.269.161.419.092.556-.189.382-.243-.15-.546-.102-.675.107s-.052.491.171.629c.399.247 2.408-1.613 2.408-2.23 0-.661-.759-.749-1.351-.157m-325.26 3.81c-.177.287.623 1.354 2.042 2.727 1.283 1.24 2.026 1.881 1.651 1.424s-.682-1.043-.682-1.3-.225-.424-.5-.369-.455-.125-.4-.4-.091-.5-.324-.5-.327-.156-.209-.347-.124-.652-.537-1.026c-.546-.494-.83-.551-1.041-.209m323.207.282c-.159.495-.544.9-.855.9s-.678.315-.814.7c-.344.968-1.375 2.117-1.714 1.908-.154-.095-.28.089-.28.41 0 .813-.005.816 2.269-1.459 1.271-1.27 1.973-2.289 1.862-2.7-.143-.525-.238-.476-.468.241m-4.89 6.226c-.27.593-.629 1.057-.799 1.029-.896-.145-1.259.105-1.026.711.147.383.091.564-.132.426-.213-.132-.649-.074-.968.128-.434.275-.449.369-.057.374.288.003.41.189.272.413s-.389.321-.557.217-.306.073-.306.394c0 .813-.005.816 2.269-1.459 1.123-1.122 1.986-2.326 1.919-2.676-.086-.445-.271-.312-.615.443M42.8 327.438c0 .214 1.029 1.373 2.287 2.576s1.978 1.812 1.6 1.355-.687-1.003-.687-1.212-.384-.645-.854-.969-1.189-.937-1.6-1.363-.746-.601-.746-.387m11.6 4.71c0 .159.45.738 1 1.288s1 .844 1 .652-.45-.771-1-1.288-1-.81-1-.652m-5.487 2.213c-.032.427 3.047 3.785 7.77 8.473 4.303 4.271 7.719 7.463 7.592 7.092s-.015-.758.247-.86c.296-.115.039-.578-.674-1.217-.992-.888-1.848-1.074-1.848-.402 0 .11.168.097.372-.03a.44.44 0 0 1 .602.141c.184.298-.338.328-1.288.073-.063-.017.086-.405.33-.861.4-.748.367-.789-.333-.414-.903.483-1.325.219-1.001-.625.159-.414 0-.552-.528-.461-.54.093-.719-.075-.631-.593.086-.505-.092-.686-.591-.6-.42.072-.718-.124-.723-.477-.005-.33-.279-.6-.609-.6a.6.6 0 0 1-.6-.6.6.6 0 0 0-.6-.6.6.6 0 0 1-.6-.6c0-.33-.225-.622-.5-.65-.906-.091-.932-.143-.484-.98.404-.755.371-.791-.361-.399-1.08.578-1.458-.11-.559-1.016.672-.678.668-.696-.096-.403-1.369.526-1.479.479-1.617-.682-.18-1.507-.871-2.27-2.056-2.27-.536 0-.871-.168-.744-.372s.084-.463-.093-.573-.348.118-.377.506m3.629 2.601c.032.529.182.885.333.792.349-.216.246-1.754-.118-1.754-.15 0-.246.433-.215.962m294.902.493c.154.846.078.895-.838.547-.648-.246-1.006-.244-1.006.008 0 .214-.27.39-.6.39a.6.6 0 0 0-.6.6c0 .33-.176.6-.39.6-.251 0-.254.357-.01 1 .209.55.295 1.023.19 1.05s-.415.073-.69.1-.5.32-.5.65a.6.6 0 0 1-.6.6.6.6 0 0 0-.6.6.6.6 0 0 1-.6.6c-.33 0-.604.27-.609.6-.009.628-1.483.618-1.716-.012-.153-.413-1.675 1.052-1.675 1.612 0 .22-.264.4-.587.4-.358 0-.498.235-.358.6.146.38-.005.6-.412.6-.376 0-.643.332-.643.8 0 .44-.013.931-.03 1.09-.12 1.163 1.65-.28 7.416-6.046 7.336-7.336 6.976-6.882 5.652-7.135-.826-.157-.938-.052-.794.746m-.244 1.067c0 .066-.63.732-1.4 1.478s-1.4 1.245-1.4 1.109.554-.801 1.231-1.478c1.122-1.122 1.569-1.438 1.569-1.109m-8.196 8.274c-.63.658-1.224 1.118-1.319 1.022-.184-.184 1.878-2.218 2.248-2.218.119 0-.299.538-.929 1.196m-268.415 8.739c1.534 1.576 3.116 2.865 3.516 2.865.957 0-.509-1.695-1.606-1.856-.895-.131-2.175-1.698-1.835-2.247.143-.232.073-.305-.155-.164s-.931-.13-1.562-.603.108.43 1.642 2.005m260.435-2.296c.104.168.006.419-.217.557s-.41.016-.413-.272c-.005-.382-.109-.362-.383.073-.634 1.002.25 1.342 1.149.443.997-.997 1.022-1.107.258-1.107-.321 0-.498.138-.394.306m-2.248 1.361a14.66 14.66 0 0 1-.167 1.072c-.085.441.063.598.43.458.658-.253.689-.513.161-1.33-.213-.33-.404-.42-.424-.2m-2.564 2.7c-.581.826-.579.912.029 1.039.683.144 1.342-.557 1.353-1.439.01-.787-.689-.585-1.382.4m-250.729 1.365c-.445.721 3.135 3.876 3.907 3.444.594-.332.546-.459-.408-1.084-.594-.389-.958-.509-.808-.266s.095.441-.123.441-.512-.363-.653-.806-.424-.701-.63-.574-.524-.171-.706-.663-.442-.713-.579-.492m248.47-.045a2.9 2.9 0 0 0 .006.699c.029.175-.264.265-.653.2-.466-.079-.748.173-.828.74-.068.473-.518.987-1 1.143-.713.23-.753.317-.214.463.926.251 3.759-2.602 3.169-3.192-.244-.244-.454-.267-.48-.053m-4.8 3.6a2.9 2.9 0 0 0 .016.729c.035.192-.197.249-.515.127-.635-.244-2.019 1.026-1.588 1.456.443.443.766.316 1.927-.761.824-.763.994-1.144.658-1.48-.248-.248-.472-.28-.498-.071m-238.157 1.376c1.209 1.262 1.587 1.347 1.172.264-.139-.361-.414-.555-.613-.432s-.469-.059-.601-.403-.434-.625-.672-.625.084.538.714 1.196m234.417 1.625c.098.159-.094.514-.427.79-.509.423-.561.389-.328-.217.193-.504-.118-.372-1.041.443-.724.64-1.504 1.108-1.734 1.04s-.186.158.098.5c.71.856.823.821 2.735-.844 1.794-1.563 2.035-2 1.102-2-.321 0-.503.13-.405.288m-230.024 1.536c.875.913 1.799 1.58 2.055 1.482s.968.348 1.585.991c1.25 1.305 1.638 1.445 1.638.592 0-.318-.195-.543-.434-.5s-.373-.192-.3-.522 0-.466-.164-.303-.549-.061-.856-.5-.796-.797-1.087-.797-.756-.274-1.034-.61-.601-.514-.717-.398-.676-.083-1.243-.443c-.738-.467-.579-.18.557 1.008m225.423 1.143c-.007.275-.282.5-.612.5s-.6.191-.6.424.225.309.5.17.145.034-.289.385-1.028.547-1.32.434c-.329-.126-.423-.027-.246.26.19.307.067.379-.368.212-.726-.279-2.015.769-1.657 1.347s.932.434 1.673-.432c.377-.44 1.005-.8 1.396-.8 1.158 0 2.411-1.497 1.936-2.313-.227-.389-.406-.47-.413-.187m-218.434 3.447c.759.799 1.508 1.453 1.665 1.453.376 0 .209-1.09-.229-1.488-.188-.172-.213-.087-.055.188s.098.5-.135.5-.424-.159-.424-.354-.495-.669-1.1-1.053c-.989-.629-.962-.554.278.754m212.305 1.188c.147.237-.019.299-.407.15-.36-.139-.795-.034-.965.232-.731 1.136-2.173 2.114-1.86 1.261.273-.747.252-.75-.516-.077-.44.385-.922.612-1.072.505s-.003.107.326.478c.559.631.678.617 1.789-.204.654-.484 1.377-.88 1.606-.88.376 0 2.016-1.41 2.016-1.733 0-.074-.262-.134-.582-.134s-.471.181-.335.402m-209.106.785c.537.602 1.167 1.025 1.4.939s.828.211 1.323.662c.516.469.9.613.9.336 0-.265-.27-.586-.6-.712s-.6-.404-.6-.616c0-.74-1.055-1.466-1.622-1.116-.328.203-.8.153-1.165-.124-.337-.256-.173.028.364.631m5.092 2.144c-.305.305 1.26 2.136 1.824 2.136.195 0 .243-.18.107-.4s-.012-.405.276-.412.164-.221-.276-.476-.87-.414-.955-.354-.278-.088-.428-.33-.396-.316-.548-.164m197.231.452c-.605.368-1.1.818-1.1 1s-.208.203-.462.046c-.307-.19-.352-.108-.134.244.24.388.143.459-.359.267-.395-.152-.586-.101-.45.118.353.572 2.62-.006 3.508-.894 1.059-1.059.355-1.608-1.003-.781m-194.138 2.026c.895 1.008 1.305 1.089 1.305.258 0-.33-.084-.516-.186-.414s-.568-.014-1.034-.258c-.839-.44-.84-.436-.085.414M294.4 378c0 .246-.225.32-.5.165-.4-.226-.4-.175 0 .256.36.388.622.417.935.104s.313-.51 0-.703c-.239-.148-.435-.068-.435.178m-188.238 1.142c.895 1.008 1.305 1.089 1.305.258 0-.33-.084-.516-.186-.414s-.568-.014-1.034-.258c-.839-.44-.84-.436-.085.414m2.4 1.2c.895 1.008 1.305 1.089 1.305.258 0-.33-.084-.516-.186-.414s-.568-.014-1.034-.258c-.839-.44-.84-.436-.085.414m2.4 1.2c.895 1.008 1.305 1.089 1.305.258 0-.33-.084-.516-.186-.414s-.568-.014-1.034-.258c-.839-.44-.84-.436-.085.414m2.4 1.2c.895 1.008 1.305 1.089 1.305.258 0-.33-.084-.516-.186-.414s-.568-.014-1.034-.258c-.839-.44-.84-.436-.085.414m171.438.058c0 .246-.208.319-.462.162-.307-.19-.352-.108-.134.244.24.388.143.459-.359.267-.463-.178-.593-.113-.4.2s.065.378-.379.208c-.371-.143-.666-.062-.666.181 0 .281-.22.253-.62-.079-.524-.434-.656-.381-.846.347-.124.473-.384.762-.579.642s-.355-.018-.355.228-.18.336-.4.2-.4.034-.4.377c0 .535.215.509 1.494-.176.822-.441 1.803-.801 2.179-.801.914 0 2.896-1.848 2.347-2.188-.231-.142-.42-.058-.42.188m-168.4.4c-.309.191-.75.238-.981.105s-.076.148.343.626 1.072.869 1.451.869a1.71 1.71 0 0 1 1.15.556c.686.826 2.353 1.04 2.623.337.169-.442-.011-.543-.726-.407-.793.152-.921.044-.771-.652.106-.487.041-.662-.154-.421-.184.228-.56.385-.835.35l-.943-.113c-.243-.027-.341-.314-.217-.637.285-.744-.208-1.066-.94-.613m160.887 2.833c.231.619.098.689-1.658.862-.423.042-.687.212-.584.378.208.336 2.579-.021 3.072-.463.174-.156.006-.537-.375-.847-.604-.492-.662-.483-.455.07m-155.009.223c-.408.407.103.944.897.944.4 0 .935.25 1.188.556.657.791 2.437 1.075 2.437.389 0-.3-.27-.567-.6-.595-1.429-.119-3-.735-3-1.177 0-.427-.543-.496-.922-.117M274 387.624c0 .233-.18.312-.4.176s-.4.04-.4.39c0 .517.154.556.811.204.446-.239.706-.605.577-.814-.311-.503-.588-.482-.588.044m-3.5 1.175c-1.184.96-1.137 1.097.305.886 1.406-.207 1.787-.628 1.091-1.205-.351-.291-.759-.198-1.396.319m-142.222-.143c-.45.449.138.944 1.122.944.524 0 1.054-.163 1.177-.363s-.136-.268-.576-.153c-.448.117-.801.012-.801-.237 0-.489-.517-.596-.922-.191m3.6 1.2c-.299.299.028.944.479.944.17 0 .31-.27.31-.6 0-.627-.353-.781-.789-.344M268 390c0 .246-.164.346-.364.222-.432-.267-1.636.139-1.636.552 0 .38 2.352.027 2.611-.392.111-.18.019-.44-.204-.578s-.407-.05-.407.196m-3.6 1.2c0 .246-.164.346-.364.222-.432-.267-1.636.139-1.636.552 0 .38 2.352.027 2.611-.392.111-.18.019-.44-.204-.578s-.407-.05-.407.196m-125.322 1.056c-.299.299.028.944.479.944.17 0 .31-.27.31-.6 0-.627-.353-.781-.789-.344m121.722.144c0 .246-.164.346-.364.222-.432-.267-1.636.139-1.636.552 0 .38 2.352.027 2.611-.392.111-.18.019-.44-.204-.578s-.407-.05-.407.196m-118.183 1.172c-.291.472.039.662 1.783 1.027.77.161 1.58.43 1.8.598 1.003.763 5.009.892 4.725.152-.166-.433-.334-.522-.432-.229-.088.264-.335.48-.55.48s-.307-.135-.205-.3-.525-.286-1.393-.268c-1.125.022-1.522-.115-1.382-.48.122-.319-.022-.428-.383-.289-.33.127-.583-.012-.586-.32-.005-.419-.095-.406-.394.057-.213.33-.391.394-.394.143s-.285-.565-.627-.696c-.416-.159-.529-.075-.341.258.218.386.161.385-.259-.005-.642-.595-1.049-.634-1.362-.128m113.572.046c-.118.191-.45.257-.738.146s-.754.078-1.036.418c-.432.521-.395.611.236.571 1.509-.096 3.104-.562 3.126-.915.03-.478-1.313-.664-1.588-.22m-4.844.98c-.116.303-.437.465-.714.359s-.722.071-.99.393c-.418.504-.246.559 1.219.391 1.965-.226 2.34-.399 2.34-1.079s-1.596-.739-1.855-.064m-99.246 1.669c.276.273 1.311.614 2.301.757 1.75.255 1.775.243.899-.404-.495-.367-1.068-.563-1.272-.437s-.478.059-.607-.151-.592-.354-1.028-.321c-.634.047-.693.159-.293.556m95.03-.463c-.258.259-1.827.661-2.823.724-.416.026-.549.189-.331.407.456.456 4.062-.185 4.075-.725.012-.456-.601-.726-.921-.406m-50.97.662c-.113.184 1.615.334 3.841.334s3.949-.158 3.83-.351c-.276-.447-7.394-.431-7.671.017m-39.142.706c-.382.619.538.921 3.125 1.029 1.352.056 1.96.022 1.35-.075-.668-.107-1-.351-.838-.614s.083-.32-.21-.139c-.263.163-.776.055-1.138-.239-.563-.456-.61-.446-.324.066.273.488.235.507-.203.1-.637-.591-1.44-.649-1.762-.128m84.736.104c-.137.222-.777.299-1.421.17-.722-.144-1.078-.083-.928.16.136.22-.254.415-.88.44-.618.026-.854.118-.524.204.959.252 5.4-.417 5.4-.814 0-.513-1.348-.644-1.647-.16m-6.554.943c-.549.304-1.303.559-1.675.567s-.76.149-.862.314.62.236 1.605.157c1.082-.086 1.878-.37 2.011-.717.327-.852.037-.939-1.079-.321m-71.1.418c.603.561 4 1.046 3.677.525-.123-.199-.652-.362-1.176-.362s-1.057-.169-1.184-.375-.588-.347-1.024-.314c-.624.047-.687.159-.293.526M228 399.4l-1 .572 1.1.014c.717.009 1.1-.195 1.1-.586 0-.715.052-.715-1.2 0m-56.98.232c.116.189.835.319 1.598.29s1.297-.14 1.19-.248c-.353-.353-3.005-.393-2.788-.042m27.485.255c.609.092 1.509.09 2-.005s-.005-.171-1.105-.168-1.503.081-.895.173" fill="#53cbca"/><path d="M118.001 187.637c-6.134 1.21-7.385 7.908-1.993 10.663l1.762.9h111.852 111.852l1.721-.91c4.272-2.259 4.218-7.678-.101-9.985l-1.694-.905-110.8-.059c-63.099-.033-111.575.094-112.599.296m-23.882 1.147c-4.376 2.668-2.721 9.331 2.462 9.915 3.209.362 5.814-2.03 5.818-5.34.003-4.223-4.644-6.792-8.28-4.575M70.808 214.9c-4.6 2.351-4.664 7.891-.116 10.151 1.606.798 162.103 1.217 165.796.433 5.826-1.237 6.108-9.3.385-11.015-1.175-.352-21.858-.469-82.935-.469H72.57l-1.762.9m-21.559.163c-1.788.909-2.846 2.72-2.848 4.875-.005 6.941 9.968 7.274 10.671.356.41-4.042-4.156-7.096-7.823-5.231m69.625 25.729c-6.835.788-8.576 7.844-2.667 10.808l1.993 1h98.4H315l1.662-.889c4.721-2.524 4.834-7.911.214-10.187L315 240.6l-96.8-.05c-53.24-.027-97.937.082-99.326.242m-24.755 1.192c-4.498 2.743-2.466 10.009 2.801 10.015 3.12.003 5.477-2.321 5.477-5.399 0-4.231-4.653-6.826-8.278-4.616m-10.409 25.6c-5.544 1.337-6.59 7.489-1.758 10.33L83.8 279h39.4 39.4l1.734-.925c4.17-2.226 4.133-7.684-.069-9.983-1.365-.746-77.575-1.228-80.555-.508m101.139.014c-5.504 1.31-6.433 7.879-1.488 10.525L185 279h82 82l1.577-.827c4.389-2.303 4.503-7.436.222-9.951-1.474-.866-162.389-1.471-165.95-.624m-123.922.779c-4.383 1.99-3.724 8.703.982 10.002 6.401 1.768 9.571-7.664 3.437-10.227-1.728-.722-2.409-.688-4.419.225m157.397 25.628c-6.445 1.107-7.903 7.84-2.316 10.695l1.762.9 50.415-.009 52.046-.75c4.604-2.091 4.859-7.553.469-10.067l-1.7-.974-49.4-.059c-27.17-.032-50.244.086-51.276.264m-24.205 1.179c-4.592 2.8-2.517 10.016 2.881 10.016 4.187 0 6.803-4.694 4.616-8.281-1.501-2.462-4.983-3.268-7.497-1.735m-38.688 25.81c-5.097 1.816-5.676 7.655-1.03 10.384 2.206 1.296 102.592 1.296 104.798 0 4.789-2.813 3.925-9.051-1.461-10.547-2.562-.711-100.29-.556-102.307.163m-22.065.375c-5.382 2.343-3.627 10.491 2.241 10.403 6.032-.09 7.575-8.092 1.99-10.327-1.93-.772-2.606-.784-4.231-.076" fill="#dc147a"/><path d="M167.6.32c0 .176-.675.244-1.5.152s-1.403-.065-1.285.062c.428.457 3.193.418 3.663-.052.376-.376.332-.482-.198-.482-.374 0-.68.144-.68.32m8.69-.077c-.108.108-1.207.255-2.443.328s-2.509.348-2.828.613-1.173.44-1.899.391c-1.267-.087-3.288.287-4.113.761-.779.448-1.807.319-1.807-.226 0-.339-.196-.44-.5-.257-.34.204-.324.084.049-.376.471-.581.461-.677-.076-.677-.875 0-1.23.729-.68 1.392.382.46.238.528-.836.392-.715-.09-1.537.034-1.828.275s-.529.299-.529.128-.36.015-.8.413c-.741.67-.8.673-.8.038 0-.442-.178-.578-.5-.385-.34.204-.324.084.049-.376.471-.581.461-.677-.076-.677-.874 0-1.23.728-.681 1.391.382.46.221.525-.941.381-.772-.095-1.509-.001-1.64.21s-.5.282-.822.159-.485-.386-.363-.583-.049-.358-.379-.358c-.851 0-1.198.736-.655 1.391.382.46.221.525-.942.381-1.081-.134-1.533.012-1.97.636-.471.671-.645.716-1.022.262-.25-.302-1.041-.557-1.756-.568-1.056-.017-1.151.042-.502.311.44.182.564.343.276.359s-.413.206-.279.423-.009.298-.325.177-.844.057-1.181.394c-.496.496-.693.514-1.042.093-.309-.372-.297-.651.041-.989.578-.578-.504-.685-1.11-.109-.209.199-.74.448-1.18.554-.723.174-.713.197.1.239.997.051 1.143.443.43 1.156-.344.344-.614.352-1 .032-.394-.327-.53-.305-.53.089 0 .411-.107.422-.48.049-.668-.668-1.321-.604-.759.073.551.664-.243 1.101-1.543.85-.45-.086-.818.049-.818.3 0 .33-.133.324-.48-.023-.734-.734-1.291-.571-.669.197.313.385.346.555.077.393-.26-.156-.579-.111-.709.099s-.592.313-1.027.229-.792.04-.792.274c0 .266-.228.237-.609-.08-.515-.427-.566-.393-.332.217.191.499.131.632-.194.431-.261-.161-.568-.037-.689.279-.319.83-1.989.633-1.92-.227.064-.8-.676-.912-1.38-.208-.378.378-.287.601.42 1.021.497.295.634.461.304.37s-.902-.012-1.271.178c-.777.398-2.03.034-1.703-.495.377-.61-.899-.393-1.426.242-.371.447-.378.6-.025.6.26 0 .362.178.228.395-.14.227.02.294.376.158.342-.131.621-.039.621.204s-.261.443-.58.443-.744.293-.945.651c-.236.422-.458.5-.631.22-.177-.287-.732-.156-1.662.393-1.571.927-3.082.42-2.138-.717.35-.421.316-.547-.146-.547-.33 0-.824.27-1.098.6-.408.491-.38.6.151.6.357 0 .649.289.649.643 0 .422-.218.559-.633.4-.348-.134-.808-.243-1.023-.243s-.28-.18-.144-.4c.395-.639-.851-.461-1.4.2-.455.548-.283.771.5.647.456-.072.359.351-.211.922-.408.407-.606.41-.976.014-.256-.274-.356-.607-.222-.74s-.036-.243-.375-.243-.842.27-1.116.6c-.476.573-.265.789.6.614.22-.044.261.058.092.227-.422.422-1.905.504-1.65.091.366-.592-.928-.351-1.442.268-.461.556-.277.778.53.637.181-.031.215.128.076.353s-.613.41-1.053.41-.689-.18-.553-.4c.395-.639-.851-.461-1.4.2-.476.573-.265.789.6.614.22-.044.261.058.092.227-.422.422-1.905.504-1.65.091.366-.592-.928-.351-1.442.268-.469.565-.27.784.568.625.202-.039.144.199-.13.529-.513.619-1.805.44-1.412-.196.377-.61-.899-.393-1.426.242-.407.491-.382.6.138.6.389 0 .551.223.416.575-.127.332-.488.472-.857.33-.478-.183-.57-.072-.371.446.169.442.11.595-.165.425-.237-.147-.342-.606-.233-1.021.238-.913-.616-1.012-1.328-.155-.408.491-.38.6.151.6.389 0 .649.331.649.824 0 .453-.169.719-.375.591s-.542.065-.745.428c-.253.451-.458.517-.649.207-.207-.335-.506-.331-1.155.014-.792.422-.823.403-.327-.199.467-.566.464-.665-.02-.665-1.087 0-1.566.879-.815 1.496.377.31.461.449.186.31s-.5-.068-.5.158-.269.308-.598.182-.498-.391-.376-.588c.377-.61-.899-.393-1.426.242-.455.548-.283.771.5.647.47-.074.356.278-.359 1.113-.368.43-.927.667-1.265.537-.394-.151-.507-.07-.321.23s.072.381-.332.227c-.34-.131-.519-.399-.397-.596.377-.61-.899-.393-1.426.242-.371.447-.378.6-.025.6.26 0 .361.18.225.4s-.022.4.253.4.152.254-.272.565c-.942.689-1.519.408-1.253-.61.238-.913-.616-1.012-1.328-.155-.452.544-.286.767.486.652.157-.023.178.236.048.576s-.499.518-.83.39c-.415-.159-.521-.04-.353.398.132.344.076.524-.125.4s-.424.072-.496.435c-.077.393-.597.711-1.282.783l-1.152.123.919-.856c.564-.527.738-.917.451-1.012-.574-.192-2.898 1.936-2.615 2.394.112.181.372.226.577.1s.372-.04.372.193c0 .401-.577.596-1.349.455-.192-.035-.246.204-.12.532.162.424.042.525-.417.349-.427-.164-.548-.091-.359.215s.072.381-.332.227c-.34-.131-.519-.399-.397-.596.377-.61-.899-.393-1.426.242-.452.544-.286.767.486.652.157-.023.178.236.048.576s-.475.527-.765.415-.636.137-.767.551c-.149.47-.522.698-.992.608-.556-.107-.715.051-.609.603.099.516-.033.681-.426.53-.314-.12-.471-.38-.349-.577.377-.61-.899-.393-1.426.242-.465.56-.273.781.549.631.192-.035.237.228.1.585s-.249.747-.249.866-.255.004-.566-.254c-.453-.375-.619-.305-.827.351-.144.452-.439.821-.658.821s-.286.178-.152.395c.145.235-.034.289-.442.132-.451-.173-.591-.11-.41.184.177.286-.006.393-.506.297-.596-.115-.746.035-.631.631.096.5-.011.683-.297.506-.294-.181-.357-.041-.184.41.169.438.108.59-.166.421-.237-.147-.342-.606-.233-1.021.238-.913-.616-1.012-1.328-.155-.473.569-.294.76.6.642.22-.03.051.219-.376.552s-.563.606-.3.606c.287 0 .199.292-.224.736-.527.554-.838.628-1.261.3-.62-.481-.737-.452-1.709.428-.369.333-.603.955-.521 1.382.095.494-.013.675-.298.499s-.359-.047-.199.369c.167.437.073.578-.292.438a.73.73 0 0 0-.841.283c-.194.312-.136.386.159.203.272-.168.462-.035.462.324 0 .336-.365.805-.811 1.044s-.7.614-.564.835-.264.874-.888 1.453c-.962.891-1.156.949-1.266.379-.071-.37-.316-.673-.543-.673s-.319.248-.202.55c.13.341-.044.531-.458.5-.386-.029-.648.223-.621.597.026.364-.236.626-.6.6s-.627.235-.6.6-.236.626-.6.6-.627.235-.6.6-.236.626-.6.6c-.374-.027-.626.235-.597.621.031.414-.159.588-.5.458-.302-.117-.55-.026-.55.202s.303.472.673.543c1.147.221-1.035 2.164-2.385 2.124-.732-.021-1.046.138-.92.466s-.036.411-.454.251c-.464-.179-.553-.099-.318.282s.175.435-.202.202-.461-.146-.282.318c.182.475.077.58-.398.398-.416-.16-.547-.089-.369.199s-.005.393-.499.298c-.427-.082-1.09.197-1.473.621s-.575.77-.426.77-.018.442-.372.982-.539 1.152-.412 1.358-.057.487-.41.623c-.521.2-.549.36-.149.842.417.502.323.595-.598.595-.789 0-1.03.161-.869.58.156.407.03.506-.423.332-.464-.179-.553-.099-.318.282s.175.435-.202.202c-.388-.24-.459-.143-.267.359.166.432.107.59-.158.426-.248-.153-.37.027-.296.437.07.385-.123.786-.429.892-.336.117-.446.017-.279-.254.174-.28.055-.362-.319-.218-.328.125-.507.46-.398.743s-.08.623-.42.753-.599.109-.576-.048c.115-.772-.108-.938-.652-.486-.635.527-.852 1.803-.242 1.426.197-.122.457.035.577.349.151.393-.014.525-.53.426-.548-.106-.71.054-.606.596.079.407-.114.838-.428.959s-.571.011-.571-.243-.54.055-1.2.687c-1.083 1.038-1.719 2.568-.842 2.026.197-.122.465.057.596.397.154.404.076.519-.227.332s-.379-.068-.215.359c.165.432.073.578-.28.443-.481-.185-1.199 1.144-1.065 1.973.029.181-.113.227-.315.102-.438-.27-.953.881-.629 1.405.124.2-.236.54-.799.754S32 87.685 32 87.814s.225.119.5-.021.05.141-.5.623c-.877.769-1.016.795-1.133.209-.106-.528-.252-.569-.7-.197-.83.689-.708 1.534.188 1.3.872-.228 1.486.476.79.906-.293.181-.361.116-.183-.172.453-.734-.218-.535-.805.238-.381.502-.535.544-.544.151-.011-.443-.129-.452-.613-.051-.635.527-.852 1.803-.242 1.426.197-.122.465.057.596.397.135.354.068.514-.159.374-.217-.134-.409-.099-.426.079a14.98 14.98 0 0 1-.164 1.026c-.074.386.029.6.23.476s.365-.035.365.198-.45.424-1 .424c-.656 0-1-.223-1-.649 0-.531-.109-.559-.6-.151-.635.527-.852 1.803-.242 1.426.197-.122.461.048.588.376s.044.598-.182.598-.297.225-.158.5 0 .191-.31-.186c-.429-.522-.675-.575-1.03-.22-.544.544-.635 1.657-.108 1.332.197-.122.465.057.596.397.144.376.071.516-.185.358-.247-.153-.37.023-.296.421.07.375-.287.961-.794 1.302s-.89.458-.853.259c.157-.834-.062-1.031-.626-.563-.772.641-.786 1.646-.019 1.352.867-.333 1.552.206 1.042.82-.229.276-.298.62-.153.765s-.127.263-.603.263c-.533 0-.867-.25-.867-.649 0-.531-.109-.559-.6-.151-.661.549-.839 1.795-.2 1.4.22-.136.4-.071.4.144s.109.675.243 1.023c.159.415.022.633-.4.633-.354 0-.643-.292-.643-.649 0-.531-.109-.559-.6-.151-.635.527-.852 1.803-.242 1.426.636-.393.815.899.196 1.412-.33.274-.568.332-.529.13.159-.838-.06-1.037-.625-.568-.661.549-.839 1.795-.2 1.4.227-.14.4.196.4.776 0 .563-.18 1.024-.4 1.024s-.4-.292-.4-.649c0-.531-.109-.559-.6-.151-.635.527-.852 1.803-.242 1.426.636-.393.815.899.196 1.412-.33.274-.568.332-.529.13.159-.838-.06-1.037-.625-.568-.661.549-.839 1.795-.2 1.4.22-.136.4-.071.4.144s.109.675.243 1.023c.159.415.022.633-.4.633-.354 0-.643-.292-.643-.649 0-.531-.109-.559-.6-.151-.857.712-.758 1.566.155 1.328.415-.109.893.026 1.062.299.198.32.142.395-.155.211-.254-.157-.462-.082-.462.167s-.283.735-.63 1.082c-.454.454-.5.709-.166.915.319.198.253.367-.212.546-.371.142-.578.512-.459.822a.61.61 0 0 1-.358.784c-.316.122-.575.025-.575-.216 0-.287-.204-.266-.6.062-.661.549-.839 1.795-.2 1.4.22-.136.4.023.4.353s-.18.711-.4.847-.4.035-.4-.225c0-.353-.153-.346-.6.025-.857.712-.758 1.566.155 1.328.415-.109.893.026 1.062.299s.142.395-.063.268c-.698-.431-2.223 2.409-1.603 2.988.455.425.438.593-.104 1.042-.481.397-.493.458-.047.236s.418-.091-.101.503c-.385.44-.565.96-.4 1.155s-.006.12-.381-.167c-.774-.59-1.518-.299-1.518.595 0 .33.18.489.4.353s.414-.102.431.076.09.638.164 1.022-.033.802-.237.928-.244.442-.088.702c.171.285.022.26-.376-.062-.746-.606-1.494-.315-1.494.581 0 .33.178.49.395.356s.298.012.173.336c-.122.319-.027.701.211.848.495.306.184 1.013-.445 1.013-.231 0-.318-.264-.194-.587s.053-.694-.157-.824-.383.124-.383.564-.18.911-.4 1.047-.4.517-.4.847.18.489.4.353.4.123.4.576l.03 1.114c.017.16-.163.354-.4.433s-.451-.276-.476-.79c-.041-.817-.071-.833-.239-.133-.106.44-.355.971-.554 1.18-.624.656-.453 1.595.192 1.059.425-.353.605-.325.777.122.122.319-.048.805-.379 1.08-.392.325-.519.86-.365 1.529.18.777.139.883-.168.43-.223-.33-.41-.96-.414-1.4-.007-.65-.121-.586-.606.346-.759 1.455-.775 2.099-.037 1.486.831-.689 1.06.31.379 1.658-.303.599-.473 1.714-.378 2.478s-.003 1.446-.217 1.517-.429.396-.478.722-.214.792-.366 1.036-.206 1.011-.118 1.706.031 1.183-.128 1.085-.334-.859-.39-1.691c-.145-2.16-.525-2.278-.421-.131.048.983.259 2.013.47 2.288.253.329.235.5-.052.5-.241 0-.333.27-.207.6s.012.6-.256.6c-.323 0-.399.347-.226 1.034.168.67.113.943-.157.776-.229-.142-.443-.832-.476-1.534-.059-1.259-.062-1.26-.23-.141-.107.713.087 1.42.522 1.9.476.526.533.765.181.765-.409 0-.411.12-.013.6.408.491.38.6-.151.6-.357 0-.649-.191-.649-.424s-.18-.312-.4-.176c-.576.356-.494 1.419.1 1.3.479-.096.601 1.978.259 4.372-.188 1.309-.578.786-.694-.929-.056-.832-.205-1.61-.331-1.728s-.155.46-.062 1.285.024 1.5-.152 1.5-.32.281-.32.624.16.525.355.404.577.049.849.376c.37.446.375.596.021.596-.26 0-.361.18-.225.4s.049.4-.193.4-.445.675-.452 1.5l-.048 55.866c.429.708.406 2.784-.038 3.495-.339.543-.325.843.058 1.226.409.409.579.391.884-.09.388-.614.41-.484.54 3.203.032.926-.12 1.366-.451 1.3-.637-.127-.65.79-.02 1.42.58.58 1.266.64.92.08-.136-.22-.078-.4.13-.4.538 0 .811 1.805.387 2.562-.233.417-.201.638.091.638.246 0 .386.405.31.9s-.358.855-.627.8c-.703-.143-.606.906.139 1.525.523.434.699.425 1.03-.051.283-.406.329-.143.158.895-.142.858-.068 1.576.176 1.727.231.143.327.408.215.59s.041.424.34.539c.661.254 1.119 2.275.516 2.275-.269 0-.249.176.055.48.264.264.48.883.48 1.376s.197 1.019.438 1.167.355.7.255 1.224-.048.953.116.953c.374 0 .889 1.51.922 2.7.013.495.131.9.262.9.399 0 .381 1.569-.022 1.818-.208.128-.545-.183-.749-.692s-.382-.656-.394-.326.246 1.116.574 1.746.599 1.44.6 1.8.272 1.17.6 1.8.604 1.44.612 1.8c.018.907 1.556 4.013 1.572 3.178.008-.372.169-.772.358-.889s.295.232.235.776.031.989.201.989.261.675.201 1.5-.021 1.185.085.8.37-.7.587-.7.283.18.147.4-.036.4.223.4c.281 0 .396.387.286.963-.127.664-.027.904.322.77.557-.214.522 1.671-.041 2.18-.175.158-.204-.028-.066-.413s.077-.7-.137-.7-.382.225-.375.5c.02.799 2.776 6.172 2.782 5.424.003-.372.161-.772.35-.889s.295.233.235.778.035.902.211.793c.416-.257 1.284.787.94 1.131-.145.145-.031.263.252.263.408 0 .401.142-.033.677-.395.487-.406.591-.038.369.389-.233.459.011.293 1.024-.159.969-.109 1.167.183.73.36-.539.586-.295.46.5-.026.165.121.3.327.3s.291.495.191 1.1c-.138.833-.085.954.22.5.362-.539.588-.295.462.5-.026.165.121.3.327.3s.291.495.191 1.1c-.138.833-.085.954.22.5.362-.539.588-.295.462.5-.026.165.121.3.327.3s.291.495.191 1.1c-.113.682-.054.906.156.591.26-.392.506-.325 1.064.292.599.663.636.909.213 1.419-.282.34-.396.733-.255.874s.257.037.257-.233.183-.377.407-.239.304.417.179.619.022.272.327.155c.32-.123.554.041.554.387 0 .33-.113.53-.251.445s-.279.236-.315.713c-.046.611.033.708.267.329s.415-.404.606-.095c.15.244.128.454-.05.468s.093.193.602.397.813.553.676.775-.089.403.108.403.357.271.357.602c0 .508-.116.497-.749-.076-.709-.642-.73-.637-.409.098 1.679 3.835 2.194 4.58 2.654 3.836.12-.194-.138-.675-.572-1.069-.85-.768-1.059-1.791-.367-1.791.233 0 .312.18.176.4s-.046.4.2.4.349.16.228.355.047.575.372.845.485.662.355.872.098.324.505.255c.501-.086.722.099.684.573-.03.385.116.7.324.7s.276.168.149.373.173.655.665 1 .721.63.507.633-.132.169.183.368.616.662.67 1.029.423 1.056.822 1.532.13.325-.596-.334c-1.634-1.486-1.366-.335.399 1.713.623.723 1.133 1.556 1.133 1.851 0 .711 1.063 1.58 1.355 1.108.124-.201-.13-.688-.564-1.082-.85-.768-1.059-1.791-.367-1.791.233 0 .312.18.176.4s-.046.4.2.4.349.16.228.355.047.575.372.845.5.638.389.818-.019.44.204.578.407.05.407-.196.192-.328.427-.183.327.525.205.844c-.132.344-.051.474.199.32s.371.037.296.47c-.073.419.113.735.435.74.309.005.611.347.672.76.085.583-.204.448-1.286-.6-1.019-.985-1.32-1.134-1.114-.551.491 1.388 2.247 3.03 2.773 2.594s2.002.864 1.527 1.338c-.147.148-.057.268.199.268s.422.225.367.5.125.455.4.4.5.111.5.369.31.842.689 1.3-.152.038-1.179-.932c-1.354-1.278-1.809-1.539-1.655-.95.223.853 3.745 4.541 3.745 3.921 0-.197.336-.01.746.417s1.131 1.04 1.6 1.363.854.76.854.969.31.754.689 1.212-.204.021-1.294-.969-1.58-1.338-1.088-.774.893 1.201.893 1.416.81 1.186 1.8 2.158c1.611 1.581 2.022 1.731 1.837.67-.031-.181.131-.214.36-.072s.312.425.186.63.208.372.744.372c1.185 0 1.876.763 2.056 2.27.138 1.161.248 1.208 1.617.682.764-.293.768-.275.096.403-.899.906-.521 1.594.559 1.016.732-.392.765-.356.361.399-.448.837-.422.889.484.98.275.028.5.32.5.65a.6.6 0 0 0 .6.6.6.6 0 0 1 .6.6.6.6 0 0 0 .6.6c.33 0 .604.27.609.6.005.353.303.549.723.477.499-.086.677.095.591.6-.088.518.091.686.631.593.528-.091.687.047.528.461-.324.844.098 1.108 1.001.625.7-.375.733-.334.333.414-.244.456-.393.844-.33.861.95.255 1.472.225 1.288-.073-.126-.204-.425-.25-.663-.103-.26.16-.32.082-.149-.193.375-.607.336-.621 1.676.578.718.643.98 1.111.684 1.226-.977.38 3.605 6.134 4.885 6.134.238 0 .647.214.909.476.458.458.643.529 2.183.833 1.092.215 2.543 1.891 1.638 1.891-.532 0-.378.326.663 1.4.746.77 1.625 1.4 1.953 1.4.411 0 .252-.36-.511-1.156-.609-.636-.933-1.264-.72-1.396s.485.137.606.597.397.725.616.589.499.072.623.461.631.957 1.129 1.263l.904.555-.8-.918-.8-.919 1.131.729c.989.636 1.048.775.464 1.102-.778.435 1.028 2.693 2.155 2.693.411 0 .238-.378-.55-1.2-.632-.66-.955-1.2-.718-1.2s.54.281.672.625.409.522.614.395.498.176.648.674c.358 1.184 2.17 3.106 2.929 3.106.432 0 .329-.29-.375-1.058l-.97-1.057 1.032.659c.567.362 1.127.564 1.243.448s.439.063.717.398.744.61 1.034.61.78.359 1.087.797.693.664.856.5.238-.027.164.303.075.561.33.512.412.222.35.6c-.138.841.889 2.088 1.719 2.088.452 0 .36-.27-.362-1.058l-.97-1.057 1.1.703c.605.387 1.1.863 1.1 1.058s.191.354.424.354.295-.208.138-.462c-.169-.272-.111-.354.141-.198.234.145.375.577.313.962-.142.873.488 1.698 1.295 1.698.506 0 .48-.156-.149-.893-.419-.491-.486-.682-.149-.423.366.28.836.333 1.165.129.582-.359 1.622.383 1.622 1.158 0 .236.17.429.378.429s.615.493.903 1.095.878 1.163 1.309 1.246c.663.128.706.056.278-.459-.342-.412-.37-.695-.087-.87.23-.143.419-.058.419.188s.137.363.304.259.652.066 1.077.376.594.565.375.565-.652-.225-.965-.5-.259-.125.12.332.593.93.474 1.05.161.315.622.436c.727.19.769.134.316-.415-.463-.561-.425-.582.324-.183.466.249.956.344 1.088.212s.169.127.083.575c-.107.556.095.882.635 1.023.683.178.721.12.27-.427-.463-.561-.425-.582.324-.183.466.249.956.344 1.088.212s.169.127.083.575c-.107.556.095.882.635 1.023.683.178.721.12.27-.427-.463-.561-.425-.582.324-.183.466.249.956.344 1.088.212s.169.127.083.575c-.107.556.095.882.635 1.023.683.178.721.12.27-.427-.463-.561-.425-.582.324-.183.466.249.956.344 1.088.212s.169.127.083.575c-.107.556.095.882.635 1.023.683.178.721.12.27-.427-.463-.561-.425-.582.324-.183.466.249.956.344 1.088.212s.169.127.083.575c-.107.556.095.882.635 1.023.602.157.692.086.376-.295-.295-.356-.273-.506.077-.517a6.34 6.34 0 0 0 1.094-.167c.39-.098.559.094.482.549-.064.385.116.713.4.728s.168.165-.261.333c-.746.292-.743.314.087.531.475.124.826.109.778-.033s.074-.289.269-.325.526-.306.735-.6c.277-.389.331-.308.199.3-.146.681-.018.803.701.666.709-.136.874.012.845.753-.023.597.228.975.712 1.073.438.088.643-.019.494-.26-.318-.514.555-1.101.904-.608.372.526 2.599 1.899 2.304 1.421-.149-.241.064-.322.528-.201.428.112.833.588.901 1.059s.458.919.869.997c.436.084.642-.028.494-.268-.14-.226-.051-.536.197-.69s.593-.049.766.231c.189.305.612.397 1.056.228.478-.183.599-.146.34.102-.22.212-.76.472-1.2.578-.74.178-.734.196.076.239.482.025.988.226 1.124.446.339.549 1.424.507 1.3-.05-.055-.247.117-.53.382-.627.306-.113.424.125.323.65-.115.6.048.827.594.827.415 0 .865.18 1.001.4s.517.4.847.4.497-.168.37-.372-.047-.486.176-.624c.366-.226.581.294.454 1.096-.026.165.302.3.729.3s.888.18 1.024.4c.339.549 1.424.507 1.3-.05-.055-.247.117-.53.382-.627.306-.113.424.125.323.65-.115.6.048.827.594.827.415 0 .865.18 1.001.4s.517.4.847.4.497-.168.37-.372c-.397-.643.587-.922 1.277-.362.459.371.569.383.362.039-.202-.337-.098-.419.323-.258.342.131.624.444.627.696s.181.187.394-.143c.299-.463.389-.476.394-.057.003.308.256.447.586.32.361-.139.505-.03.383.289-.14.365.257.502 1.382.48.868-.018 1.495.103 1.393.268s-.01.3.205.3.462-.216.55-.48c.1-.3.258-.225.421.2.157.41.067.682-.227.686-.678.009.558.78 1.262.788.403.004.435-.131.12-.51-.323-.391-.239-.531.344-.575.424-.032.877.113 1.007.323s.403.278.607.151.772.051 1.261.394c.594.416.694.625.301.629-.511.005-.51.057.011.394.79.511 1.714.509 1.398-.003-.406-.657.955-.933 1.684-.342.578.469.622.461.318-.055s-.257-.522.306-.066c.362.294.875.402 1.138.239.304-.188.375-.127.194.165-.192.312.121.462.962.462.686 0 1.148.161 1.026.358-.217.351.632.842 1.456.842.282 0 .278-.167-.013-.516-.323-.391-.239-.531.344-.575.424-.032.875.11 1.003.316s.66.375 1.184.375 1.049.156 1.167.346.695.255 1.283.142c.739-.141.982-.063.786.254-.37.599 1.052.61 1.649.013.247-.247.676-.303.963-.125.842.52 2.403.576 2.094.076-.191-.309-.042-.331.492-.074 1.395.67 51.752.596 53.055-.078.98-.507 1.111-.503 1.111.036 0 .335.27.61.6.61s.6-.201.6-.447c0-.257.358-.353.846-.225.465.122 1.14.075 1.5-.105 3.044-1.516 3.764-1.687 3.543-.841-.253.966.804 1.163 1.166.218.127-.33.672-.6 1.211-.6.578 0 .875-.171.724-.416-.167-.27.108-.325.782-.155.571.143 1.261.094 1.533-.109.687-.512 1.716-.385 1.595.198-.055.265.14.482.433.482.878 0 1.096-.49.434-.975-.548-.4-.535-.459.106-.497.4-.025 1.177-.166 1.727-.315 1.685-.456 2.204-.434 2.1.087-.163.814.916.57 1.738-.393.754-.884.754-.887-.038-.3-.746.553-.762.544-.236-.125.31-.395.79-.632 1.067-.525s.598-.056.714-.359c.335-.873 1.943-.579 1.71.312-.135.517-.001.7.448.613.352-.068.623-.303.603-.523-.063-.667.789-1.449 1.345-1.236.288.111.62.045.738-.146.306-.495 1.631-.201 1.511.335-.138.618.407.559 1.754-.19.922-.513.97-.598.246-.437-.495.109-.9.055-.9-.121 0-.437 1.187-.86 1.636-.583.2.124.364.024.364-.222s.183-.334.407-.196.302.419.176.624c-.349.564.391.447 1.671-.265.922-.513.97-.598.246-.437-.495.109-.9.055-.9-.121 0-.437 1.187-.86 1.636-.583.2.124.364.024.364-.222s.183-.334.407-.196.302.419.176.624c-.349.564.391.447 1.671-.265.922-.513.97-.598.246-.437-.495.109-.9.055-.9-.121 0-.437 1.187-.86 1.636-.583.2.124.364.024.364-.222s.183-.334.407-.196.302.419.176.624c-.349.564.391.447 1.671-.265.922-.513.97-.598.246-.437-.495.109-.9.11-.9.001s.405-.527.9-.928c.892-.723 2.182-.379 1.672.446-.396.641.48.374 2.872-.877 1.296-.677 1.872-1.127 1.281-.998s-1.164.091-1.271-.083.152-.35.575-.392c1.756-.173 1.889-.243 1.658-.862-.204-.546-.145-.558.434-.088.368.3.572.705.451.9-.39.631.464.381 2.872-.84 1.296-.657 2.083-1.197 1.75-1.2s-1.278.355-2.1.796c-1.279.685-1.494.711-1.494.176 0-.343.18-.513.4-.377s.4.046.4-.2.16-.349.355-.228.455-.169.579-.642c.19-.728.322-.781.846-.347.4.332.62.36.62.079 0-.243.295-.324.666-.181.444.17.57.101.379-.208-.187-.303-.072-.381.332-.227.34.131.519.398.398.595-.331.535 1.012-.064 7.625-3.401 3.3-1.665 5.696-3.03 5.324-3.034s-.805-.214-.962-.468c-.177-.286-.11-.353.176-.176.254.157.462.133.462-.052s.528-.649 1.172-1.03c1.361-.804 2.172-.183.968.741-.66.507-.602.522.537.142.702-.234 1.492-.685 1.756-1.003.386-.465.364-.534-.112-.351-.326.125-.841-.096-1.144-.491s-.391-.583-.196-.417.714-.015 1.154-.4c.768-.673.789-.67.516.077-.313.853 1.129-.125 1.86-1.261.346-.539 1.608-.232 1.273.309-.345.558 2.127-.437 2.649-1.066.388-.467.362-.533-.136-.342-.886.34-1.214-.444-.489-1.169.605-.605 1.976-.471 1.589.156-.109.176.194.218.673.093l.871-.228-.87-.322c-.479-.177-.871-.412-.871-.523s.23-.112.511-.004.867-.091 1.3-.442.564-.524.289-.385-.5.063-.5-.17.27-.424.6-.424.605-.225.612-.5.203-.172.436.229c.332.571.264.853-.312 1.295-.654.502-.594.518.541.139.702-.234 1.492-.685 1.756-1.003.386-.465.364-.534-.112-.351-.326.125-.832-.061-1.125-.413s-.343-.586-.113-.519 1.01-.4 1.734-1.04c.923-.815 1.234-.947 1.041-.443-.233.606-.181.64.328.217.333-.276.525-.631.427-.79s.092-.288.422-.288c.335 0 .509.235.395.534-.302.785.349.649 1.426-.297.519-.457.719-.717.444-.577-.922.469-1.396-.224-.688-1.006.635-.702 2.009-.669 1.572.039-.342.553 2.124-.434 2.642-1.057.376-.454.336-.569-.201-.569-.382 0-.556-.188-.403-.435.147-.239.608-.346 1.023-.237s.872.006 1.016-.227c.155-.25.072-.307-.199-.139-.478.295-.677-1.014-.223-1.468.36-.36 1.39.136 1.136.547-.276.446 1.802-.324 2.551-.945.463-.385.449-.494-.09-.684-.585-.204-.586-.305-.017-1.118.793-1.132 1.544-1.161 1.253-.048-.217.829-.202.828.753-.07.984-.924 1.283-1.414.61-.998-.201.124-.304-.09-.23-.476s.153-.882.177-1.102.222-.091.442.286c.3.514.623.6 1.297.344 1.138-.433 6.229-5.19 5.455-5.098-.64.076-.776-.157-.776-1.332 0-.468.267-.8.643-.8.407 0 .558-.22.412-.6-.14-.365 0-.6.358-.6.323 0 .587-.18.587-.4s.36-.76.8-1.2.8-.641.8-.447.383.454.852.576c.617.162.777.418.582.927-.149.387.372.043 1.158-.766l2.837-2.839c.942-.916 1.189-1.349.745-1.31-.365.033-.817-.346-1.006-.841-.209-.549-.191-.9.045-.9.213 0 .387-.27.387-.6a.6.6 0 0 1 .6-.6c.33 0 .6-.163.6-.363s.365-.267.81-.15c.747.195.699.321-.6 1.582-.775.753-1.41 1.487-1.41 1.631s.747-.449 1.659-1.319 1.548-1.266 1.413-.881c-.342.97.005.878.554-.148.319-.596.323-.768.014-.577-.242.15-.454.127-.471-.051s-.086-.61-.155-.96c-.093-.475.116-.59.826-.454.555.106.848.37.704.636-.136.25 1.147-.986 2.85-2.746 2.62-2.706 4.676-5.585 3.447-4.825-.197.121-.455-.034-.574-.344-.249-.648.785-1.195 1.148-.607.132.214.411.284.619.155a.44.44 0 0 0 .151-.603c-.126-.204-.044-.686.181-1.073.379-.65.411-.644.422.086.01.668.201.582 1.245-.561 1.276-1.397 2.352-3.513 1.527-3.003-.27.167-.382-.013-.294-.473a1.21 1.21 0 0 1 .886-.886c.512-.098.647.013.434.357-.191.308-.146.4.115.238.233-.144.335-.601.227-1.016s-.002-.876.237-1.023c.247-.153.435.021.435.403 0 .537.115.577.569.201.623-.518 1.61-2.984 1.057-2.642-.642.397-.794-.959-.177-1.576.725-.725 1.509-.397 1.169.489-.191.498-.125.524.342.136 1.067-.885 1.486-2.765.717-3.214-.372-.217-.497-.414-.277-.437s.716-.104 1.102-.177c.437-.084.606.04.447.33-.14.256.324-.147 1.031-.896s1.461-1.828 1.674-2.4c.368-.985.326-.971-.81.261-1.351 1.465-1.511 1.541-1.511.718 0-.321.138-.498.306-.394s.419.006.557-.217.054-.407-.188-.407-.072-.394.376-.875.816-1.052.816-1.267.117-.274.26-.131.495-.052.781-.433c.465-.622.5-.59.331.306-.162.859-.138.887.17.2.222-.493.206-.992-.04-1.3-.22-.275-.333-.514-.251-.531 1.331-.273 1.522-.248 1.274.166-.167.278-.019.255.367-.058.673-.545 1.733-3.063 1.134-2.693-.541.335-.848-.927-.309-1.273 1.147-.738 2.112-2.171 1.261-1.874-.747.26-.746.246.022-.353.713-.557.824-.558 1.019-.015.331.922.548.546 6.118-10.625 4.602-9.231 5.787-12.139 4.663-11.444-.604.373-.48-.436.147-.956.314-.261.487-.971.405-1.669-.102-.884-.006-1.134.353-.918.275.165.228-.033-.105-.445-.533-.66-.533-.719 0-.534.406.142.566.648.494 1.566l-.106 1.356.606-1.146c.678-1.281.787-2.013.251-1.682-.195.121-.6-.083-.9-.451-.47-.579-.458-.638.088-.434.619.231.689.098.862-1.658.042-.423.219-.682.392-.575s.211.679.083 1.271.321.015.998-1.281c1.251-2.392 1.518-3.268.877-2.872-.195.121-.6-.083-.9-.451-.471-.58-.458-.638.099-.43.513.192.616.009.509-.908-.073-.631.07-1.274.319-1.427.295-.183.34-.098.128.244s-.167.427.121.249c.244-.151.343-.539.219-.862s-.05-.587.165-.587.328-.532.252-1.182.066-1.309.315-1.462c.276-.171.341-.1.166.182-.157.254-.111.462.101.462s.296.405.187.9c-.161.724-.076.676.437-.246.712-1.28.829-2.02.265-1.671-.205.126-.486.047-.624-.176s-.05-.407.196-.407.331-.188.189-.418.009-.825.335-1.323c.437-.667.484-1.101.179-1.646-.349-.624-.301-.698.298-.468s.633.178.207-.336c-.278-.335-.334-.609-.124-.609.37 0 .448-.26.611-2.027.066-.718.136-.745.53-.206.25.341.571.503.715.36.358-.359.328-1.338-.04-1.28-1.29.204-1.896-1.043-.725-1.493.316-.121.488-.446.382-.723-.205-.534 1.004-1.77 1.399-1.431.128.11.291-.101.362-.469.098-.509-.078-.614-.74-.441-.767.201-.818.133-.437-.579.237-.443.337-.899.223-1.013s.162-.813.613-1.553.821-1.109.822-.821.181.412.401.276.4-.517.4-.847-.168-.497-.372-.37-.486.047-.624-.176-.085-.407.117-.407.315-.49.249-1.09.065-1.311.29-1.582.302-.666.171-.878.046-.67.394-1.018c.576-.576.576-.632-.004-.632-.493 0-.575-.245-.362-1.093.151-.601.274-1.321.274-1.6s.134-.507.298-.507.25-.445.19-.989.046-.893.235-.776.344.032.344-.188-.199-.523-.443-.673c-.309-.192-.283-.373.09-.603.311-.192.649-.14.813.127.155.25.274-12.807.265-29.017l-.271-29.315c-.14.087-.28-.275-.312-.804s.104-.962.3-.962.358-.641.358-1.424c0-.847-.162-1.323-.4-1.176-.22.136-.4-.113-.4-.553s-.181-.911-.401-1.048-.291-.689-.156-1.229.071-1.203-.144-1.475c-.622-.789-.483-1.98.168-1.44.4.333.531.306.527-.106-.008-.704-.779-1.94-.788-1.262-.004.294-.276.384-.686.227-.425-.163-.5-.321-.2-.421.264-.088.48-.335.48-.55s-.135-.307-.3-.206-.314-.433-.33-1.187c-.032-1.406.401-1.377.745.05.158.658.2.622.236-.2.058-1.315-.81-4.352-1.05-3.672-.133.378-.351.293-.767-.301-.319-.455-.477-.996-.351-1.2s.035-.492-.204-.64-.337-.52-.219-.827.03-.56-.196-.56-.288-.2-.136-.445.026-.602-.277-.794c-.399-.252-.413-.35-.051-.355.275-.003.5-.197.5-.43s-.163-.322-.363-.199-.266-.144-.148-.595c.137-.523-.057-1.019-.538-1.375-.729-.54-.728-.553.04-.445.439.062.91.54 1.06 1.075.249.892.271.875.296-.237.015-.66-.237-1.549-.56-1.976-.406-.538-.587-.603-.587-.211 0 .377-.18.302-.541-.224-.732-1.067-.726-2.343.008-1.734.4.333.53.306.52-.106-.018-.808-1.014-1.984-1.391-1.643-.178.162-.202.081-.054-.178s.088-.586-.135-.724-.407-.431-.407-.651.18-.289.4-.153.4-.033.4-.376-.135-.603-.3-.577c-.802.127-1.322-.088-1.096-.454.138-.223.419-.302.624-.176s.372-.04.372-.37-.18-.711-.4-.847-.4-.597-.4-1.024-.135-.755-.3-.729c-.802.127-1.322-.088-1.096-.454.138-.223.419-.302.624-.176s.372.06.372-.147c0-.639-1.054-2.926-1.335-2.897-.847.087-1.084-.018-.861-.38.138-.223.419-.302.624-.176s.372-.04.372-.37-.18-.711-.4-.847-.4-.586-.4-1.001c0-.546-.227-.709-.827-.594-.525.101-.763-.017-.65-.323a.59.59 0 0 1 .658-.372c.273.063.419-.197.338-.6-.086-.426-.486-.699-.999-.682-.584.02-.909-.261-1.029-.888-.1-.522-.01-.814.208-.679.386.239-.864-1.887-1.329-2.261-.137-.11-.246-.512-.243-.894.005-.532.13-.59.54-.251s.533.286.533-.227c0-.384-.511-.848-1.2-1.088-.659-.23-1.093-.589-.964-.798.142-.231.458-.196.8.088.719.596.807-.427.098-1.136-.355-.355-.594-.302-1.001.22-.494.634-.514.628-.266-.08.172-.49.117-.671-.153-.504-.24.148-.504-.164-.61-.723-.109-.568-.027-.883.195-.746.211.131.053-.28-.351-.912-.672-1.051-.674-1.102-.032-.592.615.487.671.475.451-.098-.822-2.144-1.672-3.32-2.327-3.224-.392.058-.613.005-.491-.118s.02-.604-.229-1.07c-.408-.767-.387-.794.224-.29.588.485.642.473.423-.098-.822-2.144-1.672-3.32-2.327-3.224-.392.058-.613.005-.491-.118s.02-.604-.229-1.07c-.399-.749-.378-.787.183-.324.546.45.606.414.429-.26-.162-.62-.465-.745-1.468-.606-.695.097-1.064.034-.821-.14s.394-.642.332-1.039c-.086-.563.008-.624.426-.277.424.352.493.279.329-.348-.135-.514-.471-.741-.961-.647-.426.082-.713-.061-.661-.331.051-.261-.146-.426-.438-.365s-.415-.075-.276-.3.052-.41-.194-.41-.331-.189-.188-.419c.175-.283.458-.255.87.087.515.428.587.385.459-.278-.083-.431-.644-1.02-1.246-1.309s-1.095-.695-1.095-.903-.193-.378-.429-.378c-.775 0-1.517-1.04-1.158-1.622.204-.329.151-.799-.129-1.165-.259-.337-.068-.27.423.149 1.257 1.072 1.227-.109-.033-1.292-1.18-1.109-2.015-1.144-1.674-.07.14.44.086.8-.118.8s-.338-.405-.296-.9-.188-1.35-.512-1.9l-.589-1 1.057.97c.788.722 1.058.814 1.058.362 0-.83-1.247-1.857-2.088-1.719-.378.062-.648-.096-.6-.35s-.182-.403-.512-.33-.464-.002-.299-.168.005-.766-.357-1.333l-.659-1.032 1.057.97c.831.761 1.058.832 1.058.331 0-.351-.765-1.309-1.7-2.128s-1.475-1.363-1.2-1.208c.284.16.5.065.5-.22 0-.593-1.982-2.745-2.529-2.745-.411 0-2.271-1.88-2.271-2.295 0-.14.54.263 1.2.895.822.788 1.2.961 1.2.55 0-1.127-2.258-2.933-2.693-2.155-.327.584-.466.525-1.102-.464l-.729-1.131.919.8.918.8-.555-.904c-.306-.498-.874-1.006-1.263-1.129s-.603-.392-.477-.597-.193-.532-.71-.729c-.964-.366-2.267-1.641-1.679-1.641.181 0-.251-.597-.958-1.326s-1.162-1.45-1.011-1.6.063-.274-.193-.274-.422-.215-.367-.478-.44-.601-1.1-.752-1.043-.297-.851-.323.148-.289-.097-.584c-.564-.68-.095-1.197.579-.637 1.115.925.277-.877-1.055-2.268-1.576-1.647-2.84-2.272-3.259-1.611s-1.037-.122-1.233-1.547c-.12-.865-.356-1.166-.848-1.077-.468.084-.643-.104-.559-.6.086-.508-.092-.686-.6-.6s-.686-.092-.6-.591c.072-.42-.124-.718-.477-.723-.33-.005-.6-.279-.6-.609a.6.6 0 0 0-.6-.6.6.6 0 0 1-.6-.6.6.6 0 0 0-.6-.6.6.6 0 0 1-.6-.6.6.6 0 0 0-.6-.6c-.33 0-.622-.225-.65-.5-.091-.906-.143-.932-.98-.484-.748.4-.789.367-.414-.333.229-.428.315-.879.191-1.003-.328-.327-1.347.135-1.347.612 0 .223.315.159.7-.143.638-.5.65-.486.137.168-.763.971-1.465.257-.86-.874.248-.464.4-.858.337-.876s-.536-.08-1.051-.136c-.965-.106-1.759-.951-1.416-1.507.107-.173-.085-.208-.426-.077-.444.17-.621-.009-.621-.628 0-.476-.168-.763-.372-.636s-.489.043-.63-.186-.109-.391.072-.36c1.061.185.911-.226-.67-1.837-.972-.99-1.942-1.8-2.158-1.8s-.852-.402-1.416-.893-.216-.002.774 1.088 1.426 1.672.969 1.294-1.003-.689-1.212-.689-.645-.382-.969-.849c-.944-1.363-1.629-1.973-1.975-1.759-.177.11-.543-.067-.813-.392s-.638-.5-.818-.389-.441.018-.58-.208.124-.549.585-.72c.818-.303.812-.333-.275-1.338-1.806-1.669-2.971-1.883-1.511-.277.659.726.824 1.007.367.625s-.937-.591-1.064-.464-.354-.155-.504-.628c-.162-.511-.496-.773-.823-.647-.683.261-1.154-.397-.551-.77.516-.319-1.489-2.584-2.287-2.584-.281 0-1.102-.51-1.825-1.133-2.048-1.765-3.199-2.033-1.713-.399.659.726.81.994.334.596s-1.125-.763-1.444-.809c-.974-.143-2.099-1.479-1.537-1.827.552-.34.013-.9-1.332-1.383-.766-.276-.766-.268-.011.567.562.621.61.813.179.718-.323-.072-.826-.4-1.118-.73-.472-.533-.498-.533-.233 0 .221.444.091.418-.503-.101-.44-.385-.905-.597-1.032-.47s-.35-.145-.496-.605-.433-.732-.637-.606-.371.044-.371-.182-.252-.314-.56-.196-.678.022-.823-.213-.063-.427.183-.427.334-.183.196-.407-.398-.315-.578-.204-.548-.064-.818-.389-.65-.493-.845-.372-.355.018-.355-.228-.18-.336-.4-.2-.4.057-.4-.176c0-.692 1.023-.483 1.791.367.394.434.875.692 1.069.572.744-.46-.001-.975-3.836-2.654-.735-.321-.74-.3-.098.409.573.633.584.749.076.749-.331 0-.602-.161-.602-.357s-.182-.245-.403-.108-.558-.167-.746-.676-.457-.881-.597-.826c-.624.246-.798.052-.259-.288.471-.298.415-.363-.272-.311-.477.036-.765.231-.64.434s-.022.278-.327.167-.511-.405-.456-.652-.035-.429-.2-.403c-.795.126-1.039-.1-.5-.462.454-.305.333-.358-.5-.22-.605.1-1.1.014-1.1-.191s-.135-.353-.3-.327c-.785.124-1.041-.097-.505-.435.487-.308.45-.375-.2-.365-.437.006-1.155-.079-1.595-.188l-1-.235c-.11-.02.068-.206.395-.412.487-.308.45-.375-.2-.365-.437.006-1.155-.079-1.595-.188l-1-.235c-.11-.02.068-.206.395-.412.487-.308.45-.375-.2-.365-.437.006-1.155-.079-1.595-.188l-1-.235c-.11-.02.07-.217.4-.439.454-.305.333-.358-.5-.22-.605.1-1.1.003-1.1-.215s-.168-.294-.372-.167-.486.047-.624-.176-.031-.407.239-.407.375-.116.233-.257-.522-.036-.847.233c-.613.509-2.229.233-2.229-.38 0-.193-.36-.281-.8-.196s-.8-.038-.8-.272c0-.28-.195-.264-.569.046-.469.389-.533.311-.365-.451.12-.546.067-.74-.131-.473-.481.646-2.135-.064-2.135-.917 0-.512-.117-.576-.449-.244-.671.671-1.702.175-1.112-.535.379-.458.243-.51-.79-.304-.836.167-1.249.093-1.249-.224 0-.26-.18-.362-.4-.226s-.4.057-.4-.176.304-.424.676-.424c.59 0 .578-.075-.1-.587-.978-.741-2.172-.849-1.456-.133.735.735.57 1.197-.267.748-.411-.22-.861-.286-1-.147s-.253.023-.253-.257c0-.296-.26-.41-.621-.271s-.516.069-.376-.158c.134-.217.549-.401.921-.409s-.044-.361-.924-.786-1.87-.768-2.2-.761-.183.179.326.383c1.177.472.768 1.178-.683 1.178-1.412 0-1.765-.358-1.146-1.163.3-.39.143-.342-.404.125-.502.428-.893.56-.893.3 0-.254-.51-.462-1.133-.462-1.435 0-1.792-.355-1.17-1.163.38-.495.308-.484-.323.052-.774.656-.841.65-1.394-.118-.394-.548-.86-.736-1.455-.587-.482.12-.965.074-1.075-.103s.458-.365 1.261-.419c1.711-.115 2.296-.462.779-.462-.573 0-1.154-.18-1.29-.4-.352-.569-1.42-.497-1.3.088.228 1.115-2.526.622-3.138-.562-.699-1.351-1.566-1.471-1.659-.231-.048.636.03.737.27.349.377-.61 1.245-.261 1.195.48-.021.327-.096.314-.238-.041-.145-.361-.356-.393-.701-.107-.351.291-.746.175-1.366-.404-.481-.447-1.031-.715-1.224-.596s-.645-.231-1.004-.779c-.812-1.239-1.643-1.287-1.732-.102-.052.684.017.757.293.312.198-.321.465-.48.592-.352.703.703-.913 1.075-1.657.381-.542-.505-1.184-.688-1.968-.561-.857.138-1.012.082-.589-.213.713-.498-.085-1.67-1.123-1.649-.567.011-.558.083.073.561.457.347.568.646.3.811-.233.144-.424.096-.424-.106s-.449-.32-.998-.259-1.103-.06-1.231-.268-.894-.268-1.702-.134c-1.038.171-1.301.125-.895-.158.713-.496-.086-1.668-1.123-1.647-.567.011-.558.083.073.561.457.347.568.646.3.811-.233.144-.424.111-.424-.073s-.585-.351-1.3-.37c-3.63-.095-4.091-.16-3.549-.503.688-.436.234-1.25-.675-1.207-.442.02-.497.103-.159.238.396.16.408.338.051.769a1.56 1.56 0 0 1-2.265.104c-.745-.745-52.293-1.62-53.013-.9m57.41.433c.385.1 1.015.1 1.4 0s.07-.183-.7-.183-1.085.082-.7.183m-74.9 1.08c0 .086.617.229 1.372.317s1.284.017 1.176-.157c-.193-.313-2.548-.461-2.548-.16m80.9.12c.385.1 1.015.1 1.4 0s.07-.183-.7-.183-1.085.082-.7.183m-86.9 1.08c0 .086.617.229 1.372.317s1.284.017 1.176-.157c-.193-.313-2.548-.461-2.548-.16m51.034.544c-.422.422-7.41.462-7.669.044-.117-.189 1.628-.344 3.878-.344s3.955.135 3.791.3M148 4.156c0 .086.617.229 1.372.317s1.284.017 1.176-.157c-.193-.313-2.548-.461-2.548-.16m159.825 24.672c.828.915 2.16 1.118 1.411.215-.254-.306-.833-.653-1.286-.772-.79-.207-.795-.184-.125.557m11.548 7.944c.925.965.991 1.152.375 1.061-.412-.06-.756-.362-.766-.671s-.235-.517-.5-.462-.482-.091-.482-.324-.18-.312-.4-.176-.4.057-.4-.176c0-.789 1.045-.43 2.173.748m23.623 20.01L350.358 64c.091 0-.132-.329-.496-.731s-.662-.9-.662-1.105c0-.578-11.696-12.022-12.6-12.329-.44-.149 2.438 2.977 6.396 6.947m-286.73-.364c-3.484 3.508-6.27 6.57-6.192 6.803.101.304 11.345-10.554 13.493-13.029.091-.106-.089-.183-.4-.172s-3.417 2.891-6.901 6.398m11.132-1.216c-.4.442-.806.724-.903.627-.234-.234.806-1.394 1.267-1.414.199-.008.035.346-.364.787m265.678-.183c.341.341.537.702.436.802s-.51-.177-.91-.619c-.848-.937-.438-1.095.474-.183M43.865 70c-.622.659-1.059 1.419-.969 1.687.106.318.42.187.904-.379.409-.477.852-.799.986-.716s.28-.287.325-.821c.1-1.213.118-1.216-1.246.229m197.735-.16c43.156 5.38 77.85 39.638 83.407 82.36 1.51 11.605.962 15.498-2.418 17.2-1.575.793-2.385.8-93.189.8-102.75 0-92.919.282-95.158-2.734-2.523-3.399-.021-22.506 4.574-34.918 15.77-42.606 57.893-68.305 102.784-62.708m113.2-.564c0 .33.36.926.8 1.324.656.594.8.616.8.124 0-.33-.36-.926-.8-1.324-.656-.594-.8-.616-.8-.124m3.832 5.072c-.147.237.326.964 1.051 1.614s1.384.995 1.465.766c.221-.62-2.192-2.904-2.516-2.38M33.043 84.423c-.611.647-1.05 1.351-.976 1.564.16.466.626.155 1.863-1.248 1.295-1.468.476-1.76-.887-.316m341.202 12.704c-.124.201.13.688.564 1.082.666.602.791.618.791.102 0-.768-1.047-1.683-1.355-1.184M14.5 118.283c-.641 1.381-.637 1.929.011 1.391.415-.345.921-2.482.585-2.471-.053.002-.321.488-.596 1.08M399.293 164.8c0 .77.082 1.085.183.7s.1-1.015 0-1.4-.183-.07-.183.7M4.276 182.7c-.101.385-.183.07-.183-.7s.082-1.085.183-.7.1 1.015 0 1.4m391.6 0c-.101.385-.183.07-.183-.7s.082-1.085.183-.7.1 1.015 0 1.4m-52.782 5.605c4.319 2.307 4.373 7.726.101 9.985l-1.721.91H229.622 117.77l-1.762-.9c-5.392-2.755-4.141-9.453 1.993-10.663 1.024-.202 49.5-.329 112.599-.296l110.8.059 1.694.905m-243.506.207c2.57 1.3 3.59 5.207 2.028 7.769C98.83 200.85 91.6 198.64 91.6 193.22c0-3.83 4.492-6.477 7.988-4.708M3.703 200.021c-.012 3.317-.13 6.139-.262 6.272S3.2 203.593 3.2 200s.118-6.415.262-6.271.253 2.976.241 6.292m393.097.003c0 3.533-.135 6.34-.3 6.238-.224-.138-.354-11.993-.138-12.562.31-.818.438 1.026.438 6.324m-159.927 14.445c5.723 1.715 5.441 9.778-.385 11.015-3.693.784-164.19.365-165.796-.433-4.548-2.26-4.484-7.8.116-10.151l1.762-.9h81.368l82.935.469m-182.239.917c1.698 1.112 2.632 2.994 2.438 4.908-.703 6.918-10.676 6.585-10.671-.356.004-4.36 4.626-6.916 8.233-4.552M4.276 218.7c-.101.385-.183.07-.183-.7s.082-1.085.183-.7.1 1.015 0 1.4m391.6 0c-.101.385-.183.07-.183-.7s.082-1.085.183-.7.1 1.015 0 1.4M.493 234.4c0 .77.082 1.085.183.7s.1-1.015 0-1.4-.183-.07-.183.7m316.383 7.124c4.62 2.276 4.507 7.663-.214 10.187L315 252.6h-98.4-98.4l-1.993-1c-5.909-2.964-4.168-10.02 2.667-10.808 1.389-.16 46.086-.269 99.326-.242l96.8.05 1.876.924m-217.238.295c1.607.832 2.759 2.827 2.759 4.781 0 5.619-7.741 7.52-10.129 2.487-2.338-4.928 2.557-9.756 7.37-7.268M2.893 246.4c0 .77.082 1.085.183.7s.1-1.015 0-1.4-.183-.07-.183.7m2.794 11.553a1.12 1.12 0 0 0 .669.766c.362.12.448.012.248-.312-.174-.283-.071-.642.24-.834.387-.239.281-.318-.362-.269-.557.042-.864.293-.795.649m2.842 4.687c-.135.353-.016.782.264.956s.384.518.231.766-.447.347-.652.221c-.427-.264-.503-1.919-.105-2.316.434-.435.524-.308.262.373M9.8 266c-.136.22-.081.4.122.4.502 0 .381 1.606-.122 1.626-.22.009-.46-.274-.534-.628-.149-.717.179-1.798.545-1.798.13 0 .125.18-.011.4m154.465 2.092c4.202 2.299 4.239 7.757.069 9.983L162.6 279h-39.4-39.4l-1.848-1.086c-4.832-2.841-3.786-8.993 1.758-10.33 2.98-.72 79.19-.238 80.555.508m186.534.13c4.281 2.515 4.167 7.648-.222 9.951L349 279h-82-82l-1.639-.877c-4.945-2.646-4.016-9.215 1.488-10.525 3.561-.847 164.476-.242 165.95.624m-285.453-.07c6.134 2.563 2.964 11.995-3.437 10.227-4.706-1.299-5.365-8.012-.982-10.002 2.01-.913 2.691-.947 4.419-.225m324.248 2.259c-.239.446-.603.707-.81.579-.221-.136-.171-.465.12-.796.744-.845 1.184-.707.69.217M14.6 279.2c-.136.22-.046.4.2.4s.334.183.196.407-.419.302-.624.176c-.51-.316-.471-1.383.052-1.383.233 0 .312.18.176.4m370.194 3.211c-.248.463-.632.689-.894.527-.342-.211-.337-.326.022-.445.266-.089.381-.326.257-.527s.061-.366.411-.366c.517 0 .556.154.204.811m-.794 1.536c0 .165-.26.649-.577 1.077-.562.757-.575.755-.517-.096.033-.48.233-.766.445-.635.223.138.274-.051.122-.448-.157-.408-.103-.587.132-.442.217.134.395.379.395.544m-63.3 10.827c4.39 2.514 4.135 7.976-.469 10.067-1.56.709-3.834.742-52.046.75l-50.415.009-1.762-.9c-5.587-2.855-4.129-9.588 2.316-10.695 1.032-.178 24.106-.296 51.276-.264l49.4.059 1.7.974m-121.062.245c2.616 1.354 3.541 5.027 1.923 7.643-2.82 4.564-9.954 2.572-9.96-2.782-.004-4.178 4.311-6.787 8.037-4.861M376.545 299c-.127.33-.361.6-.521.6s-.291-.27-.291-.6.235-.6.521-.6c.299 0 .423.256.291.6m-348.274 8.95c.119.453.466 1.032.772 1.286.903.749.7-.583-.215-1.411-.741-.67-.764-.665-.557.125M363.1 319.833c-.381.382-1.145-.236-.861-.695.168-.274.392-.267.679.02.236.236.318.54.182.675m-105.362.998c5.386 1.496 6.25 7.734 1.461 10.547-2.206 1.296-102.592 1.296-104.798 0-4.646-2.729-4.067-8.568 1.03-10.384 2.017-.719 99.745-.874 102.307-.163m-120.141.614c5.585 2.235 4.042 10.237-1.99 10.327-5.868.088-7.623-8.06-2.241-10.403 1.625-.708 2.301-.696 4.231.076m221.236 3.722c-.989.989-1.1 1.015-1.1.251 0-.321.13-.503.288-.405s.514-.094.791-.427.581-.526.678-.429-.198.551-.657 1.01m-4.793 5.993c-.997.997-1.107 1.022-1.107.258 0-.321.138-.498.306-.394s.419.006.557-.217.016-.41-.272-.413c-.382-.005-.362-.109.073-.383 1.002-.634 1.342.25.443 1.149M56.4 334.088c0 .192-.45-.102-1-.652s-1-1.129-1-1.288.45.135 1 .652 1 1.096 1 1.288m-6.534 2.612c.288.838 11.761 12.5 12.298 12.5.205 0 .747.307 1.205.682s-2.407-2.595-6.365-6.6c-7.775-7.869-7.49-7.606-7.138-6.582m3.223.092c.033.436-.063.869-.214.962s-.301-.263-.333-.792.065-.962.215-.962.3.356.332.792m291.311 5.043c0 .153-3.642 3.765-3.796 3.765-.073 0-.087-.315-.03-.7s.355-.7.664-.7.562-.27.562-.6a.6.6 0 0 1 .6-.6c.33 0 .623-.225.65-.5s.073-.56.1-.633c.058-.155 1.25-.185 1.25-.032m-5.786 4.787c-.607.562-1.025 1.1-.929 1.196s.689-.364 1.319-1.022c1.4-1.461 1.129-1.582-.39-.174M70.547 354.13c.249-.142.324-.116.167.058s-.106.654.114 1.065c.595 1.111.303.925-1.447-.922-1.156-1.22-1.273-1.436-.434-.805.631.475 1.351.747 1.6.604M332 353.067c0 .073-.378.511-.84.973-.899.899-1.783.559-1.149-.443.274-.435.378-.455.383-.073.003.288.189.41.413.272s.321-.389.217-.557.073-.306.394-.306.582.06.582.134m-7.3 6.366c-.381.382-1.145-.236-.861-.695.168-.274.392-.267.679.02.236.236.318.54.182.675m-4.8 3.6c-.381.382-1.145-.236-.861-.695.168-.274.392-.267.679.02.236.236.318.54.182.675M87.403 368.33c-.321.321.646 1.27 1.295 1.27.457 0 .493-.128.154-.537-.245-.295-.357-.625-.249-.733s-.073-.197-.403-.197-.688.089-.797.197m9.641 5.999c-.292.473.769 1.4 1.373 1.199.263-.088.121-.441-.347-.864-.443-.401-.894-.549-1.026-.335m197.791 4.196c-.313.313-.575.284-.935-.104-.4-.431-.4-.482 0-.256.275.155.5.081.5-.165s.196-.326.435-.178c.313.193.313.39 0 .703m-9.6 4.8c-.313.313-.575.284-.935-.104-.4-.431-.4-.482 0-.256.275.155.5.081.5-.165s.196-.326.435-.178c.313.193.313.39 0 .703m-10.647 4.255c.129.209-.131.575-.577.814-.657.352-.811.313-.811-.204 0-.35.18-.526.4-.39s.4.057.4-.176c0-.526.277-.547.588-.044M147.3 395.876c.385.1 1.015.1 1.4 0s.07-.183-.7-.183-1.085.082-.7.183m56.53.573c.119.193-1.604.351-3.83.351s-3.954-.15-3.841-.334c.277-.448 7.395-.464 7.671-.017m36.67 1.827c.385.1 1.015.1 1.4 0s.07-.183-.7-.183-1.085.082-.7.183m-75.2 1.2c.385.1 1.015.1 1.4 0s.07-.183-.7-.183-1.085.082-.7.183m68 0c.385.1 1.015.1 1.4 0s.07-.183-.7-.183-1.085.082-.7.183" fill="#141c44"/></svg>