<svg xmlns="http://www.w3.org/2000/svg" width="400" height="400" fill-rule="evenodd" xmlns:v="https://vecta.io/nano"><path d="M181.2 48.041C119.143 56.229 74.385 112.322 79.607 175.36c.939 11.339 1.884 11.66 12.739 4.321 22.423-15.161 44.526-19.672 71.861-14.665 13.921 2.55 20.323 5.699 42.611 20.957 15.193 10.4 20.788 13.551 28.449 16.017 23.18 7.461 49.756 4.606 68.933-7.407 9.709-6.081 10.631-8.601 10.681-29.183.173-71.814-62.417-126.762-133.681-117.359" fill="#f1b306"/><path d="M139.546 178.831c-21.331 1.446-37.024 7.897-59.421 24.426-5.629 4.154-6.372 10.211-1.605 13.07 3.64 2.184 5.886 1.521 14.46-4.264l9.82-6.611c13.369-8.951 30.741-13.066 50.019-11.849 16.575 1.047 28.188 5.191 42.781 15.267 27.949 19.299 31.628 21.287 45.8 24.752 25.36 6.199 49.906 2.005 71.438-12.207 10.992-7.256 13.272-11.885 8.027-16.299-3.658-3.078-6.137-2.546-14.614 3.131-17.018 11.398-36.526 15.649-55.975 12.197-12.409-2.203-19.264-5.22-33.054-14.549-23.86-16.14-26.727-17.847-35.494-21.141-7.876-2.958-18.571-5.181-28.617-5.947-5.807-.443-6.698-.441-13.565.024m11.055 29.776c-1.74.941-2.577 1.789-3.544 3.593l-.857 1.6v71.4l.747 72.8c4.303 8.067 13.145 5.264 14.27-4.524.496-4.309.493-131.692-.002-136.404-.747-7.094-5.756-11.09-10.614-8.465m-28.104 1.093c-1.762.565-4.329 3.437-4.972 5.564-.416 1.376-.525 8.989-.525 36.736v35l.951 2.103c2.985 6.604 10.198 6.922 13.318.588l.931-1.891v-35.6c0-29.147-.1-35.89-.55-37.2-1.522-4.434-5.205-6.567-9.153-5.3m57.758 10.486c-2.079.741-3.693 2.367-4.548 4.582-1.203 3.116-1.072 52.642.145 55.275 2.889 6.247 11.636 5.54 13.789-1.115.645-1.991 1-43.502.422-49.27-.763-7.613-4.607-11.326-9.808-9.472m-86.8 4.8c-2.079.741-3.693 2.367-4.548 4.582-1.203 3.116-1.072 52.642.145 55.275 2.279 4.928 8.33 5.909 11.922 1.933 2.444-2.705 2.426-2.48 2.426-29.976v-25l-.951-2.103c-1.881-4.163-5.385-5.998-8.994-4.711M208.408 237.7c-4.016 2.052-5.018 5.159-4.731 14.677.132 4.395.321 5.772.995 7.266 2.4 5.314 9.623 5.921 12.828 1.078l1.1-1.663v-8.494-8.495l-1.205-1.735c-1.341-1.928-4.064-3.534-5.995-3.534-.677 0-2.023.405-2.992.9m86.355 7.231c-1.377.727-2.026 1.443-2.963 3.272l-1.2 2.34v13.629V277.8l1.089 2.2c3.244 6.553 11.922 5.583 13.905-1.553.23-.831.402-6.899.402-14.247s-.172-13.416-.402-14.247c-1.397-5.026-6.416-7.354-10.831-5.022m-57.363 3.803c-2.068.983-3.224 2.268-3.986 4.428-.791 2.24-.94 72.546-.159 74.878 2.167 6.471 10.041 7.422 13.449 1.625l1.096-1.865v-37-37l-1.096-1.865c-2.012-3.422-5.974-4.785-9.304-3.201m28.793 2.601c-1.595.724-3.576 3.022-4.251 4.931-.949 2.685-.783 61.711.181 64.209 2.447 6.34 10.574 6.852 13.529.851l.948-1.926v-31.2c0-31.134-.002-31.204-.865-33.071-1.583-3.426-6.259-5.285-9.542-3.794" fill="#4bb9b7"/><path d="M181.628 16.269c-3.762.093-6.384.328-6.715.603-.298.247-1.93.535-3.627.639s-3.271.335-3.497.514-1.846.45-3.6.603-3.412.455-3.685.671-1.666.486-3.096.601c-1.473.118-2.797.445-3.053.754-.266.321-1.237.546-2.355.546-1.203 0-2.085.221-2.4.6s-1.197.6-2.4.6-2.085.221-2.4.6c-.274.33-1.084.6-1.8.6s-1.526.27-1.8.6-1.084.6-1.8.6-1.526.27-1.8.6-1.084.6-1.8.6-1.526.27-1.8.6-.825.6-1.225.6-.829.164-.953.365-.935.485-1.801.631-1.787.522-2.047.835-1.058.569-1.774.569-1.526.27-1.8.6-.814.6-1.2.6-.926.27-1.2.6-.814.6-1.2.6-.926.27-1.2.6-.814.6-1.2.6-.926.27-1.2.6-.814.6-1.2.6-.926.27-1.2.6-.814.6-1.2.6-.926.27-1.2.6-.814.6-1.2.6-.926.27-1.2.6-.814.6-1.2.6-.926.27-1.2.6-.814.6-1.2.6-.926.27-1.2.6-.814.6-1.2.6-.926.27-1.2.6-.791.605-1.149.611-1.176.546-1.818 1.2-1.451 1.194-1.8 1.2-1.158.546-1.8 1.2S94.77 46.4 94.408 46.4s-1.176.54-1.808 1.2-1.431 1.205-1.775 1.211-1.15.546-1.792 1.2-1.451 1.195-1.8 1.202-1.441.817-2.428 1.8S82.767 54.8 82.47 54.8s-2.152 1.575-4.121 3.5-3.888 3.565-4.264 3.645c-.904.191-15.674 14.894-15.68 15.608-.004.469-4.248 5.163-6.505 7.195-.385.346-.7.912-.7 1.258s-.81 1.422-1.8 2.394-1.8 2.046-1.8 2.389-.804 1.429-1.787 2.416-1.793 2.08-1.8 2.428-.548 1.159-1.202 1.8-1.194 1.452-1.2 1.8-.546 1.159-1.2 1.8-1.194 1.46-1.2 1.818-.281.875-.611 1.149-.6.806-.6 1.182-.535 1.21-1.189 1.851-1.194 1.46-1.2 1.818-.281.875-.611 1.149-.6.814-.6 1.2-.27.926-.6 1.2-.6.814-.6 1.2-.27.926-.6 1.2-.6.814-.6 1.2-.27.926-.6 1.2-.6.814-.6 1.2-.27.926-.6 1.2-.6.814-.6 1.2-.27.926-.6 1.2-.6.814-.6 1.2-.27.926-.6 1.2-.6.814-.6 1.2-.27.926-.6 1.2-.6 1.084-.6 1.8-.27 1.526-.6 1.8-.6.814-.6 1.2-.27.926-.6 1.2-.6.907-.6 1.406-.243 1.002-.54 1.116c-.309.118-.647 1.11-.789 2.312-.138 1.158-.435 2.29-.66 2.515s-.411.713-.411 1.082-.27.895-.6 1.169-.6 1.084-.6 1.8-.245 1.505-.545 1.754-.654 1.382-.789 2.518-.43 2.252-.655 2.477-.411.983-.411 1.682-.245 1.475-.546 1.724c-.31.257-.636 1.587-.756 3.086-.117 1.448-.411 2.832-.655 3.076s-.443 1.285-.443 2.314c0 1.104-.227 2.059-.553 2.33-.373.31-.606 1.674-.716 4.207-.091 2.062-.357 3.993-.593 4.291s-.544 2.243-.685 4.322-.435 3.961-.654 4.18c-.528.528-.547 38.731-.02 39.259.208.209.502 2.09.653 4.18s.453 4.026.672 4.302.489 2.165.602 4.2c.119 2.141.434 4.03.75 4.487a3.77 3.77 0 0 1 .544 1.82c0 .567.184 1.215.408 1.439s.522 1.617.659 3.093.405 2.78.592 2.895.342.606.343 1.088.261 1.37.576 1.974.698 1.954.852 3 .525 2.257.825 2.691.545 1.278.545 1.876.18 1.199.4 1.335.406.642.414 1.124.361 1.596.786 2.476.779 1.888.786 2.24.464 1.487 1.014 2.522 1 2.188 1 2.565.36 1.357.8 2.177.8 1.922.8 2.446.27 1.176.6 1.45.6.687.6.917c0 .577 5.246 11.064 5.664 11.322.185.115.336.536.336.936s.27.951.6 1.225.6.767.6 1.096.54 1.213 1.2 1.965 1.2 1.609 1.2 1.904.27.761.6 1.035.6.767.6 1.096.54 1.213 1.2 1.965 1.2 1.562 1.2 1.8.54 1.048 1.2 1.8 1.2 1.562 1.2 1.8.54 1.048 1.2 1.8 1.2 1.567 1.2 1.811.81 1.311 1.8 2.369 1.8 2.139 1.8 2.4.81 1.342 1.8 2.4 1.8 2.133 1.8 2.388 1.89 2.435 4.2 4.845 4.2 4.599 4.2 4.862c0 .619 8.064 8.664 8.685 8.664.259 0 .708.495.997 1.1s.896 1.153 1.348 1.218 2.427 1.73 4.388 3.7 3.847 3.582 4.19 3.582 1.42.81 2.392 1.8 2.052 1.8 2.4 1.8 1.428.81 2.4 1.8 2.055 1.8 2.408 1.8 1.16.54 1.792 1.2 1.442 1.2 1.8 1.2 1.168.54 1.8 1.2 1.445 1.2 1.805 1.2 1.078.45 1.595 1 1.24 1 1.608 1 .994.36 1.392.8 1.025.8 1.392.8 1.091.45 1.608 1 1.246 1 1.621 1 .905.27 1.179.6.814.6 1.2.6.926.27 1.2.6.808.6 1.187.6 1.015.36 1.413.8 1.045.8 1.438.8.826.18.962.4.575.4.975.4.951.27 1.225.6.814.6 1.2.6.914.256 1.174.569 1.171.687 2.026.831 1.766.518 2.026.831a1.78 1.78 0 0 0 1.199.569c.4 0 .829.164.953.365s.935.485 1.801.631 1.787.522 2.047.835a1.78 1.78 0 0 0 1.199.569c.4 0 .829.164.953.365s.944.487 1.822.635 1.688.418 1.8.6.922.452 1.8.6 1.685.414 1.793.589.875.447 1.703.601 1.702.445 1.944.645 1.323.479 2.4.62 2.158.41 2.4.6 1.323.459 2.4.6 2.14.39 2.36.554 1.03.43 1.8.591 1.585.44 1.811.621 1.846.454 3.6.607 3.369.416 3.589.586 1.618.436 3.106.594 2.803.445 2.923.639c.296.479 56.056.463 56.352-.016.125-.202 1.441-.494 2.923-.648s2.895-.438 3.137-.632 1.854-.471 3.581-.617 3.598-.504 4.159-.797 1.413-.533 1.895-.535.975-.161 1.095-.355 1.208-.477 2.417-.628 2.288-.419 2.397-.594 1.089-.438 2.18-.583 2.49-.527 3.109-.85 1.42-.588 1.78-.59 1.17-.271 1.8-.6 1.44-.598 1.8-.6 1.17-.271 1.8-.6 1.436-.598 1.79-.6 1.704-.54 3-1.197 2.646-1.197 3-1.2 1.704-.543 3-1.2 2.742-1.197 3.213-1.2.961-.275 1.088-.605.664-.6 1.193-.6 1.188-.27 1.462-.6.814-.6 1.2-.6.926-.27 1.2-.6.814-.6 1.2-.6.926-.27 1.2-.6.814-.6 1.2-.6.926-.27 1.2-.6.817-.6 1.206-.6.8-.238.912-.53 1.541-1.182 3.177-1.98 3.202-1.725 3.48-2.06 1.471-1.067 2.65-1.624 2.626-1.462 3.217-2.01 1.286-.996 1.544-.996 1.075-.54 1.814-1.2 1.554-1.2 1.811-1.2 1.349-.806 2.428-1.791 2.162-1.795 2.408-1.8 1.415-.904 2.6-1.998 2.372-1.994 2.64-2 1.089-.596 1.825-1.311c7.159-6.951 9.451-9.034 10.205-9.274.485-.153.987-.702 1.117-1.218.135-.54.634-1.039 1.174-1.174.516-.13 1.057-.607 1.201-1.061s2.271-2.916 4.726-5.472c7.299-7.596 7.465-7.779 7.474-8.249.005-.249.815-1.334 1.8-2.413s1.795-2.159 1.8-2.4.815-1.321 1.8-2.4 1.791-2.171 1.791-2.428.54-1.072 1.2-1.811 1.2-1.554 1.2-1.81.38-.809.844-1.228 1.211-1.543 1.661-2.498 1.059-1.829 1.356-1.943.539-.537.539-.94.182-.846.404-.983 1.219-1.927 2.217-3.977 2.165-4.047 2.596-4.436.783-1.019.783-1.398.27-.913.6-1.187.6-.814.6-1.2.27-.926.6-1.2.6-.814.6-1.2.27-.926.6-1.2.6-.814.6-1.2.27-.926.6-1.2.602-.881.605-1.349.543-1.911 1.2-3.207 1.197-2.646 1.2-3 .543-1.704 1.2-3 1.196-2.646 1.197-3 .272-1.16.6-1.79.599-1.44.6-1.8.272-1.17.6-1.8.599-1.44.6-1.8.267-1.161.59-1.78.706-2.018.85-3.109.42-2.08.611-2.198.348-.609.349-1.091.278-1.403.614-2.048.72-2.265.853-3.6.379-2.608.548-2.828.438-1.3.596-2.4.427-2.18.598-2.4.439-1.84.597-3.6.482-3.441.719-3.736c.264-.329.486-3.716.575-8.8.08-4.545.32-8.624.535-9.064.743-1.523-.291-37.239-1.108-38.267-.233-.293-.548-1.968-.701-3.722s-.422-3.374-.6-3.6-.416-1.507-.531-2.846-.4-2.78-.633-3.2-.533-1.616-.667-2.656-.413-1.995-.62-2.123-.383-.808-.39-1.51-.277-1.625-.6-2.052-.587-1.53-.587-2.451c0-1.001-.242-1.875-.6-2.173-.33-.274-.6-1.084-.6-1.8s-.27-1.526-.6-1.8-.6-1.084-.6-1.8-.27-1.526-.6-1.8-.6-1.084-.6-1.8-.256-1.514-.569-1.774-.688-1.181-.835-2.047-.43-1.676-.631-1.801-.365-.553-.365-.953a1.78 1.78 0 0 0-.569-1.199c-.313-.26-.687-1.171-.831-2.026s-.518-1.766-.831-2.026a1.78 1.78 0 0 1-.569-1.199c0-.4-.18-.839-.4-.975s-.4-.575-.4-.975-.27-.951-.6-1.225-.6-.814-.6-1.2-.27-.926-.6-1.2-.6-.814-.6-1.2-.27-.926-.6-1.2-.6-.814-.6-1.2-.27-.926-.6-1.2-.6-.814-.6-1.2-.27-.926-.6-1.2-.6-.808-.6-1.187-.36-1.015-.8-1.413-.8-1.025-.8-1.392-.45-1.091-1-1.608-1-1.24-1-1.608-.36-.994-.8-1.392-.8-1.022-.8-1.387-.54-1.181-1.2-1.813-1.2-1.439-1.2-1.794-.72-1.347-1.6-2.206-1.6-1.852-1.6-2.206-.54-1.162-1.2-1.794-1.2-1.439-1.2-1.792-.81-1.436-1.8-2.408-1.8-2.048-1.8-2.392-1.62-2.237-3.6-4.208-3.6-3.859-3.6-4.196C336 77.249 320.803 62 320.05 62c-.298 0-1.929-1.35-3.625-3s-3.302-3-3.571-3-1.354-.81-2.413-1.8-2.138-1.8-2.4-1.8-1.341-.81-2.4-1.8-2.124-1.8-2.369-1.8-1.059-.54-1.811-1.2-1.562-1.2-1.8-1.2-1.048-.54-1.8-1.2-1.636-1.2-1.965-1.2-.822-.27-1.096-.6-.74-.6-1.035-.6-1.152-.54-1.904-1.2-1.647-1.2-1.99-1.2-.716-.148-.828-.33c-.255-.413-17.956-9.27-18.526-9.27-.231 0-.643-.27-.917-.6s-.927-.6-1.45-.6-1.625-.36-2.446-.8-1.8-.8-2.177-.8-1.531-.45-2.565-1-2.27-1-2.745-1-1.213-.264-1.641-.587-1.237-.593-1.8-.6-1.372-.277-1.8-.6-1.231-.593-1.787-.6-1.366-.256-1.8-.554-1.951-.658-3.371-.802-2.762-.441-2.98-.659-.862-.398-1.429-.398-1.386-.243-1.82-.541-1.941-.657-3.348-.8-2.758-.417-3-.611-1.881-.482-3.641-.64-3.38-.426-3.6-.594-1.806-.408-3.524-.531-3.348-.411-3.622-.638c-.536-.445-26.55-.846-37.426-.576m29.174 31.517c59.725 7.008 104.224 57.294 104.079 117.614-.05 20.582-.972 23.102-10.681 29.183-19.177 12.013-45.753 14.868-68.933 7.407-7.661-2.466-13.256-5.617-28.449-16.017-22.288-15.258-28.69-18.407-42.611-20.957-27.335-5.007-49.438-.496-71.861 14.665-10.855 7.339-11.8 7.018-12.739-4.321-6.191-74.734 57.09-136.268 131.195-127.574m-57.691 131.021c10.046.766 20.741 2.989 28.617 5.947 8.767 3.294 11.634 5.001 35.494 21.141 13.79 9.329 20.645 12.346 33.054 14.549 19.449 3.452 38.957-.799 55.975-12.197 8.477-5.677 10.956-6.209 14.614-3.131 5.245 4.414 2.965 9.043-8.027 16.299-21.532 14.212-46.078 18.406-71.438 12.207-14.172-3.465-17.851-5.453-45.8-24.752-14.593-10.076-26.206-14.22-42.781-15.267-19.278-1.217-36.65 2.898-50.019 11.849l-9.82 6.611c-8.574 5.785-10.82 6.448-14.46 4.264-4.767-2.859-4.024-8.916 1.605-13.07 22.397-16.529 38.09-22.98 59.421-24.426 6.867-.465 7.758-.467 13.565-.024m4.414 30.339c4.21 2.998 4.06.192 4.065 76.254.004 65.952-.082 70.051-1.531 72.876-2.986 5.824-9.936 5.678-13.112-.276-.721-1.352-.747-3.862-.747-72.8v-71.4l.857-1.6c2.178-4.063 7.052-5.486 10.468-3.054m-30.079.819c.906.411 2.099 1.353 2.651 2.091 2.162 2.893 2.103 1.77 2.103 40.144v35.6l-.931 1.891c-3.12 6.334-10.333 6.016-13.318-.588L117 287v-35c0-38.751-.1-37.225 2.622-40.177 2.368-2.57 4.922-3.176 7.824-1.858m56.642 10.053c3.626 1.007 5.396 3.863 5.975 9.64.578 5.768.223 47.279-.422 49.27-2.153 6.655-10.9 7.362-13.789 1.115-1.217-2.633-1.348-52.159-.145-55.275 1.441-3.734 4.927-5.71 8.381-4.75m-86.777 4.806c2.108.585 4.02 2.399 5.138 4.873l.951 2.103v25c0 27.496.018 27.271-2.426 29.976-3.592 3.976-9.643 2.995-11.922-1.933-1.217-2.633-1.348-52.159-.145-55.275 1.446-3.746 4.925-5.71 8.404-4.744M214.41 237.7c1.04.526 2.28 1.62 2.985 2.634l1.205 1.735v8.495 8.494l-1.1 1.663c-3.205 4.843-10.428 4.236-12.828-1.078-1.007-2.23-1.422-10.994-.731-15.432.651-4.185 3.898-7.411 7.459-7.411.677 0 2.031.405 3.01.9m87.378 7.213c3.87 2.191 4.208 3.739 4.208 19.287 0 7.348-.172 13.416-.402 14.247-1.983 7.136-10.661 8.106-13.905 1.553l-1.089-2.2v-13.628-13.629l1.2-2.34c2.027-3.954 6.319-5.368 9.988-3.29m-57.634 4.258c.799.494 1.946 1.738 2.55 2.764l1.096 1.865v37 37l-1.096 1.865c-3.408 5.797-11.282 4.846-13.449-1.625-.781-2.332-.632-72.638.159-74.878 1.608-4.559 6.736-6.465 10.74-3.991m29.057 2.989c3.566 2.359 3.389.481 3.389 36.04v31.2l-.948 1.926c-2.955 6.001-11.082 5.489-13.529-.851-.964-2.498-1.13-61.524-.181-64.209 1.76-4.978 7.043-6.903 11.269-4.106" fill="#0c132c"/></svg>